/* XPM */
static char *_6f2e572d5354623cdb7e1136a22ba39Snv36u7cqZ1bwzw2[] = {
/* columns rows colors chars-per-pixel */
"64 64 256 2 ",
"   c #1B1400",
".  c #3B0601",
"X  c #371900",
"o  c #280D00",
"O  c #3A3A00",
"+  c #322A00",
"@  c #1A2700",
"#  c #440103",
"$  c #4B0502",
"%  c #580204",
"&  c #481603",
"*  c #5A1600",
"=  c #580B15",
"-  c #660305",
";  c #780407",
":  c #7A1600",
">  c #680213",
",  c #6B1207",
"<  c #452A00",
"1  c #572605",
"2  c #463802",
"3  c #573404",
"4  c #79330C",
"5  c #6D2F08",
"6  c #3D4300",
"7  c #314A00",
"8  c #395702",
"9  c #424401",
"0  c #4C4300",
"q  c #464A00",
"w  c #4A4905",
"e  c #55460A",
"r  c #495705",
"t  c #575705",
"y  c #574618",
"u  c #465913",
"i  c #585B16",
"p  c #484A10",
"a  c #645508",
"s  c #6D4911",
"d  c #466405",
"f  c #566502",
"g  c #587603",
"h  c #576816",
"j  c #5A7817",
"k  c #4B6913",
"l  c #697A00",
"z  c #66691A",
"x  c #6B7519",
"c  c #72771A",
"v  c #6D6C06",
"b  c #5D4B21",
"n  c #6F4F2B",
"m  c #5B6724",
"M  c #686827",
"N  c #787926",
"B  c #6E742D",
"V  c #840306",
"C  c #95010C",
"Z  c #871208",
"A  c #880214",
"S  c #98051A",
"D  c #9A1414",
"F  c #A3080D",
"G  c #A7170C",
"H  c #A80519",
"J  c #B6081A",
"K  c #A91416",
"L  c #B71A17",
"P  c #B8150D",
"I  c #943610",
"U  c #BC3307",
"Y  c #B72519",
"T  c #B83813",
"R  c #AD2C0D",
"E  c #990520",
"W  c #AA0722",
"Q  c #BD0923",
"!  c #BD1625",
"~  c #BB2225",
"^  c #C7031C",
"/  c #C6191B",
"(  c #D31A1F",
")  c #C6370D",
"_  c #D43809",
"`  c #C92717",
"'  c #D12919",
"]  c #CE2F0F",
"[  c #C70725",
"{  c #D30324",
"}  c #D7082A",
"|  c #D61725",
" . c #DD1333",
".. c #CA1823",
"X. c #E70B2C",
"o. c #E11227",
"O. c #EA0633",
"+. c #F70736",
"@. c #E91135",
"#. c #F30C30",
"$. c #CB2421",
"%. c #C53524",
"&. c #905302",
"*. c #B9480A",
"=. c #BB5705",
"-. c #AE4C0F",
";. c #90720F",
":. c #BB6908",
">. c #B07309",
",. c #834E23",
"<. c #9B6B33",
"1. c #C24B0D",
"2. c #C74608",
"3. c #D6480A",
"4. c #C3530B",
"5. c #CA5908",
"6. c #D7580A",
"7. c #C44715",
"8. c #D84A13",
"9. c #DB5813",
"0. c #C35E16",
"q. c #E5560F",
"w. c #D76708",
"e. c #CB7601",
"r. c #D67502",
"t. c #CB6B0E",
"y. c #E6690D",
"u. c #E77605",
"i. c #F5780A",
"p. c #E46612",
"a. c #F37C14",
"s. c #C74525",
"d. c #FF0D40",
"f. c #966844",
"g. c #788903",
"h. c #6F8911",
"j. c #69852A",
"k. c #729331",
"l. c #6AA739",
"z. c #76AB39",
"x. c #75B23B",
"c. c #7BB43D",
"v. c #7CB93E",
"b. c #74B036",
"n. c #6DA42F",
"m. c #5A8D26",
"M. c #75AF42",
"N. c #75B243",
"B. c #7BB442",
"V. c #7DBA43",
"C. c #7DBC4B",
"Z. c #7AB649",
"A. c #73B449",
"S. c #6E9F43",
"D. c #7EC545",
"F. c #7EC255",
"G. c #898A04",
"H. c #8B9509",
"J. c #979607",
"K. c #919010",
"L. c #B88607",
"P. c #A79907",
"I. c #B79802",
"U. c #A78A17",
"Y. c #AC8E12",
"T. c #92A217",
"R. c #ABA305",
"E. c #B8A803",
"W. c #BDB104",
"Q. c #B0B316",
"!. c #828429",
"~. c #9A9926",
"^. c #818435",
"/. c #899832",
"(. c #A68D2C",
"). c #8BA727",
"_. c #81AB3A",
"`. c #85B83D",
"'. c #97BA3A",
"]. c #9AAB2C",
"[. c #A5AF35",
"{. c #C88702",
"}. c #D78602",
"|. c #CA9803",
" X c #D69603",
".X c #E78905",
"XX c #F78607",
"oX c #F68412",
"OX c #EC9904",
"+X c #C7A804",
"@X c #D8AA08",
"#X c #C4B402",
"$X c #CBB902",
"%X c #D6B802",
"&X c #C4BF19",
"*X c #E9A905",
"=X c #E5B705",
"-X c #88C53E",
";X c #97C33F",
":X c #D7C202",
">X c #CCC00C",
",X c #E1C003",
"<X c #8C8E47",
"1X c #889647",
"2X c #959B4E",
"3X c #AC9254",
"4X c #87AA48",
"5X c #83B543",
"6X c #84BD45",
"7X c #8ABE45",
"8X c #8CB44B",
"9X c #84BD4A",
"0X c #8BBE4A",
"qX c #88B447",
"wX c #91BD4B",
"eX c #97BA45",
"rX c #85BE51",
"tX c #8BBE53",
"yX c #8BBB56",
"uX c #94BC54",
"iX c #98B959",
"pX c #91AB58",
"aX c #A4AA57",
"sX c #A7B74D",
"dX c #9CBB61",
"fX c #8EB960",
"gX c #ACB268",
"hX c #A49E62",
"jX c #85C245",
"kX c #8BC245",
"lX c #86C24A",
"zX c #89C34B",
"xX c #8AC24A",
"cX c #8DC14A",
"vX c #89C54A",
"bX c #89C24D",
"nX c #8DC24D",
"mX c #8AC54D",
"MX c #8AC34B",
"NX c #8CC94C",
"BX c #85CA49",
"VX c #91C346",
"CX c #91C34C",
"ZX c #98C647",
"AX c #85C352",
"SX c #8AC352",
"DX c #8CC853",
"FX c #8AC558",
"GX c #93C253",
"HX c #94C952",
"JX c #9DC45C",
"KX c #98C658",
"LX c #92D053",
"PX c #9DC662",
"IX c #A5C367",
"UX c #A0CC51",
/* pixels */
"bXSX0X9XB.B.9XSX9XvXvXkXkXkXkXkXVXkXjXjXD.BXkXwXVXkXjXjXjXzXkXVXkXkXjXkXvXzXmXDXlXlXlXxXxX7XkX7XkXkXcXxX0XlXxXbXbXbXbXxXcXkXkXkX",
"SX0X9X5XN.B.6XbXxXxXlXxXxXkXkXkXkXVXkXBXBXjXkXkXwXkXkXBXBXkXcXCXVXkXkXvXxXlXlXvXSXlXSXbXxXcX7XkXkXcXxXcXxXxXbX0XcXbXxXxXxXxXkXcX",
"SXnXbX9X5XV.9XmXbXlX9XlXvXkXkXNX7XwXjXzXjXjXcXVXwXcXvXzXzXxXwXCX7XkXkXmXxX9XlXSXbXbXbXxXcXxXcXcXkXkXxXmXmXmXxXlXlX9XxXlXxXkXNXcX",
"cXbXnXnXmXbXbXbXbXlXjXxXcXcXkXVXwX0XNXvXjXvXcXwXwXNXzXzXvXxXcXwX6X6X0XxXvXlXlXlXlXbXbXbXxXnXcXxXjXkXvXvXmXmXxXlXbXbXlXxXxXxXcXNX",
"0XxXxXbXmXbXbX9XbXlXlXNXNXxXxXcXwXwXCXbXxXxX0X0XCXcXlXbXmXxX0XCXc.B.B.lXmXmXlXjXjX9XxXlXlXbX0XlXvXjXjXBXvXNXlXlXmXSXbXlXxXcXcXvX",
"xXxXxXxXlXxXlXbXlX6XlXmXnXxXxXcXCXwXcXcXxXcX0X0XcXxXmXlXmXxXCX0XB.c.c.5XlXvXlXjXjXkXkX0XxX0X0XxXvXkXjXjXzXzXBXzXlXAXvXmXbXmXxXnX",
"NXvXxX7XxXlXbXbX9X5XB.5XbXxXxXnXnXwXcXbXxXxXlX0XcXvXlXlXlXlXxXnX6XqX5X0XcXcXkX7XwXkX7X0X0XwXwX0XvXjXjXzXBXlXD.V.D.lXlXbXbXnXbXnX",
"7XkXkXNXvXxXbXlX9Xc.z.c.9XxXxX0XxXcXxXvXxXlXlXvXlXzXvXvXxXmXmXbXtX0X0XcXCXcXcXVX7XkXCXVXCX7X0XcXxXzXzXzXzXD.V.x.V.V.lXlXSXnXnX0X",
"kXkXkXNXvXmXmXbX9XB.c.c.9XbXbX0XmXNXkX6XjXvXBXlXV.D.lX6XbX9X5XDXSXmXFXDXmXvXmXBXkXNX-XkXNXxX6XNXxXNXmXlXlXvXD.x.V.V.6XzXmXbXnX0X",
"kXkXxXcXxXbXbXbXmXlX6X6X9X0XbXjXjXBXNXNXBXvXD.C.D.V.mXN.z.9X9XSXSXlXlXBXlXlXjXV.v.NXkXv.kXBXjXxXxX9X5XxXDXzXc.v.x.x.V.jXbXmXnXnX",
"NXkXvXkXzXvXSXbXbXSXSXSXSXnXcXlXvXjXjXjX6XlXNXBXDXlX0X5Xn.8XuX9XFXrXAXAXlXlXmXmXxX6XNXHX6X`.NXCXnX0XKXmX6XlXNXB.v.v.jXzXxXnXnXbX",
"kXNXxXxXmXlXlXbXV.6XxXbXnXxX0XjXjXkXkXCXCXmXlXlXFXFX4X4X_.4XuXuXuXyXGXKXuX8XuXwXuXwX8X5XeXqX`._.KXuXuX0XGXDXmX6XBXzXzXvXNXxX0X0X",
"cXxXcXxXlXvXbXbXlX9X6X9XxXmXCXHXjX7X7X8XwXSXSXrXZ.4Xk.B j.x k.iXh f r f r r r t c /.j.r g /.h.f j 0XJXqXGXGX6XNXjXzXjXxXkXxX0X0X",
"xXxXxXxXbXvXbXbX9X9XlXmXmXCXxX6XCX7X8XeXeXuXGXKXPX8X1X7 i q i gX^.h q 9 9 6 O O 0 M <.t q x /.c 8 x 8XJX0X8XGXmXzXjXxXkX7XkXCX7X",
"cXxXnXxXbXbXbXbXx.c.5XvXNX7Xc.z.h.m.d 8 r j l.yXdXdX1X9 0 0 e hX2Xj.z t t 9 O O O 9 c N r t !.).j.7 d 8XJXCXCXxXmXvXvXkXkXkX7X7X",
"xXxXxXxXbXlXbXbXc.5X6XkXkXjXjXjXqX`.z.k.j d d 8 B aXh e 2 0 2 m q 6 q i i q 6 6 9 O 2 c N f t !.k.j 8 k qXKX0XmXlXxXkXkXVXkXkXkX",
"xXvXcX0XlXAXSXmX5X`.NX-XNX-XD.D.-XZXVXeX8X8Xk.k 8 B hXy < 3 y i O O k.gX<XM w r q 0 2 e N !.t a !.c r k uXCXkXvXSXtXcXVXVX;XjXzX",
"jXcX7X7XAXAXSXnX0XkX-X-Xv.jXBXBXBXNXeX8XiXgX2XB 3 s n 1 1 3 y y O p 3 n hXhXm m w 0 0 0 t !.v t ;.!.i 7 k.HX`.BXFXyX7XVX-X-XjXzX",
"jX6XkXkXlXlXmXcXxXmXvXLXjXcXxX6XD.FXIXgX3X,.5 - ; V A ; Z - * $ & o X X X b n b b i 6 6 q x <.f v 2Xi m 8XZXkXBXFXyX0XVX-X-XBXmX",
"-X-XkXkXBXBXzXjXlXlXlXD.9X0XiXdXpX2XB 5 * : K F J J Q Q W S - % # . & . # % & 1 b M p p w t N c e k.m m JXHXNX`.rXtXkXkXkXkXvXAX",
"-X-XkXkXjXBXjXD.6XlXlXx.A.4X^.<.5 , ; Z H K Q { } } } [ [ ! S ; > > # # # # $ $ # b b 3 e 0 M N t t B u 4XKX`.v.9X8X7XVXkXkXxXSX",
"jXkXkXkXjXjXD.V.b.lXZ.l.S.pXi * Z K L ..{ @.@.O.O.O.O.O.O. .[ W > > = = % $ % $ # $ = b 2 2 i c z e m u 8XnX`._.5X0X7X-X-XCXbXrX",
"jXkXkXkXxXjXD.D.x.9XN.S.S.2X3 Z L ^ { @.+.+.+.O.+.+.+.d.@.} [ Q W A > > % % % $ % $ - , b r q z z r p m PX_.b.b.9X9XkXkXkXxXSXFX",
"lXkXcX7X0XxXBXjXBX6XFXyXfX<X* K / } o.#.#.+.d.+.+.d.+.+.+.} } ^ [ H V A V - - - - ; V , f.f.9 u z k u k iXCXz.c.9XtXkXkX9X0XSXSX",
"SX0XSX0XwXCXjXBXkXnXSXyXIXB , L / ( o.X.#.#.#.#.+.+.+.+.O.} { [ ^ ^ F C C V ; > > ; A Z ,.gX1Xk d k 6 S.JXwX7XxX0XbXkXkXxXnXSX9X",
"rX0XuXuXwXCXlXjXxXcXtXuXIXs : L L ( | o.X.#.#.#.#.#.#.O.O.X.} { { ^ J H S C A ; A A C V I 3XgXyXj.m 7 m.KX0X7XnXnXnXkXkXxXSXSXSX",
"FXtX8X5X_.0XxXNXmXcXtXiXaX3 : G / ( o.o.o.o. . . . .X.} } } } } } { Q J E S A A A S H D G f.aXyXyXk.j k.KXwX0XCXnXbXkXjX0XtX0X0X",
"AXFXuXqX8XGXmXmXcXCX0XiX2X& Z D P / ' ( | | | | | | | } } | ..} } } ! W E E E E E S J P Y 0.sXGXKXPX4X8XHXCXnX6XlXxXjXjX9X9X6X7X",
"AXrXwX4X5X0X0XxXzXSX0XIX<.X : I R R ` ` / $.` ' $.( ( ( ( ( ( ( | | ! H E E E W W Q Q / ' -.3XUX0XGXuXSXHXCXxX9XbXvXkXjX0X9XbXCX",
"BXlX5Xz.z.5XkXSXNXDXwXdXt 1 : I I R T %.` ` ` ` ` ` ` ] ' ' ` ' $.' L P D D H H H J ! $.' *.(.sX7X7X9XnXkX7X6XSXvXvXBXkX0X0XCXkX",
"D.BXmX7X7XCXcXmXmXvXFXpX< 1 4 I T T T ) ) ) ) T T ) ) ) ] ] _ ] ' ] ` P G J J H H J ..%.%.-.<.sXVX-XkXxXkXkX9XSXAXlXjXjXbXnXkX;X",
"D.D.cXcXkXmX0XSXAXC.SX4XX 1 4 -.-.T *.) ) ) 2.U *.2.2.) 3.2.3.7.8._ _ ] ` P P J F K ~ %.s.-.;.].'.jXNXlXjXvXbXSXAXlXjXkXnXnXkX`.",
"jXkXvXlXzXAXFXfXFXBXPXk   1 5 -.*.7.7.1.1.7.2.7.4.2.3.3.3.3.8.8.8.8._ _ _ _ / P F C Y %.s.=.>.~.'.kXcXvXxXjXbXmXlXlXxXjXxXnXcXkX",
"kXcXvXjXBXF.fXC.AXmXHXB   1 4 I *.1.*.1.1.1.4.4.5.3.6.6.6.8.9.9.9.9.q.q._ _ ) U G F ` %.s.0.>.U.sXcXcXmXmXxXlXlXlXbXxXlX6XxXcXxX",
"CXNXzXzXjXvXrXC.F.AXrX4X  1 4 I -.*.*.*.4.4.4.5.3.5.6.6.q.q.9.p.9.p.p.q.q.6.2.) U R Y ) 7.0.>.U.eX6X7XkXvXlX6X6XlXxXlX6X6XxXxXcX",
"CXcXjXzXzXSXyXC.Z.Z.5XiX+ X 5 I T *.*.*.*.4.4.4.5.6.6.6.6.p.p.p.p.y.y.y.y.y.p.9.2.U U 2.5.:.L.~.'.xXxXnXmXlX6X6X6XlXvXlX6X6XxXcX",
"cXcXxXlXzXBXSX9Xx.x.9XPXp o 4 I -.*.*.=.=.4.4.5.5.6.6.w.q.w.y.y.u.y.i.i.i.a.a.p.6.2.2.5.t.>.Y.[.eXCXnXcX6XV.x.x.5XlXvXlX7XxXxXxX",
"cXnXxXlXzXzX9XV.x.x.9XdXB   3 ,.&.*.*.=.=.=.4.5.6.5.6.w.w.y.y.y.u.i.i.oXoXoXoXr.w.5.5.e.t.>.~.eXwXcXxX7X5Xx.b.b.V.6XxXxXxXcXxXxX",
"0XnXxXjXzXjXxX9XV.V.9XiX2X+ 3 4 &.=.=.=.5.5.5.5.5.6.w.w.w.y.u.u.i.i.i.oXoXoXr.r.w.e.t.t.(.~.'.eXCXxXNXmXvXlX6X6XjXlXxXlXxXcXxXxX",
"0XbXmXlXzXmXcXNXmXSXAXiXdX+ < s -.=.=.:.5.5.5.w.w.w.w.y.w.u.u.u.i.i.oX.X.X}.}.}.{. X{.L.U.].8XSXvXkX7XxXmXvXxXxXxXvXlXlXxXcXxXxX",
"CXnXxXlXzXxXvXNXmX7XSXyXIXw + s &.:.:.:.5.5.5.r.w.w.w.r.r.u.u.i.XXXXXXXX.X}. X}. X|.L.Y.J.].SXAXlXvXxXxXcXmXbXxXxXbXbXxXxXxXzXvX",
"cX0XlXlXlXvXkXkXkXmXAXrXIXj.  a &.>.:.:.e.w.r.w.w.r.r.r.r..X.X.XOXOXOX*X*X X X+X|.|.I.J.].'.mXD.jXlXxXjXxXCXmXCXnXxXxXbXvXxXvXlX",
"0XcXjXzXlXxXVXVX6XDXSXtXGX4X@ 2 &.>.>.:.e.e.e.r.t.r.t.}.}.}.OXOX*X*X*X*X@X@X+X|.I.I.P.G.[.;XjXzX6XlXlXlXxXnXmXmXxXxX0XxXzXxXxXmX",
"kX7XjXxXbXkXkXkXxXSXSXAXmXwXx O v >.>.>.>.e.e.e.{.}. X XOX*X*X*X=X=X=X%X%X#X+XE.I.P.J.J.'.'.`.vXzXxXxXxXxXbXxXxXxXxXxXxXzXxXmXvX",
"kXkXjXzXlXbXkXVXGXlXAXlXkXCXJXc t ;.U.L.L.L.{.{.|.|. X|.@X@X=X=X,X,X:X$X#XW.R.R.R.H.G.].'.ZXkXkXvXxXxXzXxX0X0X0X0X0XlXxXvXvXzXzX",
"-XkXjXzXSXbXVX7XCX9XAXBX-XZXKXdXK.;.K.Y.I.{.{.|.|.|.+X@X@X%X%X%X:X:X>X#XW.E.R.R.H.H.).ZX`.ZXvXjXjXjXlXzXxXxXxXxX0XxX0XxXlXxXzXzX",
"-XVXjXvXSXnX`.VXcX0XDXBX-X-X_.JXsX~.G.Y.I.I.I.|.+X+X+X+X$X$X$X$X:X$X$XW.E.R.P.K.K.).eXwXxXlXvXvXjX6XjXxXnXxX7XxXxX0XxXxXzXzXzXjX",
"-XkXzXmXSXbXkX;XCXSXBX-XBX-XwXwXeX'.].K.J.P.E.I.R.E.W.E.#X#X$X>X>X#XW.W.R.R.H.H.'.uXuX9XDXSXAXvXC.C.lXlXSXlX6X0XxXxXxXxXvXjXzXzX",
"cXlXlXlXlXlX6XkXxXlXlXjXkXkX`.7XkX;X'.[.T.G.G.P.P.I.R.E.W.W.$X>X>X&XQ.J.g.g.).ZXwXAXrXAXAXF.D.Z.F.A.A.l.V.BXN.9X6X0XbXnXnXxXxXxX",
"SXvXbXmXNXvXjXxX6XjXkXkXvXkXkXvXzXkXNXZX;X).g.l G.K.P.R.R.R.E.Q.Q.H.l g h.'.ZX`.SXAXAXAXD.C.B.N.A.l.A.A.F.lXx.c.9X9X0XnX0XcXvXkX",
"lXlXlXlX6X5Xc.c.c.kXlX6XxXxXxXxXAXAXFXGXGX8X).h.f f h l g.H.J.T.g g g.).;X'.`.LXlXSXmXlXC.B.v.V.A.m.l.D.F.V.b.b.6X6XbXbXcXxXxXkX",
"SXxXmXmXjX6Xv.v.6XvXxX6XxXSXbXlXAXAXrXZ.B.8XpXqXj.g g g g g g g h.].;X'.ZXZXCX6XxXvXmXlXkX6X6X9XA.l.A.D.lXlXc.5X9X0XbXcXxXNXkXkX",
"xXxXcXmXNXxXxXmXxXmXlX9XSXSXFXAXAXFXAX9XN.N.qXtXPXKXKXwX`.z.c.`.UXVX7XVXCXkXcXHXmXcXkXxXNXkXVXcXF.F.FXlXvXvXlXNXxXxXcXmXcXkXkXkX",
"7X6X6X7XlXxXxXmXlXlX9X9XSXlX9X9X9XxXmXmX9X5X9XSX9X7X0XbXbXeXGXHXjXzXxXNXnXcXCXHXCXNXkXkXkXCXkXcXD.F.SXlXC.lXlXlXxXcXmXnXxXvXkXkX",
"mXNXkXNXNXkXxXvXlX6X9X9X9XA.N.9X7X-XkXkXCXNXNXmXNXmXjX0XnXCX0X5XvXFXmXlXlXnXcX6XCXkX7XVXxXkXkXlXAXSXAXmXvXkXcXkX0XxXxXxXzXkXkXBX",
"kX7X7XxXkXkXlXxXSXbXSXAXrXM.M.9X6X'.VXVXkXcXNX6XxXxX0X6X6X7XCXcXAXAXAXSXmXvXcXkX7XkXcXkXxXxXbXSXSXlX6XnXNX6X6X`.6X6XlXxXjXkXkXkX",
"kXkXvXkXjXxXlXkX0XSXAXN.z.l.Z.9XCXwXcXwXCXmXmXnXmX9XB.c.qXwXCX0XAXAXlXAXmXxXxXxX6X6XcXbX9XlXAXAXbXxX7X0XkX7XkX6XxXbXSXlXlXjXkXjX",
"xXcXkXkXkXkXxXlXmXmX6Xl.n.l.Z.rXtX0X0XSXSXSXmXSXSX0X5X5X7XwXGX0XlXlXlXbXmXlXxXmXlX9XbXlXAXAXC.AX0X0X0XkXkXkXkX9XbXbXlX0XxXxXkXjX",
"xXxX9XxXlXjXxXxXvXbX9Xc.z.N.rXFXtXrXSXAXbXAXSXAXbXbX9X5X0XnXCXCXlXlXlXvXkX6X0XxXHXvX9XC.AXC.A.AX9X0XcXkXxXkXxXxXnXSX9XlXxXmXxXxX",
"xXxXxXxXxXxXlXxXlXxXmXxXbX9XSXrXAXAXAXlX9X9X9X9XlXmXxXlX0XnXmXcXbXxXxX9X6Xv.5XV.V.N.x.N.C.C.M.N.5X0X7XNXvXlXmXbXSX9XrXbXlXbXxXxX",
"bXlXxXlXvXvXxXlXxXvXvXxXbXbXnXbXlXzXzXBX9X6X6X6XlXxXxXkXkXzXvXkXcXkXkX6X6Xc.B.V.n.n.l.l.rXC.l.l.6X7XxXxXxXxXbXSXrX9XrXrXrXlXbXbX",
"lXbXlX6X6XbXmXjXxXkXlXxXxXxXxXxXlXlXzXzXjXkXkXkXxXkXvXzXxXlXjXvXkXkXcX0X6X5XV.9XN.l.l.N.FX9XN.B.9X6XxXxXvXlXlXAXrXZ.Z.Z.rXtX0XnX",
"vXNX9Xx.c.xXmX6XjXlXkXmXCXNXxX6XcXxXxXCXcXCXCXkXCXCXcXxXbX0XbXxXcXkXkXbXlXlXAXAXFXAXrX9X9XtX0XSX0XxX9XxXmXlXbXAXrXM.S.M.9XtXSXtX",
"AXAX9Xb.b.lXNXjXvXxXkXkXkXkXkXNXcXcX0X0XwX0XCX8XwXwX0X0XSXlXbXbXkXkX0XlXSXvXAXAXrXC.SXFX0XSX0XbXnXxXlXlXxXmXAXrXFXM.l.l.9XSXSX0X"
};
