/* XPM */
static char *_d0e0f02b8134769e4691895035ce811tDJva4Yaz2tan3OL[] = {
/* columns rows colors chars-per-pixel */
"64 64 256 2 ",
"   c #251A00",
".  c #321400",
"X  c #360503",
"o  c #392800",
"O  c #3A3800",
"+  c #2A3200",
"@  c #1D1A00",
"#  c #470305",
"$  c #560205",
"%  c #481705",
"&  c #4D0B11",
"*  c #68020A",
"=  c #761304",
"-  c #780716",
";  c #710D0E",
":  c #483B04",
">  c #573506",
",  c #552C0C",
"<  c #693408",
"1  c #773C09",
"2  c #6C3011",
"3  c #5C3F21",
"4  c #7C0523",
"5  c #384701",
"6  c #3A5706",
"7  c #2D4400",
"8  c #3A6303",
"9  c #444401",
"0  c #4A4B07",
"q  c #524B06",
"w  c #485807",
"e  c #565807",
"r  c #554815",
"t  c #575814",
"y  c #4D5918",
"u  c #615A06",
"i  c #724B07",
"p  c #476806",
"a  c #556C04",
"s  c #5A7602",
"d  c #586318",
"f  c #517315",
"g  c #676B17",
"h  c #6E7109",
"j  c #6D532C",
"k  c #586D28",
"l  c #677521",
"z  c #797928",
"x  c #706E2A",
"c  c #881707",
"v  c #850616",
"b  c #97091A",
"n  c #880F0F",
"m  c #A7091A",
"M  c #B6091D",
"N  c #A81518",
"B  c #BA171A",
"V  c #A9150F",
"C  c #8B2F10",
"Z  c #B82918",
"A  c #BA3618",
"S  c #B02F11",
"D  c #970523",
"F  c #9C1025",
"G  c #8F0B22",
"H  c #A60825",
"J  c #B50C24",
"K  c #AA1525",
"L  c #B71926",
"P  c #BB0F33",
"I  c #B82323",
"U  c #B73524",
"Y  c #C62B1E",
"T  c #C73719",
"R  c #D53C1A",
"E  c #CC0A28",
"W  c #D60C2B",
"Q  c #C91728",
"!  c #DD1A2E",
"~  c #D7182A",
"^  c #D30F34",
"/  c #E5162E",
"(  c #EB0C36",
")  c #F70E37",
"_  c #EB1431",
"`  c #E81434",
"'  c #F61339",
"]  c #E30D2F",
"[  c #CA2726",
"{  c #D42229",
"}  c #CA3123",
"|  c #DF2030",
" . c #954A0F",
".. c #BC490B",
"X. c #A64914",
"o. c #BA4816",
"O. c #AA5A1A",
"+. c #B8571A",
"@. c #977014",
"#. c #B86918",
"$. c #B47510",
"%. c #814923",
"&. c #8C6B2A",
"*. c #AE6C35",
"=. c #C5540C",
"-. c #C95B0D",
";. c #C44B14",
":. c #C84816",
">. c #D64917",
",. c #C75816",
"<. c #D85817",
"1. c #C54D09",
"2. c #E45A18",
"3. c #E2451C",
"4. c #CA660B",
"5. c #DC690D",
"6. c #C97707",
"7. c #DA7809",
"8. c #C96712",
"9. c #D96712",
"0. c #D07511",
"q. c #E16D0D",
"w. c #E2780C",
"e. c #E26712",
"r. c #F46919",
"t. c #E87517",
"y. c #FC7816",
"u. c #FC7C0D",
"i. c #CA4D22",
"p. c #F46C22",
"a. c #DF6220",
"s. c #F71541",
"d. c #E61140",
"f. c #937547",
"g. c #57801A",
"h. c #76890D",
"j. c #6A8B29",
"k. c #778837",
"l. c #669833",
"z. c #769834",
"x. c #708C2D",
"c. c #6AA737",
"v. c #72AB3A",
"b. c #77AC37",
"n. c #75B13B",
"m. c #7AB43D",
"M. c #7DBC3C",
"N. c #78B835",
"B. c #71A42C",
"V. c #579A30",
"C. c #7DC03C",
"Z. c #7A8F46",
"A. c #79AB43",
"S. c #7CB542",
"D. c #7EBA43",
"F. c #7CBD4B",
"G. c #77B646",
"H. c #6DB146",
"J. c #7EC247",
"K. c #7DC255",
"L. c #968C06",
"P. c #89950A",
"I. c #979506",
"U. c #8C9D15",
"Y. c #9D961A",
"T. c #8C8C0B",
"R. c #B68A03",
"E. c #A79806",
"W. c #BB9905",
"Q. c #A78717",
"!. c #B19113",
"~. c #93A31E",
"^. c #B8A705",
"/. c #BAB705",
"(. c #B0AF11",
"). c #8A9133",
"_. c #88A625",
"`. c #91B32B",
"'. c #87B83C",
"]. c #95B93B",
"[. c #91A833",
"{. c #A4AF32",
"}. c #AC9230",
"|. c #C68705",
" X c #D78703",
".X c #C89906",
"XX c #D79905",
"oX c #C78517",
"OX c #E78906",
"+X c #F7880B",
"@X c #E59A08",
"#X c #F48A0F",
"$X c #CAA704",
"%X c #D9A704",
"&X c #C7B701",
"*X c #D9B803",
"=X c #E7A807",
"-X c #EBB108",
";X c #8BC23D",
":X c #9AC33F",
">X c #D7C402",
",X c #909250",
"<X c #85A648",
"1X c #83B545",
"2X c #83BC45",
"3X c #8ABD46",
"4X c #84B44A",
"5X c #84BD4B",
"6X c #8BBE4B",
"7X c #8BB546",
"8X c #93BD45",
"9X c #92BD4C",
"0X c #98BA47",
"qX c #98A857",
"wX c #85BE50",
"eX c #8CBE52",
"rX c #89B857",
"tX c #92BD54",
"yX c #97B85A",
"uX c #93AB4F",
"iX c #ABAA47",
"pX c #A4B658",
"aX c #9CB964",
"sX c #AABD6C",
"dX c #B3B36D",
"fX c #AD9359",
"gX c #C0AF79",
"hX c #85C344",
"jX c #8AC246",
"kX c #86C24B",
"lX c #89C34A",
"zX c #8BC24A",
"xX c #8AC149",
"cX c #8CC34B",
"vX c #8DC249",
"bX c #89C44A",
"nX c #89C24D",
"mX c #8DC14D",
"MX c #8AC54D",
"NX c #8AC24B",
"BX c #8BCA4C",
"VX c #86C948",
"CX c #92C34C",
"ZX c #95C446",
"AX c #85C251",
"SX c #8BC352",
"DX c #8ECA52",
"FX c #8AC65A",
"GX c #93C453",
"HX c #92CA52",
"JX c #98C359",
"KX c #8ED14D",
"LX c #A1C65A",
"PX c #9BC863",
"IX c #8DC562",
"UX c #A4C36A",
/* pixels */
"kXkXnX2XS.S.6XDX5X6XvXvXlXlXvXvXvXvXjXvXjXjXhXhXhXbXbXjXlXlXvXlXMXkX5XMXxXhXBXBXkXkXK.VXkXbXjX;X3XjXvX3XxXxXkXlXlXlXvXlXvXvXhXvX",
"MXnXkXS.m.S.4XmX6XmX6XlXvXvXvXvXvX3X8XvXjXjXhXjXcXbXhXhXlXlXlXvXSXMXlXMXhXxXlXMXkXkXVXkXkXbXjXjXvXvXjXvXvXvXlXlXkXlXlXvXvXvXvXvX",
"MXMX5X5X1X1X5XSXSXnX6X6XvXMXjXcX3XCXvXvXCXjXcXxXhXMXcXcXmXvXlXmX5XkXMXMXvX3X6XlXmXSXnXnXMXvXvXvXvXjXjXcXcXcXlXkX3XkXxXlXvXjXvXvX",
"lXMXnXnXMXmXmXmXmXnX3XkXvXcXjXjX6XvXvXvXjXcXvXlXcXcXcXcXvXmXvXmX1XJ.lXvXcXvX3XvX6X6XSXeXnXmX6XvXxXMXcXCXMXMXlXlXlXkXlX3XlXxXCXjX",
"3XlXvXvXMXMXnX5XkXkXlXMXMXxXhXcXCXvXCXvXvXxX3X6XvXmXvXmXmXmX9XmXD.m.S.3XcXvXvX8X6X9X6X6X6XCX3X3XvXxX6XlXMXMXSXkXkXMXnXlXlXxXvXcX",
"vXlXlX6XkXlXlXlXkX3XhXMXMXMXxXMXjXcXvXlXlXlXkX6XvXvXnXmXmX6XmXmXS.n.m.2XvXvXvX3X6X9X6XtX6X6X6XlXvXxXkXlXlXlXkXkXkXnXMXlXMXMXvXlX",
"MXvXvXlXlXxXlXlXkXS.M.D.kXMXxXhXhXMXhXxXlXxXlXhXMXlXlXvXmXvXmXvXD.D.M.3XhXjXjX8X9X9X6X9X9XvXkXkXxXxXxXlXlXkX2XD.kXkXkXnXMXcXlXlX",
"3XlXvXMXlXlXkXkX3Xm.v.m.2XlXhXxXjXhXMXhXMXxXkXlXMXlXnXlXMXlXlXlXkXkXxXhXBXjXjXvX3X6XCX6XlXxXVXVXMXxXhXlXnXkXD.S.D.2XkXlXMXlXlXvX",
"cXMXcXvXMXMXbXbXBXv.n.2Xm.kXHX2XBXBX;X'.VXMXlXnXD.kXnX5XkXkX3XlXkXkXMXBXVXVXhXBXxXCXxXcXkXMXJ.VXMXlXlXlXkXDXkXb.S.D.3XkXMXMXlX3X",
"vXvXvXlXkXkXbXbXhXDX5X1XDXSX5XCX2XhXBXhXMXBXSX5X2XkX1XA.S.D.5XkX5XGXkXkXM.KXhXM.M.vXcXMXVXBXJ.VXlX3XkXlXkXkX5Xm.n.S.D.5XMXMXvXlX",
"vXcXlXvXhXMXbXbXMX2XMXHX5XeXGX6XZX2XZXHX2X7XHX6XeXGXeXb.b.m.4XGXGX7XSXkXDXJ.D.BXBXcXhXD.J.J.J.VXMXxXlXlXkXMXnXD.D.D.2XkXlXvXMXlX",
"vXvXvXvXlXlXbXMX2XkX5X5XtX6XeXGX9XCX8X8XLXJX0XJXPXtX<X'.rXGXGXGXyXyXPX4XkXMXkXkXkXlXMX1XDXkXVXJ.xXxXMXMXlXMXnXkXkXlXMXMXMXlXlXxX",
"nXvXnXlXlXlXlXlX2X5XSXeXeXGXtX7Xl B.[.z.j.z.<X).k.j.l g.x.x.z.<XqX).).wXGXSXS.SX6X5XeXS.5X5XBXDXhXhXvXvX3XkXMXlXxXlXlXvXlXlXvXvX",
"vXmXmXvXlXlXlXlX5Xm.tXJXeXyX<Xp d h.z w 0 l z w + 7 5 5 7 7 f qXz q d w A.tXGXF.JXeX4X2XGXGX4X1XlX3XlXvXlXvXMXMXlXlXxXlXxX3XhX3X",
"mXmXlXvXlXlXvXlXm.5X2X6XJXB.p p ).).e 9 z z 0 O 9 5 5 e d g ,XdXz : 0 6 <XaXPXeX4Xl.p p g.l.B.b.vX3XvXCXlXvXMXnXMXMXjXcXvXhX3X3X",
"SX5XvXlXlXlXnXlXm.2X4XGX<X6 6 x.).g u z z e O 9 O 9 0 t t w e k 3 r : 0 k aXl.f 8 8 p g.j.c.c.m.vXhXxXcXvXlXmXhXlXxXvXvXvXvXjXvX",
"SXtXjXjXjXvXSXAXJ.C.;XGXZ.6 g ).h q z z u : 9 9 y 0 k ,X,Xr + y r > O t ,XZ.6 f l.A.4Xm.1X1XD.J.BXJ.lXvXlXMX3XMXkXxXvXZXjXhXjXMX",
"eXSXjX;X;XCXFXAXN.KXN.SXk 5 l ).u u ).d q q : r r Z.dX,Xf.> : r j 3 , , j j r x dXsXyXuX9X5XhXhXVX;XcXxXlXSXkXkXMXxXjXjXjXcXxXMX",
"wX5XjX].jXcXSXkXVXKXhXyXk.y Z.&.e x.g q 9 9 t j j j 3 . . X . & # $ ; ; = n = = 2 &.fXdXsXyXrXSXbX;XcXcXlXHXMXkXMXxXvXvXhXxXMXMX",
"5XlXjX;X;XhXAXAXBXC.MXrXZ.k z d g x.u 0 0 r j 3 , % # X X X # $ * n K L J J m m n = C %.f.qXaXyXSXxXvXcXHXDXDX3XhX3XhXvXvXxXMXhX",
"lXjX;X;X;XjXnXkXD.hX5XrXk k g e x x t : r j 3 # # # $ # & & * - K P P ^ ^ ^ W ^ ^ B m c = < j ,XyXZX3XvXHXMXxX'.'.3XxX6XxXvXMXlX",
"xXjXjX;X;XjX5XwXm.nX1XA.k k t t z t O : 3 , X # $ $ $ & & & 4 D P d.d.d.s.) ( ( ` ] ~ Q V c = : iXJX6XxXHX3Xb.b.D.2X3XlXvXlXlXxX",
"lXvXjX;XjXxXAXwXA.S.F.H.k.y y d g 0 r j 2 $ $ * $ $ * - 4 - b P ^ ^ ` s.s.) ' ' ' _ / ! [ [ N = ).pX9X5XDXD.b.b.2X3XMXlXlXvXMXkX",
"6XlXxXhXjXMXSXwXF.rXrXaXZ.6 w l y 0 fXf.$ - - * * * - v v D M M E ^ ] s.) ' s._ ' _ / / ~ Q Z c &.yXGX1XBX2Xb.'.2XlXnX5X6XlXMXMX",
"SX5XSXmXkXMXkXSXSXDXmXtXyXy w p l qXgXj ; v v - ; - v b b M E E E ^ ] ( ) ) ) ) _ _ / / { [ L c i pXtX5XMXcX3XCX6XlXkX5XmXCXlXkX",
"5XeXGX5XkXMXSXwX5X1X3XGXrX6 p z.F.aXfXC N b G v v v b m J E W W E ^ ! ] _ _ _ / / / / / ~ [ K C > qXyXwXMXxX3X8XcXlXAXAXSXmXMXhX",
"FXeXrXS.n.3XSXDXkXCXCXCXrXj.[.tXFXaX*.N N N F G b b H H P Q ^ ! W ~ ~ ! ! ! ! / ! / / / [ I F c % ).yXeXSXhX9X8XcXlXkXkX6X3XhXxX",
"eXSXFX4X2XMXMXMX5XCXvX3XtX6XGX3X3XiX*.U I K F F D H H H L Q ! ~ ~ ~ ~ ~ { { { [ { { { { [ I S 2 % x PXFXDXMXCXZXvXlXkXkX2X2X2X;X",
"eX6XeXS.S.lXkXkXnXvXvXjXHX6X3X3X0XiX+.Z [ L K F H H m m L [ { { [ { { Y Y Y [ Y Y Y Y [ I Z S C = q UXrXDXMX8X0XMXkXAXAX3X3XhXjX",
"SX6X4Xv.B.M.hXMXHXxXxXZXHX6XkXCXuX}.+.A U I N m M J M V I } } Y T T T Y T T A T A A T A A S S C < o yXFXFXnX7X8XmXkXVXkXvXvXjXjX",
"vXvXmX5XhXjXhXBXlX3XhXhXnXDXSX9X[.&.+.} U K N m M B B Z } R R R R R R :.T ;.A ..A ..T T o.o.X. .2 . Z.IXAXkX8X9XCXbXkXkXCXjX;X;X",
"vX3XMXlXhXBXjXBXmX5XjXcX5X5XkX9X{.#.#.i.i.I N V M B Y T R 3.3.>.>.>.>.:.;.;.;...1.;.;.:.o.X. .C <   k IX2XlX8X9XnXkXkXbXvXcXhX;X",
"vXhXmXlXbXSXSXAXAXkXkXkXkXxXZX0X}.#.+.i.A S V V Z A :.>.3.2.3.2.<.<.>.<.>.:.:.,.;.;.:.:.o.+.X.1 ,   d PXxX2XvXHX5XeX5XnXlXvXhX;X",
"jXcXlXhXkXkXkX5XkXSXkXkXhXxXxX0X}.#.,.,.T S S A o.i.i.3.2.2.e.e.5.<.2.<.<.<.i.,.;.;.1.;.o.o. .C ,   z PXMXhX3X5XeXSXSXlX3XxXjXvX",
"cXcXlXkXkXMX5XF.5X5XkXkXlXhXMX8X{.Q.$.-...S S -.a.a.p.r.p.r.e.e.5.e.<.<.<.<.,.,.=.=.1...o.X.X.1 : @ qXrXHXbX2X3XeXeXSX5X2X3XjXjX",
"cXjXkXbXkXSXkX5XS.F.D.3X6XlXhX].].Y.$.$.-.1.1.9.a.p.p.y.r.r.q.q.e.5.e.<.<.<.,.-.=.=.1...o.X. .i % + UXrXhXhX2X2X5XeXeX5X2X;X3XZX",
"BXxXxXxXMXMXkX1Xv.n.D.5XxXMXxXZXZX~.Q.$.8.8.4.5.OXt.y.y.y.y.t.q.q.q.e.9.<.-.-.-.=.=.=.=...O. .< + d UXCX'.N.m.n.4XeXmXlXhXhXvXvX",
"ZXMXxXhXlXnX5XF.n.S.2XkXxXMXhXjXZX`.}.!.oX0.6.6.0.OX+Xy.u.u.t.w.w.q.e.9.5.9.9.-.-.=.=.+.+.O. .<   k.yXSXC.N.m.b.4X6XnXlXhXvXvX8X",
"hXcXlXxXkXkXkX5XD.5X5XlXvXlXcXvX3X].~.Q.!.oX6. X X X+Xu.+X+Xt.+Xw.w.q.9.9.9.9.8.8.-.,.,.#.O. .> + <XeXnXVXC.;Xm.5XeXnXkXhXcXCX8X",
"jXxXvXxXMXMXMXnXMXMXcXlXxXxXxXlX1X'.[.).Q.!.W..X.XXXOXOX+X#X#XOXw.7.w.q.q.9.9.8.8.4.8.#.#.O.i : O aXSXkXVXVXhXkX5XSXlXMXhXhX9X6X",
"cXvXvXlXlXlXmXMXlXlXlXlXvXlXvXMX2X4X[._.Y.!.!..X$XXX@X=X=X#X@X#X@XOX7.0.7.5.0.0.4.4.8.#.O.@.i o d JXlXVX;XVXHX6XSXeXbXbXbXhXvX9X",
"vXvXlX3XlXlXMXMXlXMXcXMXlXvXvXnXFXeX7X`.U.T.E.^..X%X%X%X-X-X-X=X@X@XOX X X7.6.6.6.$.6.$.$.@.u   x.JXhXhX;XVXCX6XtXSXnXVXhXMXmXCX",
"lXvXxXxXxXlXMXMXxXhXvXlXvXlXvXvXSXkXlX]._.P.I.W.W..X$X*X*X*X*X-X=X=X@XXXXX X|.6.$.6.$.R.Q.h e h 6XGXJ.hXC.VXvXGX6XeXkXhXhXxXvX9X",
"xX3XxXxXxXxXxXxXMXxXlXMXlXvXvXnXkXJ.hXZX`.P.L.E.^.^.^./.>X>X>X*X*X*X=X%XXX.X.XW.R.R.R.!.@.h x.LXJX5X;XVXVXVXvXmXtXnXlXhXhXlXvXGX",
"3XxXvXlXxXvXxXhXhXcXcXvXvXlXvXlXbXhXVX;X;X`.U.P.I.(.(.^./.&X>X>X&X&X$X$X$X.X.XW.W.R.!.L.T.).0XHXSX1XVXVXhXjXvXtXeXkXbXhXVXMXCXCX",
"lXvXxXvXvXlXxXxXcXhXcXcXvXvXvXvXBXBXhX'.:X:X`.~.P.U.~././././.>X&X&X&X&X$X$X^.W.E.E.E.I.{.ZXMXF.eX2XBXhXhXhXmXtXeXSXhXhXhXhXmX6X",
"vXvXcXCXjXhXhXxXhXcXjXcXvXmXvXlXnXlXxX3XvXCXBX:X`.h.h.I.(.&X&X&X&X/././.^.^.E.E.E.L.I.{.[.8XFXK.AX5XbXhXMX'.tXtXtX6XMXhXhXhX6X9X",
"lXlXMXcXcXjXxXxXMXjXcXhXvXlXvXlXlXmXCXCXxXxXMXhXKX:Xh.h h E.(.>X(.(.(.E.E.I.T.T.h.Y.{.].LX9XF.FXF.J.D.hXHX2X6X6XeX6XlXhXhXlXCX6X",
"nXkXkXnXhX3X3XhXhXlXxXhXvXhX'.3XCXlX6XMXHXnXhXlX3XCXZX[.h.a s U.~.P.P.h.h a a s ].8X9XCXkXF.F.J.K.H.H.H.G.AXD.6X5X5XmXmXlXlXvXvX",
"MXkXMXMXMXkXkXkX2X3X3XhXjXvXxXMXvX6XvXHXHXMXkXMXmX6X6XHXJX7Xj.g.s s a a p a B.9X3XvXmXnXkXF.G.G.H.H.H.G.J.kXn.S.3X4X5XmXvXvXvXlX",
"kXkXkXkXhX2Xm.m.M.hX5XhXlXlXvXvX6XlXmXvXlX2X3XkXMXmX3X3X9X9X0X0X_.B._.].ZXZX8X3X8X6XmXkXD.D.D.G.c.V.c.G.K.J.c.b.3X5XlXmXcXcXxXjX",
"SXnXMXMXxX2Xm.M.2XlXlX3XlXMXmXnXmXvXlX2Xm.m.M.5X3XvXSXCXCXCXCX9X0XZXZX8X8XZX9X3X6X9XnXnX6XkX5X5XG.H.G.J.kXhXM.2X5XkXlXvXcXjXjXjX",
"lXlXxXMXcXMXxXMXlXMXnXkXSXSXSXMXnXlX6X2Xm.m.2XhXHXMXlX6XvX3X3X6X].ZXZXcX3XvXCXCXCXmXcXmXvXmXmXmXK.K.FXhXkXkXkXMXlXmXcXMXcXjXjXjX",
"3X3X3XxXMXhXMXcXlX5X5X5XSX5X5XkX6XvXvX6X3X1X2XlX2X3XmXMXCX6XvXCXHXcXhX2XlXHXHXlXvXmXMXvXvXvXvXvX5XFXSXkX5XbXlXhXlXvXMXmXMXjXjXjX",
"cXvXvXjXjXcXMXMXkX5X5X5XwXS.G.5X6X3XlXMXMXMXkXkXDXBX2X2X6XmXvX6X3XhXMXMXMXMXnXkXnXnXvXvXvXvXlXlXAXDXSXMXMXjXcXxX3XlXvXvXhXjXBXjX",
"xXhXxXvXjXjXhXMXMXnXAXAX4XH.A.F.nX6X6X3XlXMXMXkX2XkXMXkX2XlXMXvXBXMXkXhXkXkXnXnXkX6XkXlXlXvXxXMXMX5X1XcXBX2X2X'.3X3XlXlXhXjXjXjX",
"hXjXjXxXxXhXMXxX6XSXSXS.c.v.G.5XmX6XlXlXvXMXMXMXMX2Xm.m.D.MXMX3XkXkX3XkXMXkXnXAXkXD.kXbXJ.bXhXbXnXvX3XxX3XhX2X3X5XlXnXlXlXxXhXhX",
"vXvXxXxXhXxXxXlXMXMX2Xc.l.c.F.AXnXvXvXnXmXmXMXMXMX3X2Xm.2XMXMXlXkXkXlXlXMXkXMXSXkXJ.AXMXkXhXJ.VXlX3XxXvXjXxXxX3XmXlXnX5XkXlXvXhX",
"vXvXhX6XvXxX5XlXMXnX5Xm.v.S.wXwXmXlXvXlXvXkXlXkXMXkX5X2X2XMXMXMXlXxXlXlXkX5XkXkXDXkXJ.J.J.J.G.K.3X3XvXvXvXjXlXlXnXnX5XkXnXlXvXxX",
"lXxXxXxXxXxXlXlXhXnXMXlXwXkXAXeX5XnXvXlX3X3X3X3XxXMXlXhXlXMXMXmXlX3X3XlX2XS.D.D.F.G.v.n.J.F.c.N.2X3XcXjXcXhXlXSXSX5XwXSXnXlXvXxX",
"lXkXlXlXbXbXkXhXMXlXMXkXlXnXmXnXlXlXlX6X3X2X2X3XxXlXvXvXlXvXmXlXcXjXhXxX1XS.S.D.c.V.B.v.K.F.c.c.1X3XlXlXlXlXlXkXrX4XF.wX5XSXnXlX",
"lXnXkX2X3XMXMXhXlXlXhXbXlXlX6XlXlXkXvXlX5XxX6XlX3XlXvXmXvXlXlXvXjXhXjXhXhX1XS.kXA.v.v.n.kXkXn.S.5X3X3XxXMXkXnXSXwXF.G.F.wXwX5XmX",
"kXkX5Xn.m.kXMX3XxXxXjXZXBXcXvX3XMXlXlXkXvXcXvX6XmXvX6XvXvX6XvXhXjXjXhXhXhXkXhXAXFX5XrX5XwXAXrXFX5X6XlXkXlXlXnXAXAXG.H.A.5XeXSX6X",
"AXDX2Xv.b.kXBXhXhXxXjXjXjXjXjXcXvXlXkXlXvXlXlX6XmXmXvX6XmXvXvXMXVX;XhXhXMXMXkXAXwX2XFXFXSXrXeXSXSXlX3XlXnXMXAXwXSXH.l.c.4XSXGXeX"
};
