/* XPM */
static char *_d2d2583189740cec7dcd854cbae594cD9Rcj1zXJTZl3jiU[] = {
/* columns rows colors chars-per-pixel */
"64 64 256 2 ",
"   c #161E00",
".  c #231C00",
"X  c #0E2B00",
"o  c #162A00",
"O  c #0A3802",
"+  c #143401",
"@  c #1B3501",
"#  c #1B3B01",
"$  c #153A08",
"%  c #123918",
"&  c #282600",
"*  c #322C00",
"=  c #233D00",
"-  c #273602",
";  c #343300",
":  c #3B3300",
">  c #373B00",
",  c #0F3D20",
"<  c #433D00",
"1  c #493C00",
"2  c #0C4501",
"3  c #0D4B02",
"4  c #064707",
"5  c #144402",
"6  c #144B01",
"7  c #1A4C02",
"8  c #194709",
"9  c #0D570A",
"0  c #145303",
"q  c #1C5B03",
"w  c #14520B",
"e  c #1C550C",
"r  c #135B0D",
"t  c #1B5C0D",
"y  c #1A5304",
"u  c #194917",
"i  c #0C5614",
"p  c #165413",
"a  c #1C5513",
"s  c #145C13",
"d  c #1B5B13",
"f  c #1C5C1B",
"g  c #15571A",
"h  c #0B4C10",
"j  c #254402",
"k  c #2B4B01",
"l  c #274806",
"z  c #374901",
"x  c #2C5301",
"c  c #2A5B02",
"v  c #215B0C",
"b  c #245705",
"n  c #365603",
"m  c #254915",
"M  c #235C14",
"N  c #245718",
"B  c #335412",
"V  c #1B620E",
"C  c #17620D",
"Z  c #156214",
"A  c #1B6314",
"S  c #1A6A16",
"D  c #15641A",
"F  c #1C641B",
"G  c #1B6A1B",
"H  c #166918",
"J  c #1E701C",
"K  c #0F6313",
"L  c #256409",
"P  c #3A6501",
"I  c #366506",
"U  c #246214",
"Y  c #2A6314",
"T  c #22631A",
"R  c #226A1C",
"E  c #286917",
"W  c #376917",
"Q  c #29761A",
"!  c #367516",
"~  c #3E790F",
"^  c #1B4A24",
"/  c #1B5623",
"(  c #0C4D21",
")  c #264C25",
"_  c #275727",
"`  c #335827",
"'  c #1D6B22",
"]  c #1C6322",
"[  c #1E742A",
"{  c #236B22",
"}  c #286725",
"|  c #346827",
" . c #247423",
".. c #287727",
"X. c #367929",
"o. c #346C35",
"O. c #454400",
"+. c #4D4B01",
"@. c #474802",
"#. c #534D00",
"$. c #554700",
"%. c #4C5401",
"&. c #4D5B00",
"*. c #445803",
"=. c #545500",
"-. c #5C5401",
";. c #535C01",
":. c #5C5A03",
">. c #5A5C0A",
",. c #58590C",
"<. c #595A15",
"1. c #495714",
"2. c #655C01",
"3. c #6A5E01",
"4. c #635B08",
"5. c #6C5E09",
"6. c #4B6201",
"7. c #476804",
"8. c #556302",
"9. c #5B6102",
"0. c #586808",
"q. c #4B7306",
"w. c #5A7707",
"e. c #496A16",
"r. c #5A6B12",
"t. c #4A7414",
"y. c #577717",
"u. c #646301",
"i. c #6B6402",
"p. c #666906",
"a. c #766A06",
"s. c #687604",
"d. c #777807",
"f. c #696919",
"g. c #687715",
"h. c #777817",
"j. c #756B14",
"k. c #565D25",
"l. c #4A732B",
"z. c #697623",
"x. c #777524",
"c. c #6D6B24",
"v. c #877707",
"b. c #957904",
"n. c #857917",
"m. c #88720E",
"M. c #A37C02",
"N. c #38822A",
"B. c #5C8713",
"V. c #698306",
"C. c #7C8409",
"Z. c #678715",
"A. c #788415",
"S. c #709419",
"D. c #599538",
"F. c #4E8832",
"G. c #798425",
"H. c #6A9528",
"J. c #779A26",
"K. c #709031",
"L. c #6AA738",
"P. c #75AA38",
"I. c #7BB43C",
"U. c #7BB73D",
"Y. c #76A228",
"T. c #5BB039",
"R. c #7CC93F",
"E. c #4E9046",
"W. c #659E44",
"Q. c #6BA548",
"!. c #75AE43",
"~. c #6DB344",
"^. c #7AB443",
"/. c #7DBB46",
"(. c #79B848",
"). c #74A854",
"_. c #7BB959",
"`. c #7EB961",
"'. c #51A74A",
"]. c #7FC546",
"[. c #7EC253",
"{. c #878709",
"}. c #988608",
"|. c #8A920A",
" X c #9B9809",
".X c #898718",
"XX c #968816",
"oX c #899418",
"OX c #999617",
"+X c #A68805",
"@X c #B48B04",
"#X c #A99909",
"$X c #BC9B01",
"%X c #B69705",
"&X c #A78A14",
"*X c #A79815",
"=X c #B69B15",
"-X c #B38C13",
";X c #9CA51B",
":X c #B8A406",
">X c #A7A616",
",X c #B8A615",
"<X c #B3A811",
"1X c #898726",
"2X c #948926",
"3X c #889C27",
"4X c #989825",
"5X c #858B36",
"6X c #8E9635",
"7X c #A79427",
"8X c #97A829",
"9X c #86B93E",
"0X c #90AE39",
"qX c #A8AA28",
"wX c #B5A929",
"eX c #AFAD2B",
"rX c #C49C01",
"tX c #C19604",
"yX c #C09812",
"uX c #C6A607",
"iX c #C7AA14",
"pX c #C9B615",
"aX c #D5B616",
"sX c #D1AF0A",
"dX c #C8B728",
"fX c #86C33E",
"gX c #D2C220",
"hX c #899645",
"jX c #85BD45",
"kX c #8BBE45",
"lX c #84BD4B",
"zX c #8ABE4A",
"xX c #85B547",
"cX c #94BD4B",
"vX c #95BC45",
"bX c #85BD51",
"nX c #8BBD53",
"mX c #84B758",
"MX c #90B14D",
"NX c #83BB63",
"BX c #A89F42",
"VX c #85C245",
"CX c #8BC245",
"ZX c #86C24B",
"AX c #8BC24B",
"SX c #8AC94B",
"DX c #91C34C",
"FX c #94C54A",
"GX c #85C252",
"HX c #8BC352",
"JX c #8DC45B",
"KX c #8AC957",
"LX c #93C453",
"PX c #93C35C",
"IX c #95C855",
"UX c #95C863",
/* pixels */
"GXUX_.).T.T.'.'.E.E.X.Q Q Q L v V S S S S A H S Z 9 s g i 9 i h 9 9 9 s s Z D s r r V S U R T d f f s r p s e N v c n 7.P.IXAXHX",
"JX^.t.P I L L L M a L L E E Y Y A R S A A A d A A f A D F ] } F A A r s F D D Z  .G S U t t t e d M L v v v n B c *.0.0.P.CXzXLX",
"cXMX9.=.:.8.&.z z n n c b C M M U U t V t d r q t d d p w d f d U d r A { .. .[ Z D S S A C V v L I I P q.s.h.h.h.n..X{.0XFXAXLX",
"cXcXh.m.b.}.n.d.h.h.h.d.w.y.y.y.y.t.t.t.7.I I W n c b b 6 6 6 3 0 0 0 0 A U s r V V b b c I P q.w.V.A.A..X.X}.b.XX{.XXd.0XkXcXzX",
"zXvXh.a.b.M.b.b.b.}.-X=X*X*XOX*X*X X*XOX|.{.oXoXoXS.Z.Z.B.q.q.q.~ ! ! ! W ! b c I P &.0.s..XXX4XOX*X&Xb.}.b.b.b. X}.XXh.0XkXCXFX",
"VXkXh.a.&X-Xb.v.b.M.@XtX$X%X%X%XuXrXiXuX$X,X,XpXdXeXqXeXqX;X8X;XS.Y.Y.Z.Z.Z.w.s..X3XoXXX>X*X&X+X+X+Xb.m.b.}.&XOX4XoXA.s.vXSXCXCX",
"CXcXg.3.m.7XXXv.&X&X@XtXtXtXuXrXtXtXrXrX%XtXiXiXaXuXiXuXpXuXpX<X<X<X,X<X<XiX*X#X=X=X}.+X-X*X+X+XM.M.m.n.n.n.h.A.w.7.n n ^.SXCXCX",
"AXxX%.- @.9.;.8.x.n.}.#X=X=X:X,XiX=XiX%X@X%XiXuXuX:X$XuX:XuXsXsXuX:X$X$XuXaXtX%XtX-XM.b.&X&X}.}.b.n.j.5.:.%.z c c c x c mXKX9XfX",
"ZXPXB + 5 6 3 2 j l z *.&.r.g.A..Xv.{.v.oXXX*X*X#X#X:X%X:XuXuX:X:X#X$X%XuXiX@X@XtX+Xb.M.&Xm.n.i.r.z B $ j # 5 8 v Y N | mXKX].ZX",
"HXUX| 2 s G D ] / u 8 O 8 5 O l l = k n n &.0.u.9.s.d.OX>X>X#X*X X X>X#X,XpX%X-X=Xb.v.j.2.@.@.z 5 O 4 O 8 m u _ M Y N E `.KXVXAX",
"kXLX! 5 9 S H { _ $ l m m ^ $ $ % O $ $ + @ l - @ k z *.0.r.f.w.Z.V.C.|.8XqX{.d.h.#.> - o $ $ % u u ^ u 8 ` / h e Y a } [.KXZXAX",
"FXIX! 2 9 C H { | 8 m | o.o._ ) ^ ^ ^ ^ u ^ , % $ $ $ + # j l x P I P P q.w.n k l + + % , , , ) _ ` o._ + 5 _ g e U w | _.KXVXZX",
"nXNXl.u h F { .._ m j + l.` ` ` ) ) ^ ) ` ` ) ) % @ o o @ @ @ l M t E v q q 3 w } u / ^ _ ^ , m - - o = e.n a p t L 3 ..[.[.SXVX",
"zXJXF.$ 8 g ' } | N # m > % @   X + $ @ % - ) ) ` m m % $ m m m } { .... .{ s { ] _ _ _ ` $ o o & <.1.z 5Xn 8 a t L 9 N.[.ZXCXCX",
"SXJXE.- 8 g G ' { 7 = hX1.f.c.O.O.> +.; *   - X - m m X O u ) / f s { J  . .K K ] | m @ o   < j.3.6Xf.z BX0.m N t Y 3 F.ZXCXCXvX",
"R.AXE.@ 3 g G H ..7 @ hX9.a.h.-.j.3.2Xn.4.,.c.<.o - = @ # $ u / ] F  .S S J 9 Z ] N j z +.#.j.n.a..Xi.:.eX;.b a v M w F.HXfXCXvX",
"AXKXD.5 p g D ' ] e = hXa.2.2X#.a.-.v.m.i.3.4Xn.1 & < c.c.& $ / D C Q H H { Z s D E 1.=.4.-.5.n.3.4Xa.5.2Xf.v d t v w F.KXSXAXCX",
"LXPXD.3 p g ] { } b - 5Xn.3..X-.j.u.v.v.a.2.{.1X<.* -.n.n.O.2 _ T H  .H H  .f i g E *.=.-.-.4.n.a.v.a.3.3.0.Y r t t 3 F.JXHXAXCX",
"zXPXD.3 p g F { ..v = G.XX3..X:.h.:.v.XXm.u..Xn.f.& 3.j.n.+.O d F S J H S  .d 9 D E 6.,.4.4.4.h.2.3.3.a.=.y.t s s a w D.LXCXCXfX",
"zXLXQ.0 w s A G } e = h.7Xi.b.:..X: 3..X#.4.n.2.h.* i.n.2X=.+ a A T J Z A ..Z s g Y &.:.4.4.O.-.< -.3.3.:.Z.y s g a w D.KXFXCXfX",
"kXKXQ.0 w s V E R b l h.wXa.m.2.6X. $.j.. 4.c.: h.> j.5.j.<.# f T G ' K J ..S r D Y 8.:.5.>.< +.+.=.p.3.>.Z.V s g p h W.HXCXfXfX",
"CXSXQ.0 3 r C Q F v j h.wXb.XX4.6X* -.f.& k.<.* h.: h.: 1 f.+ a N ] J K J ..V C F Y 0.9.<.5.+.#.=.h.p.-.p.z.0 D s p w W.nXFXfXFX",
"CXDX).0 3 C V Q F v 5 h.wX+Xb.-.1X> ,.c.* k.<.* h.< x.* : x.8 a f ] ' H Q ..V S A v g.u.,.4.#.=.%.6Xa.$.g.z.3 H d e y W.nXSXCXCX",
"CXAX).e 3 V L Q R M # s.eX#X&X2.1X> :.c.: 1.j.< x.+.c.: < c.l 8 f D ' H ....V E t L Z.a.:.>.=.;.9.qXi.-.9.y.V G t q 7 Q.nXDXCXFX",
"CXzX`.w h e L Q { d + g. X=X7X-..X@.0.h.- ,..XoXn.> c.* : 5Xk 8 g / G H  ...S R A c g.A.>.,.<.:.:.eXm.-.i.y.L S V 0 6 Q.nXHXAXCX",
"FXAXNXw 2 w A ..{ M + g.{.}.7X$.A.z w.G.- ,.oXOXu.: f.: < 5Xk 6 a / D D  . .V V A I g.n.:.:.9.:.2.OXv.2.d.7.E ..t 6 7 ).PXnXZXSX",
"CXHXNXN 2 w U ..G R 5 g.v.}.2X$.oX*.p.G.- =.OXqX2.* c.* < 5Xk 8 p f D H  . .C A A Y g..X>.,.r.;.:.d.v.d.oX7.L  .e 8 7 ).HXkXVXVX",
"DXnXNXv 2 w V  .D R l z.n.m.7X1 1X%.8.A.- <.;X2Xn.: f.* < 5Xl m u d s D  . .C V U W r.n.-.>.>.;.i.i.a.OX8X7.E ..p 2 w ).nXjXR.SX",
"AXnXmXY 2 w A R D { 7 g..Xa.7X1 1X%.&.G.> r.5X4.n.1 c.: O.5Xl = a f Z D N.N.K K R W 9.j.=.>.8.&.f.p.u.4X8XI Q  .g O u ).nXkXCXVX",
"AXAXmXY 2 p Z { G F 6 y.2Xi.7X$.2X=.*.G.; k.n.< 2X+.x.; < 5Xl $ m f D D [ J Z r R | ;.a.=.>.0.6.8.p.u.3XJ.I Q [ f 5 8 mXLXkXCXSX",
"DXHXmX! 2 e s { H r 6 r.4X2.7X$.1X%.%.G.- k.n.1 n.$.h.O.@.1Xj 8 a N D D  ...r s F e.&.a.=.9.0.8.8.0.9.g.y.I N.[ Z 2 y mXLXvXFXfX",
"AXHXJX! 2 w d { Z r 7 y.MX$.BX$.6X;.&.6Xz 1.n.< .XO.n.i.i.1X= m N d D Z  . .s r A l.;.j.-.r.0.0.q.n n l c Q [ ..r 2 j mXIXCXCXfX",
"GXGX_.! 4 0 d G r } 8 B 1.@.K.@.hX;.=.MXz %.G.- 1X< v.XX2Xn.- = m d d d } R s w t e.1.f.>.0.g.r.7 y c c L Q N. .9 4 ! mXcXvXFXfX",
"GXGXKXF.3 0 e T } p } 5 N B l + j = 6.5X@.1.K.- z.@.2.4X1Xf.= j e M a a } } Z 9 U W n z.r.@.z x 0 S X.Q Q ! ! ! t.t.6XcXvXxXCXfX",
"AXAXnXt.O 3 p N g h { G X.F.L V O 6 b x l B k.= z.@.%.4X3X&.7 N 8 a 8 a ] [ s i A | W 1.= = b } ..[ ....Q P B.oX;X{.|.0XFXjXVXSX",
"DXDXLXH.x k k 8 y t t U ..Q N.N.Q N.X.M ` m + # > - z h.Y.l 6 w p i h h ] ' K 9 s | b # O M o.X.[ J R V q.V. XpX X|.OXvXcXCXSXfX",
"zXFXFX3Xs.d.d.s.9.6.P x b q C Q Q Q N.N.} } } o.5 l x 8 b $ y 3 i i h h D G Z r C v q v Y X...F F t P V.>X#X%X#X|.d.J.cXkXkXFX9X",
"DXkXvX3X{.OXwX=X*XXXOXg.q.P b b C C E Q E ..D ' ..o.Y + O 8 w s ( ( i 4 d A C C t U E | Y d t L I g.;X,XpX%X}. Xd.8.H.nXzXjXFXCX",
"SXDXvX8X{.}.-X@XM.-X,X=XXX{.C.s.w.q.P b U } A Q Z A { } a } p p D ] w 3 e V q A A f M w 6 b W q.|.,XsX$X:X:XC.w.q.H.nXPXzXAXSXfX",
"ZXDXFX3Xd.b.-X-XM.@X=X-Xb.#X*X&XOXC.h.g.t.n c L L L U N f ] g h / / w 2 e e d A F w 7 7 x 7.A.wXiXuXuX<X>Xs.q.Z.xXPXnXlXHXAXR.SX",
"AXCXkXJ.7.@.9.i.d.n.&X}.M.+X@X+X+X}.}.2X2XA.d.w.8.6.n c Y } d w p u 2 4 i g i } a 7 z p.d.>XdXuXuXsX<X|.w.y.P.cXvXcXcXcXzXHXZXZX",
"AXVXLXDXP.H.Z.7.*.;.i.d.m.&X+Xb.}.+X}.}.}.+X}.+XOXXXg.8.7.e.I b j j O O g ] g 8 k z a.qX%XuXsXsXaX>Xs.s.K.UXUXcXvXvXvXFXCXAXZXSX",
"CX9XCXAXAXIXLXlXP.H.q.6.;.p.j.n. X#X*X#X}.@X@X@XyX=X}.n.1X8X4XA.p.e.b 3 0 0 b n i.}.,XaXuXsXsX:X|.B.Z.9XIXcXxXIXcXzXzXCXCXZXAXAX",
"SXSXSXCXVXZXHXGXKXJXJXxXP.z.y.8.9.s.{.OX#X#X%X%XyX%X+Xb.}.,XpX,XqX3XZ.q.q.7.0.|.#X$XuXsXsXpX#Xp.B.P.FXFX9XFXIXzXbXHXAXAXAXAXAXAX",
"U.9XzXDXAXLXAXzXlXlXHXHXIXIXlX0XK.Z.g.w.s.V.}.#X<X,X%X}.+X%XuXrX#X,X X X>X>X:X:XsXrXpXgX;XV.w.J.SXAXSXvXvXkXCXHXGXGXGXAXAXAXZXSX",
"IXLXAXAXcXzXcXLXCXDXAXVX].VXCXCXIXcXxXP.Y.Z.w.s.C.C.|.|. X:X:X$X@X%X#X:XpXgXsXuXsXaX,XC.w.B.lXKX].VXAXCXzXkXzXlXZXGXZXZXAXAXAXZX",
"].ZXCXAXCXcXzXDX9XCXDXSXVXCXSXLXcXcXVXSXSX9X9XJ.Z.y.q.w.V.oX X#X#X%X%X:XgXsXsXuXdX}.u.g.9XLXUXMXVX9XjXVXAXKXAXzXlXCXZXCXCXvXCXCX",
"ZXZXVXAXLXFXkXkXFXCXjXCXDXCXzXkXcXDXSXfXVXSXAXHXUXmX!.L.B.q.w.s.{.#X#X#XgXgX<X:Xa.s.3XnXUXbXnXLXjXVX/.].ZXZXlXzXCXkXCXCXCXCXCXCX",
"SXZXZXZXZXVXjXCXCXAXkXCXCXkXjXkXDXAXZXSXLXAXAXAXlXnXHXLXAXjXY.S.B.V.w.V.8X8XV.8.J.0XLXLXbXlXbX(.[.~.(.~.(.ZXU.].jXlXAXAXAXCXCXCX",
"GXAXSXHXAXZXCXZXjXjXVXAXSXCXkXCXAXzXCXIXIXAXkXAXAXAXAXAXLXAXLXAX9XU.Y.H.S.q.B.9XkXcXLXAXlXlX(.~.~.T.Q.(.[.[.I.^.xXlXbXzXcXAXCXAX",
"ZXZXZXZXVXjXU.U.U.VXZXjXAXAXAXAXAXAXAXAXZXjXjXAXAXAXlXCXzXAXAXAXSXDXDXDXSX9X9XFXFXDXCXlX/./.(.(.T.D.L.(.].].P.P.jXzXAXAXAXAXAXCX",
"HXSXAXAXZXjXU.U.jXAXCXVXZXHXAXAXAXAXAXxXI.U.9XlXzXAXAXAXDXSXAXAXzXCXCX9XjXDXFXCXkXkXAXAXjXjXZXZX~.~.(.[.ZXZXU.jXlXzXAXAXAXAXCXCX",
"AXZXAXAXAXAXAXAXAXSXZXAXHXHXHXZXAXAXzXjXI.I.jXzXAXAXAXAXAXAXAXLXSXVXSXFXCXCXFXCXFXCXDXFXCXZXVXZXGXGXGXGXZXSXVXAXAXAXAXAXAXCXSXCX",
"CXjXkXzXZXAXAXAXkXlXlXlXHXlXlXGXlXAXCXAXjXxXjXzXLXAXAXAXlXzXlXCXLXjX9XCXCXCXCXFXDXCXCXVXSXSXAXZXlXGXHXZXjXZXZXCXCXAXAXAXAXCXCXCX",
"AXCXAXSXCXCXAXAXZXlXlXlXlX(.!.lXlXAXAXAXSXAXAXAXAXjXAXCXAXHXDXAXZXSXIXSXAXCXSXCXSXVXVXVXAXSXAXVXZXHXHXAXAXAXCXjXzXzXAXAXZXCXCXCX",
"CXkXAXCXSXCXZXAXAXAXGXGXlX!.!.lXlXAXzXzXCXDXAXAXAXzXjXjXkXjXAXAXCXVXVXVXSXAXAXjXjXAXDXSXVXAXZXAXHXzXjXAXSXkXjXjXjXlXAXCXZXAXCXCX",
"kXAXAXCXCXCXAXAXZXHXHX^.L.P.!.lXHXAXAXzXAXAXAXAXCXlXI.I.jXAXAXlXAXZXZXZXSXZXSXZXVX/.ZXZXVXAXAXlXAXzXzXzXCXCXjXjXAXAXAXZXAXVXCXVX",
"CXCXCXCXVXAXVXVXAXAXlXL.L.L.(.GXlXAXAXAXAXHXAXAXAXkXjXI.jXAXDXAXZXZXZXZXZXGXSXHXZXZXHXZXHXZXlXzXzXzXCXCXkXCXCXCXAXzXAXlXZXAXAXVX",
"AXAXZXAXAXZXAXAXAXAXlX^.P.^.lXHXzXAXAXAXCXAXAXAXAXAXzXjXxXAXAXAXZXVXAXAXZXZX[.ZXKXGXZXlXlXlXxXbXzXzXzXCXAXAXAXZXHXzXlXZXZXAXCXAX",
"AXZXCXAXZXCXZXAXZXAXAXZXGXAXGXAXAXAXAXAXzXjXjXzXzXAXCXAXAXAXLXAXAXZXZXZX/./.(.(.(.(.!.~.lX(.P.^.xXzXCXSXCXZXAXHXAXGXbXHXHXAXAXCX",
"AXZXAXZXAXAXZXVXAXAXAXCXZXZXAXHXAXAXAXzXkXjXxXlXAXAXAXAXAXAXAXAXAXAXAXVX/.^.(.(.L.L.H.L.bXxXL.P.xXkXAXAXAXAXAXAXbXbXlXbXbXHXAXAX",
"lXAXZXjXVXAXAXZXAXZXZXZXAXzXAXAXzXAXAXzXAXAXAXAXAXzXAXAXAXzXAXAXAXCXCXZXZX/./.].~.L.L.(.GXnX!.^.jXVXkXAXAXZXGXGXbX(.(.xXbXlXbXAX",
"ZXKXlXI.U.ZXAXjXVXCXCXDXDXAXkXkXAXAXAXAXAXAXAXAXAXAXzXAXCXAXCXzXCXkXCXCXZXZX[.ZXKX].ZX_.bXnXzXHXzXAXZXZXAXZXZXZXbX!.Q.!.lXbXHXzX",
"ZXSX/.P.P.ZXSXVXAXCXCXSXCXCXCXSXAXCXjXzXAXAXCXzXAXAXzXAXAXzXAXFXCXfXCXCXZXZXGXZX_.].JXJXbXHXbXHXAXzXVXAXZXAXGXGXJX!.L.L.xXHXLXnX"
};
