/* XPM */
static char *_06701cb2a4147b092e310a8f5d1761ctNCl6qBZlbkBHRif[] = {
/* columns rows colors chars-per-pixel */
"64 64 256 2 ",
"   c #162B00",
".  c #083A01",
"X  c #133B01",
"o  c #1B3C00",
"O  c #163706",
"+  c #11320E",
"@  c #292800",
"#  c #342C00",
"$  c #243C00",
"%  c #283702",
"&  c #363800",
"*  c #251F00",
"=  c #433B00",
"-  c #473900",
";  c #402C00",
":  c #0C4303",
">  c #094804",
",  c #1D4301",
"<  c #134A02",
"1  c #1B4C01",
"2  c #174809",
"3  c #0C5508",
"4  c #14540C",
"5  c #1B530B",
"6  c #145B0D",
"7  c #1B5B0C",
"8  c #195704",
"9  c #0E4C14",
"0  c #1B4C14",
"q  c #154815",
"w  c #155313",
"e  c #1B5413",
"r  c #145B14",
"t  c #1B5C14",
"y  c #165D1A",
"u  c #1C5C1B",
"i  c #1A541A",
"p  c #0D5513",
"a  c #234400",
"s  c #234D01",
"d  c #2A4B01",
"f  c #284607",
"g  c #3B4B01",
"h  c #364602",
"j  c #2A5402",
"k  c #265907",
"l  c #335B01",
"z  c #365503",
"x  c #234B16",
"c  c #225C13",
"v  c #225C1B",
"b  c #285717",
"n  c #365712",
"m  c #1B630D",
"M  c #17620A",
"N  c #1C6314",
"B  c #15631B",
"V  c #1B631B",
"C  c #1C6B1C",
"Z  c #186716",
"A  c #1C761B",
"S  c #0F6A12",
"D  c #296609",
"F  c #366706",
"G  c #226413",
"H  c #236A14",
"J  c #22631B",
"K  c #226A1B",
"L  c #2B6917",
"P  c #376717",
"I  c #277319",
"U  c #36771B",
"Y  c #1A5921",
"T  c #164D2E",
"R  c #244C25",
"E  c #28582A",
"W  c #335D25",
"Q  c #264E34",
"!  c #1C6522",
"~  c #1B6B23",
"^  c #166624",
"/  c #1A7322",
"(  c #236C24",
")  c #276925",
"_  c #356925",
"`  c #277626",
"'  c #387A25",
"]  c #307135",
"[  c #454C01",
"{  c #4C4B01",
"}  c #474401",
"|  c #544B00",
" . c #435201",
".. c #4C5301",
"X. c #4C5C00",
"o. c #435806",
"O. c #535302",
"+. c #5A5500",
"@. c #545A02",
"#. c #5C5B02",
"$. c #56580B",
"%. c #585813",
"&. c #4D5B12",
"*. c #634D00",
"=. c #625B01",
"-. c #675903",
";. c #476804",
":. c #5B6300",
">. c #5C6C01",
",. c #556806",
"<. c #45720A",
"1. c #597505",
"2. c #456818",
"3. c #576715",
"4. c #467417",
"5. c #587818",
"6. c #6A6302",
"7. c #636B01",
"8. c #676707",
"9. c #756905",
"0. c #697704",
"q. c #787807",
"w. c #656817",
"e. c #796D18",
"r. c #687815",
"t. c #777716",
"y. c #695E21",
"u. c #507428",
"i. c #756D26",
"p. c #667823",
"a. c #797626",
"s. c #73712E",
"d. c #595923",
"f. c #407241",
"g. c #846B03",
"h. c #887806",
"j. c #957A04",
"k. c #867B17",
"l. c #8F7818",
"z. c #A67F01",
"x. c #897C24",
"c. c #807734",
"v. c #35832D",
"b. c #578517",
"n. c #5F8E14",
"m. c #698409",
"M. c #79850A",
"N. c #6A8618",
"B. c #788516",
"V. c #689519",
"C. c #7B9311",
"Z. c #488728",
"A. c #589635",
"S. c #508B2D",
"D. c #6A8722",
"F. c #798727",
"G. c #759627",
"H. c #639A36",
"J. c #70902F",
"K. c #69A93A",
"L. c #77A936",
"P. c #7BB43C",
"I. c #74B136",
"U. c #6CA32B",
"Y. c #5EA23F",
"T. c #689B47",
"R. c #7C9445",
"E. c #68A745",
"W. c #74AC49",
"Q. c #7BBA44",
"!. c #7DBC4A",
"~. c #78B546",
"^. c #7DB952",
"/. c #70AC52",
"(. c #7DC149",
"). c #7DC555",
"_. c #898509",
"`. c #998608",
"'. c #959309",
"]. c #878718",
"[. c #978A16",
"{. c #879315",
"}. c #999517",
"|. c #87970C",
" X c #A68707",
".X c #A99809",
"XX c #BA9A02",
"oX c #B59806",
"OX c #A58B16",
"+X c #A79617",
"@X c #B69A16",
"#X c #B28B0A",
"$X c #9AA11C",
"%X c #BBA30A",
"&X c #ABA516",
"*X c #B8A919",
"=X c #B3AE17",
"-X c #878827",
";X c #968B2B",
":X c #899528",
">X c #9A9725",
",X c #929536",
"<X c #A59A26",
"1X c #A78D2C",
"2X c #85A735",
"3X c #87BB3D",
"4X c #99B83A",
"5X c #92A92E",
"6X c #B7A826",
"7X c #ABAA2F",
"8X c #C19D05",
"9X c #C09715",
"0X c #C8A708",
"qX c #D4AC0A",
"wX c #C3AB14",
"eX c #C5A916",
"rX c #C5B41A",
"tX c #D5B313",
"yX c #E3B718",
"uX c #CAB825",
"iX c #E1BF20",
"pX c #8BC33C",
"aX c #92C43E",
"sX c #CDC32E",
"dX c #8B9547",
"fX c #82B543",
"gX c #84BD45",
"hX c #8ABE45",
"jX c #84BC4C",
"kX c #8BBE4A",
"lX c #88B649",
"zX c #92BD46",
"xX c #85BD52",
"cX c #8BBE52",
"vX c #85BA58",
"bX c #93BB54",
"nX c #8DAD42",
"mX c #A9B749",
"MX c #85BC61",
"NX c #85C245",
"BX c #8BC345",
"VX c #86C34B",
"CX c #8AC54D",
"ZX c #8BC24B",
"AX c #89C94A",
"SX c #92C346",
"DX c #91C34B",
"FX c #99C54B",
"GX c #85C352",
"HX c #8BC352",
"JX c #8BC35A",
"KX c #8AC857",
"LX c #92C353",
"PX c #96C557",
"IX c #8BC660",
"UX c #A2C655",
/* pixels */
"zXSXhXgXP.P.gXCXkXZXZXCXkXVXVXVXNXzXBXBXBXBXBXBXAXBXNXBXNXBXBXBXDXBXhXZXZXCXCXCXVXVXVXVXCXZXNXZXZXBXzXhXkXhXzXZXZXZXCXCXZXZXbXZX",
"SXZXhX3XP.P.gXCXCXZXZXkXCXCXVXCXBXSXBXBXSXBXkXNXBXCXCXAXCXCXZXBXBXNXNXZXZXCXBXCXVXNXZXVXCXCXZXZXBXZXZXSXSXzXZXkXZXZXZXCXZXZXDXSX",
"HXCXjX!.Q.Q.VXCXZXZXhXZXBXBXBXZXjXZXSXZXCXDXZXZXgXkXNXZXDXZXSXkXZXCXNXVXCXNXVXCXCXCXCXSXZXZXZXZXNXBXZXDXZXZXZXVXkXVXNXNXZXSXzXDX",
"VXCXHXGXGXGXVXCXCXjXgXBXBXSXBXBXkXkXCXCXCXZXZXZXLXZXkXhXkXDXkXZXgX!.NXVXCXCXVXNXZXZXZXZXBXZXkXhXZXCXCXCXCXCXZXVXVXZXZXZXBXBXZXSX",
"xXcXxXHXHXHXGXjXVXZXZXDXSXzXzXBXCXHXAXVXVXVXVXgXAXZXCXCXkXzXkXZX~.~.Q.(.AXHXAXCXhXhXhXhXkXZXkXkXCXNXCXVXHXKXGXGXGXGXGXVXCXCXCXZX",
"HXHXGXkXGXGXxXCXkXjXhXZXDXSXSXSXZXNXCXVXVXVXVXVXgXjXVXVXHXHXxXGX~.~.~.!.VXVXZXgXkXkXZXZXSXkXkXkXZXNXhXNXVXVXGXxXGXGXKXGXCXCXCXZX",
"CXZXZXCXkXCXVXGXVXQ.Q.NXjXCXkXZXBXaXSXBXBXBXVXVXKXKXKXGX^.vX).JX^.^.jXGXHXHXCXDXhXzXkXkXzXkXZXZXSXpXBXBXCXVXjX!.VXxXcXHXcXCXZXVX",
"hXBXBXBXZXZXZXVXjX~.K.~.jXGXGXkXDXSXDXDXZXjX!.!.K.A.A.Z.U I L U Z.Z.S.A.H.H.K.L.~.~.fXjXxXcXGXVXZXDXZXHXHXHXjX!.!.xXcXcXHXCXCXZX",
"pXaXpXaXBXSXhXDXVXQ.Q.~.(.).).(.W.E.H.S.Z.U D D D 7 8 8 8 7 8 8 3 6 m G m G D D I D I v.v.v.Z.Z.Z.S.A.Y.E.E.E.E.W./.lXvXJXKXKXjX",
"pXSXpXDXSXFXkXkX!.E.Y.A.v.Z.v.I H N N 6 m N 6 N K H N t 7 t 4 4 3 3 3 6 6 Z Z 6 m M M M m m M m m M M 6 M 8 8 k k F F F <.D.jXKX",
"(.AXHXfXD.4.<.P F D G G H K m H C ^ C B ~ ~ B ^ y p u r r y r u u t t r r r B Z B Z m N N H m m M S u N N m c j d z z z F N.lXFX",
"(.AXPXlX<.z g o.l j j j j j j D 7 G N H H H 6 6 t S B N B y S Z K J ( ( B ^ ` ] ~ ( C I ( H t 7 k c k L D F F ,.r.r.t.B.B.:X4XzX",
"DXaXmXmXk.q.k.x.k.9.q.9.q.0.6.:.,.;.1.;.;.<.D F D D 8 8 3 3 > 3 > > 3 S 3 p S ^ ~ B V r 7 8 7 F ;.,.1.r.N.M.].}._.h.j._._.{.4X4X",
"SX3X4X4X].g.l.z.l.j.h.j.OX@XOX+X+X+X$X'.|.|.M.C.C.D.V.n.b.1.<.F F D F F I I I m D 8 k F <.<.5.B.].].>X}.'.`.`.j.j.`.OXOXq.|.4X4X",
"NXNXFX4Xq.q.j.1Xz.j.j.`.#XoX#XXXoXXX0X%XwXwX.X.XrX6XuX&X&X=X&X&X$X'.|.|.C.m.m.m.>.0.M.|.h.`.@X@X+X X`.`.j.h.j. X XOX<X].0.G.FXLX",
"(.VXzXzXB.8.k.1X[.j.`.OX@X@XoXoX9X8XXXXX0X0XXXoXqXtXtXqX0XqXqX0XrX=X=X=X.X.X=X=X'..X*X@X X XXX X X`.`.`.h.h.h.l.[.-Xt.X.j b.JXKX",
"AXGXkXcX2.$ g 3.,.w.r.].>X>X<X@X+XeXeX@X%X%XoXoX0XqXeX8X8X8X8X0XqX0X%X%X%XXXrXrX8X XoX Xj. X XOX X`.h.t.r.w.3.g z n k k < Z.CXBX",
"HXGXcXJXu.. X f , , j g X.X.7.t.k.-X]._._.[._.[.+X.XOX+X%X0XwXeX0X%X.X.XXXoX0X0X#X#XeX Xj.[.[.k.9.t.:. .h f , , q i y ( 8 A.DXpX",
"VXNXhXLXu.X i b b k v : X O o $ $ f h n g o. .w.r.0.9.t.[.}.&X*X.X.X.X.X%XoX*XwXXX#X@Xj.g.g.8.$.[ f a a . O X 2 0 Y u K 3 A.HXSX",
"BXBXhXCXS.2 i ) ) ) Y 9 2 e x o X O O O X O   o $ % f h g X.>.0.7.q.q.M.{.}.7X$Xj.h.9.O.} & % O o   2 0 0 0 x P R u u J < A.HXSX",
"pXBXBXCXS.. 9 y y ) ^ T Y E f.u.b f 2 q 2 b O R + + $     % $ h d n n l ;.<.b.5.g h s   O + + + + E ] E ] x X x 0 i v V 3 A.JXLX",
"pXpXSXLXA.X 9 y ~ ` ] 9 9 . Q W W b W x x b R Q Q R R + + + O . 2 0 V t m M m 8 : k E 9 E Q T T R R O + O f n j x 5 t J 8 T.JXHX",
"CXVXBXZXA.: < 4 K K ) q . b f f     O   o O x R Q R Y R q + q q : i ( ( v.S v.S 3 C ` u E R R O     O &.& u.F.s j k c N 3 T.IXHX",
"CXVXZXHXA.< < 4 G ` _ e o R.3.$.y.h & & g @       + O R + . O i x u N B S S v.S S m Z t x %     $.8.e.,X} p.-Xn j 5 c N 6 /.JXGX",
"vXjXHXLXT.1 < 4 G L L s O dX8.8.x.*.l.*.;Xk.$.O.a.[ @ %   h   O x v u V ` C / A 6 Z J f $ [ } $.k.g.g.l.*.t.,Xl k e N t t /.JXCX",
"JXxXHXxXT.< < e N H L j o ,Xe.-.x.-.g.*._.h.9.-.>XF.} # } s.d.@ x u ) V ) C / C r e L P o.y.+.*.g.g.g.1X9.q.G.l k 7 t r 7 /.HXDX",
"vXcXkXlXT.2 4 r V K ) k o F.t.-.[.=.g.-.h.q.9.=.{.].{ @ :.-Xa.& X u V V ` ^ ^ / u 0 b 2.o.$.=.-.g.g.g.h.9.6.1.F 7 r u 6 c /.ZXSX",
"JXcXLXxXT.5 q i B ! ) c , F.:X+.x.=.k.+._.{.9.6._.h.8.@ 6.h.t.g . B ~ B ) V ^ ~ Y 0 b 2.[ $.=.=.9.6.-.-.9.O.,.4.7 r y 4 D ~.BXpX",
"HXHXkX~.T.k 9 y ^ ~ ( c , r.1X6.-X-.x.# 9.x.| 8.k.6.x.# g.l.l.{ X Y ! Y ) V ! ] E 4 b P %.%.-.| O.{ +.| e.$.5.4.5 r w 4 L ^.kX3X",
"CXkX3XP.T.5 9 y B ~ ) c a r.mXq.k.-.;X@ | 8.@ %.-.- c.# e.-.e.$.X Y ( V ) K ~ ` r e c P 3.w.8.{ [ h +.+.i.$.N.2.8 y w 4 L vXDXSX",
"NXNXpXgXW.k : y B ~ L k a q.6X`.h.#.;X# +.8.# y.%.# s.& i.# O.,.o e J G S M A A S M N P 3.@.8.+...[ 8.i.8.| N.o.1 u u 4 L vXCXBX",
"ZXBXBXCXvXb : y C K K k a 0.6XOX[.#.-Xh #.8.& y.%.# i.} s.* [ w., e H m m S v.A Z m M P p.,.-.O.X. .e.,X-.| B.F k v e 5 _ IXVXBX",
"HXVXBXCXvXc > r A I I 8 . N.+X@X+XO.F.h >.r.% 3.#.- x.- s.@ [ r., 4 u C B Z v.A C V 7 F B.8.-.$.3.g B.<X*.O.N.D G ( c 1 _ MXHXBX",
"HXVXNXCXlXb 2 w C I A M X r.}.+X<X+.F.h :.t.% ,.>Xl.x.- s.@ [ F., 5 u ! B A A A ! ! G F M.9.=.O.3.z ].<X9.O.N.F J ! c , _ vXCXBX",
"HXNXpXBXvXL . 9 V ` K N o r.OXz.1X*.k.{ 6.].% $.}.+X*.; i.# { J.a 5 w B B B / A ! V G <.B.q.#.O.w.{ t.[.g.=.N.D H C 7 : ' vXAXaX",
"CXNXpXNXvXP : 9 B ` ~ c , w.l.j.1X| -X..7.].% X.}.<X*.; y.@ { F.a 2 w y B A ` A B N H F M.q.$.$.r.| 9.9.h.].D.l I H 4 . 4.HXCXBX",
"ZXBXpXpXKXU . 9 B ` B N s p.-Xg.1X- -X..7.-X% %.7X}.k.- y.@ { G.$ 2 0 u B C ` A r N H F 0.q.O.$.8...e.6.g.7XJ.F U H 3 . 4.JXcXLX",
"SXBXpX(.IX' . p B ~ A N 5 p.-X9.1X- -X .:.a.% 3.B.#.k.- i.@ O.-X$ 2 i u r B ` ` r J L F >.9.+.O.,...t.6.g.mXp.D U C w . Z.vXbXbX",
"SXhXBXNXKX' : w S C C N 1 5.:X8.<X{ C.o.@.F.% u.t.& -X- c.& @.F.o 0 i V B C v.A r V G <.:.6.-.| ,.X.>.8.9.4X2.G v.S 9 . Z.JXbXbX",
"SXBXAX(.IX' : 4 r C K m < 3.,X=.7X..{.X.O.-X% p.a.= ;X- c.& +.B.o 0 i B B ~ ` C 6 t D 4.:.6.w.{ w.@.,.,.,.D.F ` v.A w . Z.JXcXbX",
"kXSXVXGXJXS.. i 4 ) J 5 s u.dXO.<X+.:X@.7.-X& &.a.& ;X; ;X-.h.q.o q r B B B ` K r 7 L 4.:.8.w.$.t.#.3.l j > I S A A 4 . Z.KXhXpX",
"kXDXVXxXvXZ.. 2 < _ J v b o o...e.{ s.[ @.mXh &.i.= x.- 9.`.OXt.o q w V p y / V w 7 G P X.a.w.&.a.g , 8 L m A A v.8 j j H.HXAXpX",
"zXzXkXHXPXS.< s 5 _ r r ( 4 i _ $ O x , o.R.f 2.J.# t.| q.<XOX=., w 6 B r B ( V 7 t c 4.X.w.[ f f P I I I v.I v.4.5.B.0.2XAX(.).",
"kXkXkXHXJXS.X o s 1 7 6 V ] ] ] u.E 9 q b 1 < k n % r.& +.>X;X= f 9 3 6 3 y ( J t 7 N _ z g o x W ) S v.I I D <.:X7X}.h.4XAX(.).",
"SXSXkXZXPXU.g z o.d s D 8 m I ` ] ] ` v.Z.L ' p + 2 o O & dXs.% 0 9 3 < > p u ( w 4 C L s o f _ ] ( A m 8 F m.|.6X*XOXk.4XbXVX).",
"ZXZXNXhXUX5XM.].B.a.1.;.F D l k G B / I ` ] v.^ ] _ c n x O O $ x 9 6 > > 6 t ) t r B M G n ) ` I D D F 1.$X=X'..X+Xh.0.3XzXNXAX",
"VXAXAXhXFX5Xh.`.OXeXOXOX}.{.7.@.;.1 D D F I B ^ ~ ( H H ) > > v v q 7 8 > 4 y v J t r B L _ B r D D 1.C.=XrX%X`.{.].1.1.fXCXBXaX",
"(.VXAXBXmX5X_.[.#X@Xj.@X6X+X+X[.:XB.b.;.;.l D C G I H S N C 6 t i 9 t 7 < w e u v V B B 5 1 < k ,.{.=X=X0XwXoX`.0.,.N.jXLX3XSX4X",
"GXGXHXkXbX2X7.M.[.[.`.OX+XOXz. X.XOX+X'._.q.0.;.l l D D H H V V Y 9 V w > 0 e e u y r 6 < j o.M.*XwXwX*X*X&XM.>.N.L.LXLXZXZXSXhX",
"HXVXcXcXPX2X,.o. .:.9.k.[.`.j.OX X X`.`. X.X[.l.M.r.1.;.D l k L c < 4 < . > q i i v 7 s o.t.'.rX0X0XeX*X}.0.>.V.2XlXZXNXgXZXDXzX",
"VXNXHXjXZXPX2XL.N.0.X.[ @.7.q.].`.'.`. X X X Xz. XOX<X[.M.>.1.1.<.l j 1 : > 4 t 5 s j 7.}.wXoXwXrXrX6X_.7.r.2X2XHXVXjXNXZXDXDXkX",
"(.AXKXVXQ.gXfXgXPXFXzX2XN.1.,.:.>.M._.}.+X#X#X@Xz.#X@X@X`.`.'.7X$XC.N.<.j 8 8 8 z 1._..X0XqX0XsX=X'.0.m.4XUXkXQ.!.gXZXCXCXBXhXSX",
"NX(.AXAXCXKXHXVXCXHXkXcXPXLXfXL.N.1.X.7.].}.+X+X@X@XeX@X X`. X%XrX&X&X}.{.0.m.0.q.@XwXXXqXiXeX.X0.m.:XFXSXgXjXHXCXVXAXZXBXpXBXSX",
"AXNXNXNXNXNXVXxX!.vXHXGXxXxXvXbXPXbXnXJ.r.>.7.0._.`..X.X.X X XoX%XoX.X%X.X.XuX6XwXXX8XqXuX*Xh.0.m.pXLXgXjXHXGXHXHXCXCXAXCXBXBXBX",
"pXhXSXDXCXZXCXHXHXHXxX^.^.^.W.vXcXbXJXPXLXVXI.V.1.m.1.m._.|.<X6X&X%X.XoXoX8XyXyX0X0XuXuX[.7.0.5XLXAXGXGXHXKXKXQ.NXNXCXBXDXZXBXpX",
"SXFXhXzXZXkXCXkXxXHXHXGX^.W.W.lXvXcXJXGX(.GXKXAXAXP.U.m.1.7.0.q.'.'..X%XXX8XyXqXqXwX&X7.1.2XUXkXVXGX(.VXGXVXQ.VX!.NXZXNXNXhXBXBX",
"zXzXSXkXhXkXkXCXjXHXkX~.K.L.W.jXCXZXVXCXCXVXCXVXNXZXfXfXfX2XG.N.1.1.r.{._.=XsXuX&X0.1.H.gXLXkXxXGXVXVXVXVXjXgXgXVXZXZXZXZXZXNXhX",
"kXZXzXhXkXZXZXCXCXCXQ.I.U.K.~.CXNXBXNXBXAXBXCXZXZXgXfX3XjXPXHXbXlXL.U.N.1.m.C.C.;.b.!.JXGXGX!.VXGXGXjXVXZXVXZXkXZXkXkXkXkXZXZXkX",
"ZXZXNXZXZXNXVXAXCXCXgXP.I.P.gXZXNXBXNXBXBXhXBXzXDXkXkXlXlXHXHXcXGXJXKXcX2XU.V.b.Q.(.AX(.!.NXQ.(.jXjXkXZXNXBXBXSXSXkXkXkXkXHXZXCX",
"CXCXVXCXVXVXNXNXNXAXAXNXNXZXZXZXNXZXSXkXgXhXhXhXkXkXkXkXZXLXCXjXJXKXGXgXNXQ.(.(.).!.I.U.P.(.K.(.jXhXZXSXBXSXBXZXCXkXcXxXHXcXZXcX",
"HXVXVXVXNXAXNXNXNXAXVXVXVXZXCXCXVXCXZXCXjXjXjXjXCXkXcXkXZXDXLXLXgXCXpXpXpXQ.~.Q.U.n.U.I.ZX!.K.K.!.hXZXNXBXBXZXZXjXlXjXxXxXxXCXCX",
"jXCXVXgXgXCXAXNXCXVXNXVXVXkXZXZXcXkXcXCXZXjXVXVXHXCXVXVXZXNXkXZXDXSXpX3X3XQ.Q.!.P.I.I.I.HXGXW.I.jXjXZXkXBXCXZXZXxX!.~.lXxXcXjXCX",
"ZXZXjXP.3XjXCXhXNXZXZXLXDXLXkXlXkXZXSXZXZXZXZXVXVXNXCXCXAXAXBXBX3X3XVXHXGXGXVXGXjXcXJXvXjXcXbXcXkXxXkXVXAXVXVXGXHXW.E.W.xXHXCXCX",
"kXLXhXL.I.kXDXBXZXZXZXkXHXkXHXLXSXZXkXBXNXNXZXNXZXZXNXNXNXAXBXBXaXaXcXKX).xXGXGXJXvXMXJXvXbXbXbXHXkXVXVXVXVXVXVXKXW.H.E.!.HXZXjX"
};
