/* XPM */
static char *aa1a13bf0cdf4cc58fb130680764ac8d7hmTl9ezk7w1G1jS[] = {
/* columns rows colors chars-per-pixel */
"64 64 242 2 ",
"   c #0D1404",
".  c #161908",
"X  c #171D13",
"o  c #0E1006",
"O  c #1A250A",
"+  c #192617",
"@  c #142C15",
"#  c #272809",
"$  c #262817",
"%  c #293718",
"&  c #363B1B",
"*  c #302F0D",
"=  c #1B2A21",
"-  c #282A21",
";  c #2D3C24",
":  c #38461B",
">  c #364C0E",
",  c #2C4626",
"<  c #354726",
"1  c #37542B",
"2  c #3B5833",
"3  c #3E6231",
"4  c #46591B",
"5  c #50531A",
"6  c #4A6419",
"7  c #52671C",
"8  c #434828",
"9  c #465728",
"0  c #535629",
"q  c #455D34",
"w  c #54583A",
"e  c #4A6626",
"r  c #576929",
"t  c #5C7728",
"y  c #476637",
"u  c #566A39",
"i  c #4E7538",
"p  c #57773B",
"a  c #68682C",
"s  c #676A35",
"d  c #68783A",
"f  c #787739",
"g  c #6F7031",
"h  c #597744",
"j  c #546C42",
"k  c #676846",
"l  c #687745",
"z  c #777B45",
"x  c #777657",
"c  c #726B55",
"v  c #7D7B62",
"b  c #837D3A",
"n  c #827C46",
"m  c #847C65",
"M  c #5E8131",
"N  c #698639",
"B  c #768739",
"V  c #6A9332",
"C  c #74AB39",
"Z  c #7BB53D",
"A  c #7CB83B",
"S  c #6CA536",
"D  c #5C8546",
"F  c #698748",
"G  c #778847",
"H  c #789449",
"J  c #788953",
"K  c #789854",
"L  c #6A934C",
"P  c #78AA44",
"I  c #7AB443",
"U  c #7CB848",
"Y  c #7CAE53",
"T  c #7EC14E",
"R  c #85843B",
"E  c #86963D",
"W  c #84BB3D",
"Q  c #89C33D",
"!  c #878949",
"~  c #869649",
"^  c #999449",
"/  c #888B56",
"(  c #958C51",
")  c #8B945B",
"_  c #8C9A5C",
"`  c #879556",
"'  c #989957",
"]  c #948747",
"[  c #A59A54",
"{  c #86A84B",
"}  c #84BD45",
"|  c #8ABD45",
" . c #8BB54D",
".. c #85BC4B",
"X. c #8BBD4B",
"o. c #84B546",
"O. c #92BD4D",
"+. c #91BB46",
"@. c #8AA856",
"#. c #93A35B",
"$. c #99A95A",
"%. c #8CB355",
"&. c #8CBD52",
"*. c #8EBC59",
"=. c #87BA54",
"-. c #93BC54",
";. c #94B35C",
":. c #94BB5B",
">. c #99B85B",
",. c #95AA4C",
"<. c #A7A659",
"1. c #AAAE59",
"2. c #888869",
"3. c #938D6B",
"4. c #8A9665",
"5. c #969967",
"6. c #928C74",
"7. c #9B9B7B",
"8. c #979674",
"9. c #8E8975",
"0. c #A69C67",
"q. c #A19C7B",
"w. c #8CA567",
"e. c #93A464",
"r. c #94AB6D",
"t. c #99A76A",
"y. c #9ABC62",
"u. c #98B367",
"i. c #95AC73",
"p. c #9BAC75",
"a. c #9AA574",
"s. c #9CB578",
"d. c #8EB463",
"f. c #A2AB6A",
"g. c #A7A668",
"h. c #B3AA68",
"j. c #A8B869",
"k. c #B7B66A",
"l. c #AAAA7B",
"z. c #A6A877",
"x. c #B3AD78",
"c. c #A4B473",
"v. c #ABB474",
"b. c #A3B57B",
"n. c #ACBB7B",
"m. c #A7B977",
"M. c #B4B37C",
"N. c #B8B877",
"B. c #C2B85E",
"V. c #C3BC75",
"C. c #C3BC6D",
"Z. c #86C345",
"A. c #8BC345",
"S. c #86C24B",
"D. c #8BC34B",
"F. c #8AC847",
"G. c #91C34C",
"H. c #91C547",
"J. c #85C252",
"K. c #8BC252",
"L. c #87C658",
"P. c #93C353",
"I. c #96C559",
"U. c #9CC262",
"Y. c #A5C36B",
"T. c #AAC378",
"R. c #B6C579",
"E. c #B2C16A",
"W. c #C6C779",
"Q. c #D7D27A",
"!. c #CDC875",
"~. c #9D9A83",
"^. c #9B8F81",
"/. c #A39C86",
"(. c #9EAD81",
"). c #A4A483",
"_. c #AAA585",
"`. c #ACAB84",
"'. c #ABA58C",
"]. c #ACAC8B",
"[. c #A6A588",
"{. c #B3AD85",
"}. c #B3AD8C",
"|. c #B9AB88",
" X c #ACB582",
".X c #A8BA84",
"XX c #BAB385",
"oX c #B4B38C",
"OX c #BBB38C",
"+X c #BCBA8C",
"@X c #B6B885",
"#X c #AEAC92",
"$X c #ADA291",
"%X c #B3AD93",
"&X c #B6AD97",
"*X c #B4B293",
"=X c #BCB494",
"-X c #BCBA93",
";X c #B5B29A",
":X c #BBB49B",
">X c #BDBB9C",
",X c #B7B898",
"<X c #AFB091",
"1X c #BEB4A1",
"2X c #BFBAA3",
"3X c #C4BA8A",
"4X c #C2B695",
"5X c #C3BB95",
"6X c #C1B59B",
"7X c #C4BC9C",
"8X c #CABC97",
"9X c #C3BBA2",
"0X c #C4B9A4",
"qX c #ACC384",
"wX c #B9C886",
"eX c #BCC494",
"rX c #BFC698",
"tX c #BFD08B",
"yX c #BFC3A2",
"uX c #C6C889",
"iX c #D3CC84",
"pX c #DBD48B",
"aX c #D7D88C",
"sX c #C4C393",
"dX c #CAC594",
"fX c #CCCB9B",
"gX c #C6C799",
"hX c #D2CB9B",
"jX c #CCD497",
"kX c #D8D997",
"lX c #C8D48A",
"zX c #E4D98C",
"xX c #E5DD93",
"cX c #DDE095",
"vX c #E7E399",
"bX c #EEE695",
"nX c #C9C5A5",
"mX c #D3CAA6",
"MX c #CDD2A6",
"NX c #D5D7A6",
"BX c #D3D4B3",
"VX c #E6E6A1",
/* pixels */
"Z.A.S.} I U ..L...Z.Z.Q A.D.S.D.+.H.X.H.O.A.D.D.S.D.D.K.P.*.&.&.P.| } D.F.Q Z.F.Z.Z.A.A.G.D.X.X.D.X.+.A.| A.A.H.X.A.A.A.A.A.A.H.",
"A.D.Z.U P U U K.S.D.Z.Z.A.F.D.D.D.D.X.A.A.D.A.D.D.S.D.K.D.O.P.X.O.D.D.F.Z.T T F.Z.Z.A.A.D.X.D.D.D.D.H.D.D.A.D.| D.A.| A.H.O.D.+.",
"D.D.X...o.U ..K.D.D.Z.Z.A.D.D.D.A.Z.A.Z.A.F.F.F.Z.Z.Z.Z.Q | A.A.| A.A.A.F.F.Q T D.D.D.D.D.X.D.S.D.K.X.D.D.D.A.A.| A.A.A.X.G.D.G.",
"A.D.D.K.K.K.K.J.S.Z.} Z.A.A.D.D.D.Z.Z.Z.Z.Z.Z.Z.F.Q F.F.H.A.H.H.W W } A.S.F.F.Z.D.D.K.D.D.D.S...D.D.D.D.F.D.D.Z.A.A.X.D.D.X.K.D.",
"X.X.H.&.P.K.K.K...S.A.D.D.A.D.D.A.F.S.F.S.S.S.S.Z.D.S.D.D.D.| W W I ....T U L.K...X.=.X.D.S.S.Z.D.S.A.S.D.F.S.S.J.D.D.S.D.D.D.G.",
"O.H.X.X.&.&.D.S.D.Z.} A.H.D.D.D.A.F.F.D.D.J...=.K.*.I.*.>.-.&.%.o.{ { =.I.I.I.d.:.*.-.X.X.D.S.Z.A.Z.Z.Z.S.J.J.J.J.K.J.D.D.D.X.D.",
"G.H.X.D.S.D.S.D.S.A A } D.A.D.D.A.A.D.X.K.-.%.;.u.u.u.i.r.i.r.u.#.@.` %.u.d.d.d.:.y.-.-.-.D.X.} Z.Z.Z.A.S.J.J.U J.J.J.D.D.A.A.A.",
"| A.D.D.D.S.S.S...Z C Z | D.X.X.+.O.O.-.:.y.u.p.w.4.4.K 4.4.4.4.` _ #.e.K F H 5.` #.$.j.>.>.-.| A.A.A.D.J.S.U U U ..S.D.F.A.A.Q ",
"Z.F.Z.Z.F.S.S.F.} Z I Z o.P.P. .U.;.j.u.f.#.' / 3.5.0.x.l.OXgX3Xn.t.' / M.@Xb.a./ z f G ~ #.u.y.:.X.X...I.K.K.C I U Z.S.A.F.Z.A.",
"Z.Z.F.F.Z.Z.F.S.I.J...*.&. . .Y.p.p.t.5.f.{.{.x.x.hX8X3XXXh.( ] ( f / f s `.fXXX@X{.z./ d G G #.;.y.U.*. .K.} A Z A A U S.D.D.A.",
"Z.Z.F.Z.Z.Z.D.S.U I.*.%.U.Y.>.;.5.a.z.{.gXhX3X3X3XB.[ n ^ ^ 1.Q.zXxXiX' n a 5.mXOX{.OXnX;X7.2.k J J #.T.%. .D.W A A W Q S.D.K.K.",
"Z.F.Q Z.F.Z.D.D.K.=.%.y.Y.;.$.e.z.`.{.+X5Xx.0.( n ( 0.B.Q.bXbXbXzXxXbXpXh.' g n 5X8X>X7X1X2XnX^.x J F w.j.I. .A.Q Q Q F.D.D.*.K.",
"D.F.A.A.A.D.X.&.=.d.u.s.e._ v.v.uXuXg.' b ] h.C.iXbXbXxXpXh.' h.zXzXpXzXvXg.' z z 5XnX=X&X0XmX0X;X9.4.F ` Y.y.-.O.D.D.D.D...X.&.",
"G.D.F.A.A.D.D.:.@.Y.c._ / {.hX5.( B f k.W.vXvXbXbXiXh.[ ' <.! g [ zXbXpXaXcX$.f.! s l.8X=X7X0XnX0X:Xq.3.J F qXy.:.&.K.K.K.D.D.D.",
"D.D.D.D.D.X.-.y.Y.s.4.5.q.4X8X5./ / ` uXVXaXiXkXxX<.[ h.j.R.jXR.!.zXpXkXaXj.Y.j.t.t.a g.NX{.{.5X6X6X6Xq.8.4.J qXs.*.%.&.G.A.Z.Q ",
"D.X.D.G.-.:.y.u.u.4.3.{.|.l.4XmX) ' G G cXkXvXpXN.k.V.iXlXW.lXkXzXxXpXpXk.E.R.lXn.v.f.d / fXsX+X8X6X6X0X(.7.7.J qXs.y.-.G.Q Q Q ",
"Z.A.H.X.y.u.n.z.8.5.'.7X7X5X}.8XeX) e.G ` T.f.' ' N.uXiXkXaXW.aXaXpXaXW.W.lXtXR.T.u.i.r.l G wXjX-XnX:X6X7X8.}.2.7.eXu.:.D.Q Q Q ",
"Q F.W O.u.m. Xl.8.l.:X6X-X-X}.`.gXf.' t.G ~ f.u.N.uXkXkXkXuXR.vXxXvXpXiXW.R.R.m.s.s.i.r.s.G s .XnX-XOX6X6X{.3._.2.].c.:.G.F.Q Q ",
"Q F.W -.u..XM.z.8.|.:X&X=X=X5X}.+XuX_ #.f.c.T.n.wXwXjXjXVXlXf.aXkXpXbXvXiXN.R.R.wXi.s.i.w.t.` d z.mX4X8XOX4X).].x ).qX:.G.Z.Q H.",
"Z.Z.| -.m.n.M.7.8.%X:X:X=XoX7X5Xg.dXN.` j.j.u.R.N.wXlXtXkXuX$.$.vXxXvXzXcXaXj.f.s.tXs.w.i.r.w.4.u ) mX4X3XXX/.'.6.8.eXU.P.Z.D.D.",
"Z.A.G.-.T.b.l.5.8.=X6X6XsX|.4X4XM.x.uXv._ $.m.R.tXtXwXtXuXtXT.$.<.vXaXiXvXaXW.R.j.c.r.c.s.w.i.w.t.g n mX3X5X7.;X~.2.eXY.X...P.D.",
"Z.| I.%.qXz.l.3.6.6X0X:X6X=X7X4X8Xh.x.uXf.c.tXT.qXT.qXwXwXwXlXT.! k.cXbX!.<.<.1.j.t.m.m.w.r.i.i._ t.f s sX8X;X[.$XJ rXqX-.D.P...",
"A.X.-.>.qXb.z.2.6.0X0X&X=X=X8X7X|.3Xx.3XwXc.c.s.T.s.qXqXT.qXwXR.wX! $.<.^ <.R.aXkXu.e.r.i.p.w.w._ ) XXl.@X8X2X2X$X9.gXR.-.D.G.X.",
"S.D.&.y.wX].z.2.3.:X1X:X5XOX%X4X3X3Xl.M.NXm.r.m.s.s.qXqXqXwXqXqXR.n.' g.aXaXvXcXcXkXf.#.e._ 5.e.n.wXdXmXgX:X].;X^.~.gXT. .G.D.G.",
"K.X.P.y.wX*X<X8.m '.0X1X7X-X%X6X4X8X|.q.uXjXt.r.s.s..X.X.X.XqXs.s.b.c.! h.vXiXVXxXjXv.5.5.v.wXjXjX+XoX-X-X,X2X,X^.$XsXT.+.H.| | ",
"K.K.P.~ tXoXeX).x '.6X&X,XOX4X}.|.|.8X4Xq.MX Xa.p.(.(..X.X(..Xs..Xb. XG a v.kXV.' ( ' x.jXNXdX@X.XnX7X:XgXyX<X#X/.1XuXR.+.G.G.A.",
"S.K.*.V .XgXoX%X/.c $X1X}.7X%X:X6X|.4X4XXX+XBXa.Y (.i..X(.s.p.p.s.4.r.n.( g ( 5.x.uXkXhX3XM.M.3XnX,X9XnX9X,X].~.$XmX5Xj.+.Q A.Q ",
"K.F.U.B H BX].}.$Xv m &X=X{.=XnX6X6X6X8XmX{.MXsX(.(.(.Y i.p.p.p.a..Xp.t.g.g.3XhXhX5XOXXX+X3XdXnXBX,X2X9X>X#X[.~.0XmXhX>.+.W W D.",
"F.X.P.{ e eX,Xa.%X'.v m &X,X*X:X6X0X9XmXnXdXl.NX(.4.a.i.i.a.a.t.t.p.z.M.dXhXdX3X|.{.=X4X=XOX=X4X&X0XnX$X].).a.<XmXmXN.,.O.| X.D.",
"S... .@.9 / nX]._.0X/.c 2.[._.2X0X0X7X:X8X8Xz.+XMXa.t.r.p.4.t.c.v.uXjXuXM.XX3XXX{.=X9XnX7X=X%X&X%X$X1X$X].(.].2XmXmX! ~ O.| D.S.",
"S.D.&.%.e 5 `.nX/.;X&X/.c k /.;X1X;X1X}.8X|.3X0.BXsXw.4.t.u.wXuXfXuXh.z.x.3X3XOX&X0XnX2X&X&X1X1X1X6.$X$X*XoXgXmXmX0X' B I.D.K.J.",
"D.S.P.{ 4 O s 2XnX6./.#X).3.c m ^.~.2X;X&X4X3XOXz.NXz.v.sXsXgX Xz.x.x.3X|.3X8X4X1X2X2X2X0X0X1X$X$X/.$X~.-XsXnXBX8Xq.k.t U.-...L.",
"S.K.I.B 5 & * c nXyX~.7.{.'.q.m x v ~.1X1X0X:X8X8.l.dXdX-X;X#X;X3XOX3X=X5X8X9X9X0X0X1X1X:X&X/.~.'.%X#X].OXhXNXdX5.w.@.H U.U.X.X.",
"D.K.y.N * 0 8 8 j *XMXa.3.|.4X/.~.9.J 9.^.&X&X}.3X{.XXOXsXnXnXnX>X7X,X;X&X%X%X}.#X[././.~./.[.].%X*XrXnXhXuXM.z.F w.%.M @.d.P.X.",
"D.K.>.t > 0 8 # < 8 8.BXnX)./.'.<X].#X[.^.9.9.9.8.7.{.}.,X7X,X,X%X<X].].[.[./.7.8.~.).[.].].<X*XoX=XnXgXN.N.g.4.J w.Y N ;.>.P.H.",
"D.X.>.7 > & & - $ % 2 l <XBX,Xz.].<X,X;X#X$X[.7.6.3.8.8.8.7.8.6.2.2.2.2.6.8.8.8.).).).[.].*X,X,XmXgXuXM.g.g.e.` K K J F Y.>.| | ",
"D.P.>.r 9 * # - $ X ; < < c 7.,X#X<X(.).].oX*X*X&X#X#X'._.]._.`.).a.~.7.~.(.[.].`.].`.oX-XsX8XhXuXx.h.h.h.g.d.K L J H H j.-.| A.",
"H.P.{ 6 0 % X - - - X O : < < l 8.<X,X*XXXl.).).}.}.;X&X*X*X{.oX].].).).).`.`.].oXOXgXmXfXsXXXx.g.g.C.V.k.u.@.P F F z 5.U.P.H.Z.",
"F.P. .6 9 $ X - = + + + % < 9 : 8 s G z.dXfXmXfX8X*X`._.|.oX{.l.`._.{.{.oXOX-X+X8XdXdX3XN.h.0.<.h.C.Q.Q.j.;.Y L l d l l.j.O.W Z.",
"Q P.:.t 9 # o = X = + + @ ; q 0 a a 0 a z / g.l.+XOXsXsX5XsX3XdXMXfXfXfXfXsX+XM.z.h.N.x.h.h.k.!.C.<.B.Q.E.{ H L e l / wXY.H.Z.F.",
"H.| :.t p & . X X X = X @ , 2 j ! ( f s a f n n ! / ( ( ) / 5.t.z.g.z.a.z.5.) ' ' <.<.( W.aX!.1.1.R B.Q.y.L P L e z eXrX:.O.D.Z.",
"| H.P.H e u O . - + X X @ , 2 u / g.$.' n n b b b R ! f z ! ) ) _ ` ` z ! H B ~ ' $.$.E !.Q.1.[ ^ C.Q.1.,.K L F d a.gXqX:.K.F.F.",
"A.+.I.;.4 F &     + o O @ ; 2 9 d ( ' / b b n [ [ ^ <.R R G z l d d G 6 d F H Y _ >.$.E R.E.,.E 1.Q.k.E H K F p 4.lXjXY.:.K.S.F.",
"W A.G.I.t r l O   X X X X @ , 1 0 r s a a a a b ' ^ <.! ! ` J F F F L e p N H K @.d.@.@.>.,.E E !.B.E B H J h G qXjXR.y.P.K.S.S.",
"A.H.+.O.%.> ` l *   .   + @ = , < 9 0 9 a a g b ' ] $.G J K L D F F K y p M D L K K Y Y K { H E !.!.E B F d l b.jXtX>.-.D...K.F.",
"H.W O.G.I.N t .X2.< O o + @ @ = , 1 9 4 a ! [ [ g.' ' d l D D D p h L e i i D K Y L K K K H { V !.!.H t p u 5.hXkXk.+.H.D...D.Z.",
"A.W G.I.-.y.7 ) MX/.k $ o X X = = , , : d ^ [ R ! ! z l h D D j h h F 2 3 i h D L L L J H F H g !.k.B y p K 5XhXR.>.| A.A.D.S.A.",
"F.A.+.o.I.-.,.> ` MX2Xv O . = @ = ; % : z ' ' f 5 0 q u i i D 3 y h h 2 3 y y h j D h F l F l d [ C.H e _ tXhXv.1.>.G.Q Z.D.Z.D.",
"A.S.Z.Z.D.K.%.{ > H eXMXJ $ X - + . % O / f.g.r & 9 2 2 3 3 y 3 j 3 M 1 1 2 3 y j h h h p p p r k.V.( g.lXR.Y.;.O. .X.D.S.D.Z.A.",
"D.F.D.S.D.P.D. .P 4 G  XBX#X- o . $ @ # 0 3.( a % < 1 2 3 3 3 j 2 3 h , , 1 2 3 3 y u j h u y 9 n k.V.uXW.>. .{  . .X.J.D.D.A.A.",
"S.D.S.S.} } o.o.-.{ > r a.eX%Xw # . o # z 0.m * % , , , 1 1 < 2 2 y j , @ > , 1 y j h h 9 9 u J v.uXR.j.>.,.{ C ....S.D.| H.H.+.",
"K.K.K.F.} } o.o. .>.%.6 > l 5.sXq.s * o f 0.x.5 # = , , , 2 2 1 2 2 3 , @ % : 1 , : : 9 s J  XjXlXT.1.;.-.-. .o...D.D.D.D.H.A.A.",
"K.D.D.D.G.D.D.H. .-.Y.;.B e 6 d z.eXOX' n g g #   O $ ; ; , , % , < < < # % > : 9 r x f.sXjXsXv.;.%.:.*.&.-.X.P.K.D.D.D.H.D.A.A.",
"D.....X.D.D.D.D.G.X...:.U.%.M > 7 d ' +X8XuXx.) k w < & # % 8 w j c / 8.3.7.a.[.@XeXmXjXuXN.f._ %.:.I.X.o.D.D.S.S.D.D.D.X.A.H.A.",
"G.D.O.G.G.D.D.G.A.D.o.o.=.=.&. .V t t g [ h.uXjXBXnXnXyX@X XoX-X8X8XmXmXmXMXfXsX@Xv.m.v.j.u.$.;.=.K.J.S.K.I.D.W ..D.D.D.D.A.A.Z.",
"D.X.D.D.D.A.Z.A.D.D.K.X.U I P =.&. .{ M t B ! ` 5.t.b. X.X@X3XN.dXdXuX+XM.v.c.#.$.@.;.y.y.%.>.I.&.K.} S.F.Z.W A.} } X.S.Z.A.A.A.",
"A.O.H.D.| A.A.Z.Z.D.S.I C C U Y ..&.I.:.%.{ ~ H B G G G B R ~ ^ $.' #.#.@.@.@.{ =.o.*.L.=.K.S.S.D.S.S.| A.| } | X.D.D.S.D.S.Z.Z.",
"X.D.X.} Z.A.S.D.S.D.U C S S U T J.K.K.P.P.:.>.y.%.,.{ { { { { ,.,.%.%.%.%.%.*.*.J.S.J.J.S.S.T Z.S.A.| | | A.A.A.D.D.S.X.S.S.Z.Z.",
"A.A.| A.D.A.S.D.S.S.S.I P I T L.X.| | | X.G.:.P.I.O.X. .-.-.G.H...J.&.J.D.K...J.I.L.T T S.S.A Z.} X.A.H.A.H.D.D.D.X.S.S.J.D.S.Z.",
"A.D.A.D.A.D.A.S.S.D.K.J.J.J.L.=.D.+.A.| X. ... .X.H.X.| D.P.K.Z.D.D.D.S.U I I I A A C C U A S A | | O.A.O.A.D.D.K.&...J.S.S.F.S.",
"D.S.A.S.Z.D.S.S.S.D.D.D.S.S.K.K.O.H.H.A.D.X...X.| H.A.A...K.S.Z.A.A.A.Z.} A A I S S V C X...S C o.| D.D.F.D.S.K.=...U ..J.S.D.D.",
"D.D.S.} S.D.D.Z.D.D.X.A...D.D.D.D.A.| Q } ..&.D.A.Q H.D.K.J.F.S.A.A.A.| } } } ..P P C Z K.X.P U o.| X.A.J.S.S.J.=.U U U X.&.X.D.",
"J.F.} Z A D.D.| D.A.A.D.G.A.A.A.D.D.Z.Z.S.K.K.K.H.W A.O.*.K.&.G.A.A.A.A.Z.S.Z...L.T L.T =.T Y T ..D.X.S.S.S.T J.T I P P ..&.-.O.",
"F.J.U C C S.G.A.D.D.A.A.A.A.A.A.Z.Z.F.F.D.J.D.O.H.Q +.G.:.-.X.H.+.A.A.A.D.D.S.J.T T L.L.T T T L.K.D.S.S.F.J.J.T L.P S S  .K.-.O."
};
