/* XPM */
static char *ec5d41cd3a6d402cfd0537225f30e869PnLM7xdoTjD6cj7N[] = {
/* columns rows colors chars-per-pixel */
"64 64 106 2 ",
"   c #5CB63C",
".  c #63B73F",
"X  c #63BA3C",
"o  c #69BA3D",
"O  c #74BE3E",
"+  c #75C03E",
"@  c #7BC23F",
"#  c #4C955D",
"$  c #509E53",
"%  c #579D59",
"&  c #5C9E5A",
"*  c #54AD42",
"=  c #5CAD47",
"-  c #58A54E",
";  c #53A848",
":  c #5EAA4B",
">  c #5DB142",
",  c #56A251",
"<  c #5CA255",
"1  c #5DA059",
"2  c #60AF47",
"3  c #63AD4B",
"4  c #6AAE4E",
"5  c #63B443",
"6  c #6AB545",
"7  c #6CB942",
"8  c #66B14A",
"9  c #6DB34B",
"0  c #71B747",
"q  c #74BC44",
"w  c #7CBE46",
"e  c #73B44B",
"r  c #7AB64D",
"t  c #76B949",
"y  c #7CBB4A",
"u  c #64A654",
"i  c #6BA657",
"p  c #65AA51",
"a  c #6CAC53",
"s  c #67A25B",
"d  c #6AA559",
"f  c #6CA859",
"g  c #74AE54",
"h  c #7AAB56",
"j  c #70A659",
"k  c #74AC59",
"l  c #79AA5A",
"z  c #74B251",
"x  c #7CB353",
"c  c #7FB159",
"v  c #6EA460",
"b  c #77C040",
"n  c #7DC143",
"m  c #85CB36",
"M  c #82C63C",
"N  c #8DCA3D",
"B  c #94CF3D",
"V  c #8CD132",
"C  c #93D337",
"Z  c #94D13A",
"A  c #A5DC34",
"S  c #A0D739",
"D  c #80BF47",
"F  c #85BD4C",
"G  c #88BE4D",
"H  c #80AF56",
"J  c #83B553",
"K  c #84B652",
"L  c #82B655",
"P  c #86B950",
"I  c #84BA51",
"U  c #86BA50",
"Y  c #85BA52",
"T  c #86BA52",
"R  c #81C341",
"E  c #87C642",
"W  c #81C144",
"Q  c #83C344",
"!  c #80C046",
"~  c #85C246",
"^  c #87C346",
"/  c #8AC643",
"(  c #88C347",
")  c #8FC746",
"_  c #8FC647",
"`  c #8FC747",
"'  c #8AC840",
"]  c #8EC842",
"[  c #83C148",
"{  c #84C148",
"}  c #85C149",
"|  c #87C04B",
" . c #88C348",
".. c #89C348",
"X. c #8BC34A",
"o. c #8CC34A",
"O. c #8BC448",
"+. c #8BC449",
"@. c #8BC44A",
"#. c #8CC449",
"$. c #8CC44A",
"%. c #89C04D",
"&. c #90C746",
"*. c #92CA44",
"=. c #90C846",
"-. c #95CA44",
/* pixels */
"X.X.X.T e q +.X.X.X.X.X.X.X.X.X.X.X.X.X.X.X.X.X.X.X.X.X.X.X.X.X.X.X.X.X.X.X.X.X.%.#.#.#.#.+.%.#.#.#.#.+.%.#.#.#.#.+.%.#.#.#.#.+.",
"X.X.X.c v 9 [ +.X.X.X.X.X.X.X.X.X.X.X.X.X.X.X.X.X.X.X.X.X.X.X.X.X.X.X.X.X.X.X.X.+.#.+.%.#.%.+.#.+.%.#.%.+.#.+.%.#.%.+.#.+.%.#.%.",
"X.X.X.%.L r { X.X.X.X.X.X.X.X.X.X.X.X.X.X.X.X.X.X.X.X.X.X.X.X.X.X.X.X.X.X.X.X.X.%.#.%.+.#.#.#.#.%.o.#.+.#.#.+.#.#.#.#.#.%.+.#.+.",
"X.X.X.X.X.o.X.X.X.X.X.X.X.X.X.X.X.X.X.X.X.X.X.X.X.X.X.X.X.X.X.X.q D %.X.X.X.X.X.+.#.#.#.+.%.+.%.#.#.#.#.*.#.%.#.+.%.+.%.#.#.#.%.",
"X.X.X.X.X.X.X.X.X.+.X.X.X.X.X.X.X.X.X.X.X.+.X.F X.X.X.X.X.X.X.X.q q r X.X.X.X.X.%.+.| #.#.%.G { #.+.%.#.#.+.o.%.#.#.#.#.#.#.#.+.",
"X.X.X.X.X.X.X.X.X.~ { +.X.X.X.X.X.X.X.X.X.X.F F F ! X.X.X.X.X.X.7 9 4 G X.X.X.X.{ G %.%.#.{ { X.#.%.+.#.+.+.o.#.+.%.+.%.+.%.#.%.",
"X.X.X.X.X.X.X.X.o.q w G G X.X.X.X.X.X.X.X.X.X.F #.X.X.X.X.X.X.X.! F x G X.X.X.G { %.%.#.#.o.%.X.#.#.#.#.%.#.q [ %.#.#.+.%.+.#.+.",
"X.X.X.X.X.X.X.X.#.a 9 9 G X.X.X.X.X.X.X.X.X.X.X.o.o.X.X.X.X.X.X.o.o.X.X.X.X.X.{ +.#.#.#.%.o.X.X.+.%.+.%.#.#.q q q { %.#.#.#.#.%.",
"X.X.X.X.X.X.X.X.+.z g a T X.X.X.X.X.X.X.X.X.X.X.D ~ o.o.{ { G X.X.X.X.X.X.X.X.+.%.%.+.+.X.X.X.X.X.X.X.X.X.X.+.9 y y G o.%.+.%.#.",
"X.X.X.X.X.X.X.X.+.+.X.X.+.X.X.X.X.X.X.X.X.X.X.X.w q o.D 5 e G X.X.X.X.X.X.X.X.| +.+.%.+.X.X.X.X.X.X.X.X.X.+.+.d g 9 F X.#.#.+.#.",
"X.X.X.X.X.X.X.X.+.o.o.X.X.X.X.X.X.X.X.X.X.X.X.X.o.C O q 6 K %.X.X.X.X.X.+.X.%.{ G X.#.n ~ +.#.#.X.X.+.+.X.X.#.r r T %.X.#.#.%.#.",
"X.X.X.X.X.X.X.X.{ F o.X.X.X.X.X.X.X.X.X.X.X.X.X.X.B 6 d a F X.X.X.X.X.X.+.+.~ #.X.+.+.b [ o.+.%.+.+._ X.X.X.#.%.X.#.X.X.+.%.+.#.",
"X.X.X.X.X.{ o.X.F F X.X.X.X.X.X.X.X.X.X.+.#.%.+.X.a & j x X.X.X.X.X.%.#.#.{ @ Q X.X.+ w { n #.o.X.X.X.X.#.+.%.+.#.#.#.#.%.+.%.#.",
"X.X.X.X.X.F X.X.y F X.X.X.X.X.X.X.X.X.X.! ~ #.+.X.X.x G #.%.X.X.X.X.+.+.#.#.+.m ~ ! 5 e R w ! n X.X.X.X.#.%.#.#.+.%.+.%.#.#.+.#.",
"X.X.F G X.X.X.X.e x +.X.X.X.X.X.X.X.X.X.n @ +.+.X.X.X.X.+.+.+.X.%.+.+.#.o.#.#.M ! / w 4 @ ~ q q X.X.X.X.#.+.#.#.%.#.#.+.#.#.%.#.",
"X.X.X.F X.X.X.X.h h +.X.X.X.X.X.X.X.G X.q = r X.X.X.X.X.+.%.+.x h %.+.%.%.#.%.a e 3 p 9 < t > t o.X.X.X.#.%.+.%.+.#.#.%.+.%.+.#.",
"X.X.X.X.X.X.X.X.T K +.#.#.#.%.#.#.X.T G w 4 J X.X.X.X.X.X.X.X.G L T #.%.#.%.G k r a z z a t e T X.X.X.X.+.X.X.X.X.X.X._ _ +.X.X.",
"X.X.X.X.X.X.X.X.+.+.%.q +.+.o.o.X.X.X.X.%.o.X.X.X.X.X.X.X.X.X.X.+.+.#.+.#.+.+.%.#.+.#.#.#.X.+.X.X.X.X.X.#.#.X.X.X.X.+.#.) +.X.X.",
"X.X.X.X.X.X.X.X.%.+.+.E Z +.+.o.X.X.o.X.X.X.X.X.X.X.X.+.X.X.X.X.+.+.#.#.+.%.#.+.$.@.+.%.#.#.X.X.X.X.X.X.#.#.o.o.X.X.X.X.X.X.X.X.",
"X.X.X.X.X.X.X.! +.+.+.! q [ w #.q q o.X.X.X.X.X.X.X.X.+.X.X.X.X.+.%.%.+.#.#.#.%.#.%.#.#.%.o.X.X.X.X.X.X.&.S -.{ X.X.X.X.X.X.X.X.",
"X.X.X.X.X.X.X.q n y [ F 2 . o X.n o { %.X.X.X.X.#.+.%.#.%.%.X.X.+.#.#.+.#.+.%.+.#.#.#.+.X.X.X.X.X.X.X.X.X.-.N 6 G G X.X.X.X.X.X.",
"X.X.X.X.X.X.o.w 6 [ 7 < $ 6 { o.b   ! #.X.X.X.X.#.%.#.%.{ x G X.+.%.#.%.#.%.#.#.+.%.#.%.X.X.T T X.X.X.X.X.X.a z J K X.X.X.X.X.X.",
"X.X.X.X.X.X.o.F 4 #.y & % e F ( n o [ #.o.o.X.{ { #.+.+.o.G X.X.X.+.+.+.#.+.#.#.+.+.+.+.X.X.%.G X.X.X.X.o.n , g K G X.X.X.X.X.X.",
"X.X.X.X.X.X.X.X.%.+.#.X.G %.X.X.+.{ %.o.o.o._ q q X.X.%.#.#.X.X.X.X.@ +.#.%.+.%.+.%.n b ( X.G X.X.X.X.X.o.! 4 z %.X.X.X.X.X.X.X.",
"X.X.X.X.o.o.X.X.X.X.X.X.X.X.X.X.+.+.@.%.X.X.~ w y o.o.X.X.X.X.X.X.( m q #.#.o.%.X.X.' m ! G G G X.X.X.X.X.X.X.X.X.X.X.X.X.X.X.X.",
"X.X.X.G G o.X.X.X.X.X.X.X.X.X.X.%.+.#.#.X.X.D 5 r o.X.X.X.X.X.X.+.X.q 9 #.#.#.#.#.%.B V D J G X.X.X.X.X.X.X.X.X.X.X.X.X.X.X.X.X.",
"X.#.F h H ( X.X.X.X.X.X.X.X.X.#.#.%.+.%.X.X.X.F G X.X.X.X.X.X.X.+.+.! G #.%.+.%.X.X.+.9 M G G X.X.X.+.+.X.X.X.X.X.X.X.X.G G X.X.",
"X.%.{ w G X.X.X.X.X.X.X.X.X.X.w +.+.#.#.X.X.X.o.X.X.X.X.X.X.X.X.+.+.#.o.#.+.#.#.X.X.X.z 0 F o.o.X.X.#.#.-.{ F X.X.X.X.X.G x G { ",
"X.X.{ 5 q F ( X.X.X.X.X.X._ +.w ! q D G o.o.X.X.X.X.X.X.X.X.G X.X.X.#.%.+.#.+.%.X.X.X.X.X.X.X.X.X.X.X.#.A { G #.X.X.X.X.G { %.+.",
"X.X.X.3 u +.G X.X.X.X.X.X._ #.] m q F T X.X.X.X.X.X.X.X.X.X.X.X.| X.#.+.%.#.#.#.X.X.X.X.X.X.X.G X.X.#.+.@ { G #.X.X.X.X.X.X.X.X.",
"X.X.X.G F X.X.X.X.X.X.X.X.X.X.~ 7 z K G X.X.X.X.X.X.X.X.X.o.o.X.X.X.#.#.#.%.+.%.X.X.X.X.X.X.X.F G X.X.X.{ %.{ X.X.X.X.X.X.X.X.X.",
"X.X.X.X.+.+.X.X.X.X.X.X.F ~ F X.X.X.G +.X.X.X.X.X.X.X.X.X.q X.X.X.X.%.+.#.+.#.#.X.X.X.X.X.X.X.x T X.X.X.%.o.o.X.X.X.X.X.X.X.X.X.",
"X.X.X.X.X.X.+.#.X.X.X.X.F | %.o.#.%.#.%.#.%.#.%.#.%.+.%.#.7 t w X.X.X.| G %.X.X.X.X.X.X.X.X.X.X.X.X.X.X.%.#.#.#.#.+.+.X.X.X.X.X.",
"X.X.X.X.X.X.X.! X.X.%.X.+.[ X.o.#.+.#.+.#.+.#.+.#.+.+.+.{ 6 e 9 X.X.X.X.| x %.X.X.X.X.X.X.X.X.X.X.X.X.X.+./ +.%.#.%.+.+.G +.X.X.",
"X.X.X.X.X.X.X.O [ F G +.+.F { o.#.#.#.#.+.%.#.#.+.%.+.+.%.{ G { X.X.X.| X.G X.X.X.X.X.X.X.X.X.X.X.X.X.X.Q n ! +.#.+.%.G x | X.X.",
"X.X.X.X.X.X.+.! q t G %.+.+.X.X.=.#.%.+.#.#.%.+.#.#.%.#.#.%.X.X.X.X.X.X.X.X.X.X.X.X.X.X.X.X.X.X.X.X.X.X._ Z q r %.+.#.%.%.| X.X.",
"X.X.X.X.X.X.X.y 5 q y G X.X.X.X.#.#.#.X.#.#.+.#.+.#.+.%.X.X.X.X.X.X.X.X.X.X.X.X.n ~ #.X.q { G X.X.X.X.X.L t 7 e r %.X.X.X.X.X.X.",
"X.X.X.X.X.X.X.k d e r #.X.X.X.X.o.%.X.X.%.+.%.#.%.#.#.#.X.X.X.X.X.X.X.X.X.X.X.X.R + { q 3 r T X.X.X.X.X.T j s 4 r X.X.X.X.X.X.X.",
"X.X.X.X.X.X.X.X.F F #.X.X.X.X.X.X.w ! +.#.+.#.%.#.%.+.%.X.X.X.X.X.X.X.X.X.X.X.X.{ o 6 9 t T F o.X.X.X.X.+.%.G %.o.o.X.X.X.X.X.X.",
"X.X.X.X.X.X.X.o.#.X.X.X.X.X.X.X.X.9 y q %.+.#.+.#.+.#.#.X.o.~ n X.X.[ w X.X.X.X.X.2 5 p z G X.X.X.X.X.X.+.+.%.#.o.o.X.X.X.X.X.X.",
"X.X.X.X.X.X.+.+.X.X.X.X.X.X.X.X.X.p z 8 %.#.#.+.X.X.X.o.X.#.C @ X.X.w = r #.#.#.#.z a y T X.X.X.X.X.X.X.o.o.#.#.o.o.X.X.X.X.X.X.",
"X.X.X.X.X.X.=.=.+.X.X.X.X.X.X.X.+.G | G #.%.#.%.X.n n o.+.] C ( { X.w * e o.#.=.o.%.%.#.X.X.X.X.F X.X.X.o.#.#.#.X.X.X.X.X.X.X.X.",
"X.X.F G X.X.#.#.X.X.X.X.X.X.X.X.X.X.X.X.%.+.#.+.X.~ O w X.o u F q ! q 8 g T X.X.%.+.#.+.#.X.o.{ { X.X.X.o.#.=.#.X.X.%.X.#.#.#.#.",
"X.%.X.{ F X.o.#.X.X.X.X.X.X.X.X.X.X.X.X.#.#.#.%.X._ O O X.o 2 q q [ 7 X.K h X.X.#.+.+.%.#.%.o.X.X.X.X.X.X.#.X.X.X.X.F X.#.#.#.#.",
"X.X.X.X.X.X.X.X.X.X.X.X.X.X.X.#.%.+.%.+.#.#.#.+.X.o.D + t , 4 : a 8 3 G K G X.X.#.+.%.#.#.+.X.X.X.X.X.X.X.X.X.X.X.G X.X.X.X.X.X.",
"X.X.X.X.X.X.X.X.X.X.X.X.X.X.X.#.#.#.#.#.+.%.#.%.X.o.D e 0 u 9 : j 6 h G X.X.X.X.#.%.+.#.#.%.X.+.~ X.X.X.X.X.X.X.X.{ X.X.F +.X.X.",
"X.X.X.X.X.X.X.X.X.X.X.X.X.X.#.%.#.#.%.#.%.+.#.+.X.X.X.{ %.#.#.+.X.X.X.G X.X.X.X.#.#.#.#.#.X.X.+.@ n X.X.X.X.X.X.X.X.X.X.X.X.X.X.",
"X.X.X.X.X.X.X.X.X.X.X.X.X.X.{ +._ #.+.#.#.#.#.%.X.X.X.X.X.o.#.%.o.X.X.X.X.X.X.X.+.%.+.%.+.X.X.%.~ O X.X.o.~ n X.X.X.X.X.X.X.X.X.",
"X.X.X.X.X.n n o.o.o.X.X.X.F F F X.X.X._ ) +.@.%.#.%.#.#.#.+.%.+.X.X.#.#.#.X.X.X.X.X.X.X.b E F J F 7 q 7 F n O X.G G X.X.X.X.X.X.",
"X.X.X.X.X.N M o.G X.X.X.X.X.X.( X.X.%.-.S [ [ +.#.@.%.+.#.%.#.#.X.o.#.#.#.X.X.X.X.X.X.X.~ O q e e ,   e T ! X t K G X.X.X.X.X.X.",
"X.%.{ o.X.@ > x L G X.X.X.X.X.X.X.X.X.-.#.e / +.+.#.#.#.#.+.#.#.X.X.X.X.#.{ { o.X.X.X.X.{ 6 F e % # p L G !   9 K X.X.X.X.X.X.X.",
"X.X.X.X.X.~ r T G G X.X.X.X.X.X.X.X.%.L 9 0 q X.%.#.%.+.#.%.+.%.X.X.X.#.#.G X.+.X.X.X.X.X.w G X.e z x G o.{ q F X.X.X.o.=.X.X.X.",
"X.X.X.X.X.X.#.X.X.X.o.o.X.X.o.X.X.X.%.T f e q { #.#.%.#.#.+.#.+.X.X.X.X.o.+.#.&.+.X.X.X.X.X.X.X.o.#.#.#.+.%.o.X.X.X.X.#.*.o.X.X.",
"X.X.X.X.X.X.X.X.X.o.D X.X.X.D X.X.X.#.%.%.%.{ X.%.+.+.+.#.%.#.%.X.X.X.X.#.=.-.*.#.X.X.X.X.X.X.X.#.#.#.%.#.#.X.X.X.X.X.X.#.#.X.X.",
"X.X.X.%.X.X.X.X.X.X.q n X.r 5 F G #.+.#.#.#.X.X.#.%.#.+.#.+.%.#.X.X.X.X.X.X.X.X.X.X.X.X.X.X.X.X.%.+.%.+.+.#.X.o.X.X.X.X.X.X.X.X.",
"X.X.G { X.X.X.X.X.X._ m q 6 6 K G #.%.#.%.+.#.#.#.+.%.#.q [ #.#.X.X.X.X.X.X.X.X.X.X.X.X.X.X.X.X.#.#.#.#.%.+.J r F X.X.X.X.X.X.X.",
"X.X.X.#.+.#.+.#.X.X.{ 5 a a e T X.X.X.X.X.X.#.#.+.X.q t q { X.+.X.X.X.X.X.X.X.X.q n #.X.X.X.+.X.X.X.X.X.X.F F G X.X.X.X.X.X.X.X.",
"X.X.X.#.%.#.%.#.X.X.{ p & i h %.X.X.X.X.X.#.#.+.X.#.r 4 o.X.X.+.X.X.X.X.X.X.X.X.~ M #.X.+.{ [ +.X.G X.X.X.{ X.X.X.X.X.X.X.X.X.X.",
"X.X.+.%.#.#.+.%.X.X.X.x a x o.X.X.X.X.X.X.X.X.X.X.X.{ w o.X.#._ X.X.X.X.q [ X.X._ A D q { y 7 %.T G X.X.X.X.X.X.X.X.X.X.X.X.X.X.",
"X.X.#.#.%.+.#.#.X.X.X.X.#.+.X.X.X.X.X.X.{ F G X.X.X.X.X.X.#.-.#.X.X.X.X.[ q w q F 9 5 6 G n   r T X.X.X.X.X.X.X.X.~ X.X.X.X.X.X.",
"X.X.X.o.#.%.#.%.%.+.%.+.#.#.#.+.X.X.X.X.{ G x | X.X.X.X.X.X.+.X.X.X.X.X.X.5 r e < # < l L w ; d J X.X.X.X.X.X.X.~ q ~ T G X.X.X.",
"X.X.+.w ~ X.#.+.#.#.#.#.+.%.#.%.X.X.X.X.o.o.%.X.X.X.X.X.X.X.X.X.X.X.X.X.%.g T +.a s d J o.n 4 g J G X.X.X.X.X.X.X.t e o.J X.X.X.",
"X.X.%.4 F +.%.+.#.+.%.#.%.+.#.+.X.X.X.X.%.#.X.X.X.X.X.X.X.X.X.X.X.X.X.X.X.X.X.X.X.X.X.X.o.o.X.X.X.X.X.X.X.X.X.X.+.z & h J X.X.X.",
"X.X.X.= a X.#.#.#.%.+.#.#.#.#.%.X.X.X.X.X.o.X.X.X.X.X.X.X.X.X.X.X.X.X.X.X.X.X.X.X.X.X.X.o.o.X.X.X.X.X.X.X.X.X.X.%.w $ d G X.X.X."
};
