/* XPM */
static char *_dcc7e74b5a94dbdaa97d72bd9ec6145cCH6SNcN08ab52ou[] = {
/* columns rows colors chars-per-pixel */
"64 64 256 2 ",
"   c #0D1702",
".  c #131A07",
"X  c #161D14",
"o  c #0E0D00",
"O  c #1A2617",
"+  c #18260C",
"@  c #242A19",
"#  c #283517",
"$  c #333819",
"%  c #2D2F0B",
"&  c #1D2822",
"*  c #2F2D24",
"=  c #301D00",
"-  c #522B0E",
";  c #743711",
":  c #4E332F",
">  c #713330",
",  c #4C1D2A",
"<  c #3A4D0F",
"1  c #384726",
"2  c #354C2C",
"3  c #495215",
"4  c #506E1A",
"5  c #696D19",
"6  c #475728",
"7  c #4F542D",
"8  c #6F4C36",
"9  c #587939",
"0  c #536B31",
"q  c #687936",
"w  c #707035",
"e  c #774600",
"r  c #71314B",
"t  c #57394F",
"y  c #315050",
"u  c #385871",
"i  c #534C48",
"p  c #734F4C",
"a  c #576E47",
"s  c #687946",
"d  c #787A57",
"f  c #6C6E4F",
"g  c #52576C",
"h  c #705172",
"j  c #4F7071",
"k  c #70716F",
"l  c #8A392C",
"z  c #973E16",
"x  c #974B13",
"c  c #AB561B",
"v  c #934B2E",
"b  c #AC5531",
"n  c #906F33",
"m  c #AB7730",
"M  c #A96617",
"N  c #C56D2E",
"B  c #883353",
"V  c #94346C",
"C  c #A53773",
"Z  c #8E524E",
"A  c #AE5545",
"S  c #927051",
"D  c #AE6F51",
"F  c #934D73",
"G  c #8B726E",
"H  c #AF6F70",
"J  c #B45F7C",
"K  c #C57871",
"L  c #58823D",
"P  c #6A8439",
"I  c #728E39",
"U  c #6CA938",
"Y  c #79B63C",
"T  c #76AD3B",
"R  c #5D8D47",
"E  c #658847",
"W  c #768848",
"Q  c #779749",
"!  c #789654",
"~  c #708F52",
"^  c #7DBA43",
"/  c #7BB546",
"(  c #78A64F",
")  c #778F70",
"_  c #7CA764",
"`  c #7EC343",
"'  c #7EC252",
"]  c #AD900F",
"[  c #8F8F37",
"{  c #AF9632",
"}  c #86BC3B",
"|  c #98B937",
" . c #B3B230",
".. c #B6AD16",
"X. c #CCB91C",
"o. c #D3B813",
"O. c #CA9731",
"+. c #D6BB27",
"@. c #C9B834",
"#. c #D9BB36",
"$. c #D0AD33",
"%. c #E4B835",
"&. c #8AC43C",
"*. c #94C639",
"=. c #B1C532",
"-. c #D8C428",
";. c #D9C537",
":. c #C8C932",
">. c #E1C437",
",. c #D7C31B",
"<. c #888848",
"1. c #859848",
"2. c #868957",
"3. c #899A58",
"4. c #979858",
"5. c #95934B",
"6. c #A49250",
"7. c #84BC44",
"8. c #8BBE45",
"9. c #85BC4B",
"0. c #8BBD4C",
"q. c #88B549",
"w. c #93BD4C",
"e. c #94BA49",
"r. c #89A757",
"t. c #95A758",
"y. c #8CBD52",
"u. c #89BA56",
"i. c #93BC54",
"p. c #95BC5C",
"a. c #98B859",
"s. c #90AA49",
"d. c #A8A95B",
"f. c #ADB153",
"g. c #898A68",
"h. c #8B9765",
"j. c #959A68",
"k. c #989877",
"l. c #908C73",
"z. c #A69A78",
"x. c #AC8F6D",
"c. c #8AA868",
"v. c #98A967",
"b. c #89B766",
"n. c #99B865",
"m. c #98A677",
"M. c #91B276",
"N. c #A8A767",
"B. c #B4AA6A",
"V. c #A6B967",
"C. c #B7B866",
"Z. c #A7A77B",
"A. c #A7B876",
"S. c #B8B878",
"D. c #B3AC78",
"F. c #C7A845",
"G. c #D5B74B",
"H. c #E3B649",
"J. c #C2946F",
"K. c #CAB371",
"L. c #C59050",
"P. c #85C345",
"I. c #8BC345",
"U. c #86C34B",
"Y. c #8BC24B",
"T. c #88C94A",
"R. c #92C34C",
"E. c #92C546",
"W. c #84C352",
"Q. c #8BC252",
"!. c #89C558",
"~. c #94C357",
"^. c #ADC74D",
"/. c #9AC366",
"(. c #96C66D",
"). c #A5C36B",
"_. c #B1C571",
"`. c #D6C947",
"'. c #E4C34D",
"]. c #CBCB75",
"[. c #315786",
"{. c #3E6397",
"}. c #78548F",
"|. c #50728F",
" X c #6C798F",
".X c #567CA6",
"XX c #4A74A2",
"oX c #6D7AAA",
"OX c #97518A",
"+X c #A74888",
"@X c #8E6E8F",
"#X c #AE6C94",
"$X c #9372AC",
"%X c #9A3F85",
"&X c #6B8691",
"*X c #5A87AA",
"=X c #5A88B5",
"-X c #6587A7",
";X c #668AB6",
":X c #6996B9",
">X c #768FB6",
",X c #6894AB",
"<X c #6899C6",
"1X c #749BCA",
"2X c #6B96CD",
"3X c #72A4CD",
"4X c #639ACC",
"5X c #8F8F8B",
"6X c #A59D85",
"7X c #B18886",
"8X c #97AD90",
"9X c #A9A788",
"0X c #B6A98B",
"qX c #AAB784",
"wX c #B6B68A",
"eX c #ABAA94",
"rX c #B7AC95",
"tX c #BCB494",
"yX c #BCB599",
"uX c #BDBB9C",
"iX c #B8B694",
"pX c #AAB397",
"aX c #8F90AE",
"sX c #B196B0",
"dX c #96A6AF",
"fX c #BDB8A6",
"gX c #B1A9B4",
"hX c #C5B888",
"jX c #C3BB9A",
"kX c #C4B697",
"lX c #CBAF93",
"zX c #C5B9A4",
"xX c #D0B5AF",
"cX c #DDAA8A",
"vX c #B9C686",
"bX c #BCC697",
"nX c #BACF8F",
"mX c #B3C8B1",
"MX c #C7C588",
"NX c #C8C797",
"BX c #D6D799",
"VX c #D1CF8F",
"CX c #E3D59C",
"ZX c #C9C6A5",
"AX c #D5CBA6",
"SX c #CDD4A5",
"DX c #D1CFB0",
"FX c #EAE1A8",
"GX c #E7CEAA",
"HX c #8DA4D3",
"JX c #A0ADD0",
"KX c #CEABD0",
"LX c #BECFD5",
"PX c #CCD0D3",
"IX c #D2E4ED",
"UX c #E3E3E8",
/* pixels */
"y.y.Q.q.q.Y 8.I.8.P.I.P.I.&.` T.R.i.i.y.I.E.T.P.!.W.T.I.*.~.w.R.~.q.I.` T.T.y.a.R.E.E.I.T.7.I.&.&.I.I.} P.Y.U.Y.U.Y.Y.P.P.I.I.I.",
"Q.Q.9.7.T T q.I.Y.Y.P.P.T.I.T.T.I.I.Q.y.I.I.T.T.W.!.&.*.| | f.^.^.f.*.} ` T.i.e.E.&.E.8.Y.U.E.I.I.I.I.I.Y.Y.Y.U.P.U.Y.Y.I.Y.P.P.",
"Q.Q.0.9.7.7.0.Q.I.0.P.Y.Y.Y.P.I.` P.I.E.I.U.U.` ` P.} =.=.:.`.+.;.:.=.*.*.P.8.w.T.T.E.&.R.w.R.R.Y.I.Y.R.Y.Y.Y.0.0.0.0.P.I.I.E.I.",
"Y.U.Y.Y.Q.Y.Y.Y.Q.0.0.0.Y.I.Y.U.T.P.&.E.I.Y.' U.0.^.=.=.:.-.-.-.-.-.-. .*.*.| ^.=.^.=.^.e.w.w.Y.Y.Y.Y.Y.Y.Q.Q.Y.I.Y.P.Y.I.I.I.I.",
"P.P.P.Y.T.Q.Q.0.y.0.0.Q.Q.0.0.Q.T.W.I.I.P.P.Q.~.1.3 n @.;.-.>.>.+.>.%.]  .=.`.`.:.:.:.=.| 8.U.W.Y.Y.Y.Y.Q.Y.Y.U.Y.Q.I.Y.E.I.I.R.",
"I.P.I.P.U.Y.U.Q.Q.0.0.w.R.R.Y.R.Q.Y.Y.Y.P.P.E.a.n - - e O.>.+.%.%.%.,.] @.`.;.:.;.-.>.;. .e.' W.Q.Y.0.P.Y.Y.Y.P.I.Y.Y.Y.Y.R.I.R.",
"T.P.I.P.U.U.Y.Y.W./ / 7.0.Y.0.R.R.e.Q.U.I.&.=.=.G.m v ; e ] %.+.>.>.%.$.H.`.@.;.>.>.%.H. .s.R.w.Y.Y.U.U.U.U.7.7.9.Y.U.Y.Y.I.I.w.",
"&.I.I.T.Y.U.U.W.9.Y T / 8.P.Y.e.e.e.Q.Q.*.|  .@.;.%.m x x { %.O.O.$.%.O.L.O.O.;.>.>.%.%.[ s.a.w.Y.Y.0.Y.U.U.^ Y ^ 7.U.Y.R.Q.Y.0.",
"E.I.P.T.T.U.W.U.U.^ / Y Y U.R.P.R.i.!.q.| =.X.+.+.%.H.O.O.N c c c b c N c c O.'.;.`.'.{ 5 e.e.R.0.Y.Y.~.P.T.P.Y Y Y ` U.Q.U.Y.9.",
"Y.I.I.Y.U.U.T.U.U.U.^ 9.~.R.7.0.s.a.).i. .:.+.+.o.X.%.%.N c x v v l b N A c O.>.`.`.$.n I p.).a.R.R.7.R.Y.T.Y Y Y Y ^ P.U.Q.Q.Q.",
"0.I.Y.U.Y.U.U.P.U.U.U.Q.Q.y.~.p.).V.v.t. .o.o.o.X.;.H.N c N K cXlXx.v c b c %.'.#.$.m n w ~ 3.c.n.a.R.~.q.Y.Y.Y Y ^ ` U.W.U.W.W.",
"0.I.Y.I.Y.U.U.U.' 7.y.!.u.p.V.a.v.t.j.f.:.,.,.,.X.;.N c z K UXgXUXUXx.b v v H.#.$.6.M L.0Xl.f d W t.n.p./.y.9.9.T.T.U.U.T.Y.U.U.",
"Y.I.Y.Y.U.Y.U.Y.9.R.u.a.V.A.v.v.m.B.C. .o.o.o.+.+.H.N x A x.k &Xg xXcXv Z S F.H.'.{ L.K.CXlXwX2.W q 3.n.n.p.!.u.0.U.U.Y.Y.U.U.P.",
"Y.0.Y.Y.I.Y.U.Y.q.r.n.n.v.v.j.9XuXhXf. .o.o.o.+.#.$.x v D v i y y rXlXv x.z.f.'.G.F.K.G.hXjXjXuXZ.g.2.W A.n./.p.y.Y.Y.Y.P.I.I.I.",
"Y.Y.Y.U.Y.P.Y.Y.q.r.n.A.2.j.tXzX4.S w  .,.o.X.X.+.O.b v A 8 a * k xXG Z G 7 { `.%.G.G.K.K.jXjXfXfXrXg.j.s A.n.n.i.Q.I.I.I.&.P.&.",
"9.Y.P.P.P.Y.0.i.r.V.N.j.z.0XlXzXg.4.5.{ @.,.+.X.#.L.c v b v : : G rXZ Z t $ 5 @.'.'.K.6.D.0XjXzXfXrXfXg.k.! A.A.p.i.R.I.I.I.I.P.",
"Y.Y.P.I.I.w.a.n.A.Z.h.k.wXiX0XkXMX<.4.[ $.o.%.O.G.m x b b D Z H #XS Z p : * 7 [ [ 6.5.w v.NXhXxXjXyXZXrXk.6Xd bXA.r.R.E.E.&.T.&.",
"Q.U.P.&.I.w.V.A.Z.k.k.9XuXjXtX0XMXS.5.[  .>.-.] M M ; > v A K H H H > , : , 5.K.N.N.N.c.q 4.GXlXiXNXiXyXeXrXg.l.vXn.w.E.E.&.P.P.",
"Y.Y.} P.I.~.V.S.Z.k.9XpXiXjXtXkXwXNXN.5.{ ;.X...X.f.- 8 p Z F F J K Z : : 7 C.C.C.Z.v.c.v.W s NXNX0XyXyXeX6X6Xd qX(.q.w.I.P.U.U.",
"0.Y.I.P.e.a.A.qXZ.k.9XrXiXiXkXkXD.wXhXt.[  .+.+.+.H.5 = : t p F F B Z i 8 S _.C._.n.A.M.4.v.! q qXBXZ.NXyX6XeXg.c.vXu.w.I.Y.Y.Q.",
"0.I.I.I.R.~.A.qXz.l.rXjXuXrXkXkXkXD.VXB.[ { -.X.$.H.f.3 % * t r r r p : - 5.].`.V.A.c.A.v.c.c.) w Z.FX0X0X6XrXl.c.nXp.~.I.R.Q.W.",
"0.R.I.0.i.V.A.Z.l.l.zXfXuXyXlXkXjXZ.S._.d.[ @.+.+.%.+.G.n : , , : : : 8 p K.]. .d.n.A.M.c.M.8Xc.4.7 <.NXjXtX6Xk.h.NXn.i.0.Y.Q.u.",
"8.R.I.0.p.).qX6Xl.5XfXyXyXtXlXzXwXwXZ.MX].6.{ %.+.%.+.#.'.n v > p i f x.6.6.f.C.K.v.A.m.c.M._ c.t.j.<.D.AXrXZXk.h.bXV.u.0.Y.Y.Q.",
"0.R.8.w.~.).wX9Xl.l.zXrXyXtX0XkXiXbXrXN.CXK.{ %.%.+.#.$.f.D D G dXdXzXz.cXK.f.BXBXN.j.v.h.c.c.h.Z.MXNXAXkXrXrX5X9XnXV.i.0.Y.U.Y.",
"E.I.R.R.u.nXwX9Xl.G yXfXiXjXrXkXwXtXkX0XS.CX{ $.G.G._.nXSXDXUXIXLXJXsXfXNXFXFXCXFXMXN.4.c.v.S.VXNXNXwXkXrXkXrXl.9XnXV.u.w.I.I.P.",
"8.R.0.y.u._.vXfXeXG 6XuXyXyXkXrXtX0XfXlXD.K.@.{ K.D.nXLXUXIXIXIXIXJX X5X6Xz.FXVXB.4.4.S.VXBXVXhXtXiXhXjXzXkXrX6XbXqX_.i.R.I.I.I.",
"8.0.7.q.( t.NXtX0X5Xd eXiXtXfXzXkXkXrXrXK.C.F.{ D.rX) &XmXUXIXIXIX1X-X Xa ; D 6.B.K.VXVX].S.lXxXZXuXjXjXzXrX6X6XZXvX).q.R.} } I.",
"R.Y.U.q.( W SX9XrX0Xd l.rXeXrXzXxXkXkXwXMXK.F.{ F G i i k gXPXLX3X,X&Xj g.8 ; n hXNXK.wXwXkXxXxXzXfXZXzX0X6X6XZXNXnXn.q.E.P.} P.",
"Y.8.Y./ r.9 qXjX6XrX6Xd l.eXzXrXzX0XNXNXVXK.L.v > , g g t G $XaX:X,X|.5XGXK.b n x.lXzXyXkXzXzXfXfXfXuXeX6X6X0XZXNXA.a.e.0.8.I.P.",
"Y.^ 7.T 9.q 0 DX6X9XiXj.d g.rXrXzXrXjXkXhXB.v ; - f 5X}.h F h oX:XXXg sXK.m n D 0XxXxXzXrXrXpXpXpXfXeXz.9XtXkXZXAXW n.~.8.8.Y.Y.",
"Y.Y.Q.9.u.9 < Z.AX9X9XiXh.f d 6X0XkXtX0XcXD ; ; n GX7Xp V V }.2X;X*X|.7XD n S zXrXzXzXzXrXtXiXuXl.8XeXwXtXjXDXDXwXW Q ~.0.7.Y.Y.",
"P.Y.U.u.p.4 % 3 jXNXk.m.qX9Xg.f g.Z.eXfXkXx.b D J.GXG r V %X}.oX;X-Xh G D L.xXzXzXfXfXfXfXuXqX6XeX6X9XrXNXAXSXwXN.v.P ).~.Y.U.U.",
"T.U.0.p.r.< 3 $ f ZXZXk.m.wX9Xl.~ d ) eXiXlXZ A J.F l > C %X}.$X1X>X Xg S cXcXxXzXfXfXzXpXeXz.6XeXpXeXtXDXSXvX3.v.t.Q (.u.Q.Y.} ",
"P.Y.y.p.1.< 3 7 % 0 9XDX9Xg.iXwX6Xk.k l.l.z.A A J r r B C +X}.oX>X.X.Xg Z x.0XrXeX6X6X5X8X6XeX0XpXbXzXZXNXS.v.I t.3.P n.u.u.E.E.",
"T.Y.R.p.W < 3 $ $ # $ k.DXZXpXz.0XrXzXeX6X5XA v B l B B V %X}.aX;X;XoXg Z S z.z.k.6X6X9XeX9XrXiXbXNXAXhXZ.h._ ( r.! P n.p.y.8.&.",
"T.T.0.n.q < 3 % % @ $ 1 a 6XZX0Xz.z.0XrXfXrXcXD A l B B C %X}.oXoX.X{.g f p z.9X6X6X0X0X0XiXbXNXNXhXB.B.v.r.( R ! Q 3.).a.y.R.} ",
"&.I.0.~.P 3 1 + @ * . @ 2 1 a k.jXiX0XZ.8XZ.lXZ b A B r r t }.;XXX[.XX XG S 9XqX0XwX0XlXNXNXNXhXB.B.K.f.d.t.( R ~ E t.).s.q.~.I.",
"I.E.w.n.L 6 $ + @ & O @ & # $ 3 8 g.Z.iXvXbX0Xv z A B , , t ;X<X[.[..X&X5X9X9XqXwXNXAXAXhXS.B.d.f.C.].K.a.r.( R E 9 v.C.a.e.Y.Y.",
"&.E.R.p.P < $ . & X & O O # 2 2 3 7 w w 3.S.lXD l A A B h aXHXXX[.2X3X-X&XZXpXnXwXNXlXhXN.N.d.f.K.].].C.t.r.~ L a Q _.a.~.R.7.' ",
"&.I.0./.Q 6 $ o & & & X O # 2 6 f w 8 5 5 w x.Z l v l > &X>X:X*X{.2X:X>X X8XqXv.N.B.B.B.C._.].C.[ f.]._.r.! E a 9 M.VXs.e.R.` T.",
"} E.0.i.1.6 0 + X @ X & X O 1 6 s j.4.<.w w w S > 8 Z i -X3X:X{.XX;X2X<X|.) ! 3.3.N.<.B.BX].f.f.{ _.].u.1.~ ~ 0 h.NX_.e.w.P.T.` ",
"T.I.0.i.b.4 9 # . X X X + O 2 2 0 3.v.d.[ [ <.S v v p  X3X:X*X[.XX=X2X;X|.&X~ ! t.V.5.d.].C.e.6.C.VXV.I ! ~ a g.vXVXV.w.E.I.T.T.",
"E.} I.0.i.P 0 0 . . O X X O 2 2 1 L W 1.q 5 w S x.g. X<X3X:X*X[.XX;X<X:X&XR ~ Q t.v.4.d.).s.[ d.].d.W Q ! E ~ 9XSX_.~.8.T.T.` ' ",
"I.P.~.Y.R.( 6 ! 7   X X X + + 1 1 6 < 6 4 w 0 q j.l.-X4X:X,X&Xu .X<X1X:X-Xj ) 3.r.r.t.1.i.[ I C.].5.P E ~ a j.BXVXV.a.e.T.T.` ` ",
"Y.Y.I.P.~.p.4 q qXa = o . #   @ # 2 0 6 7 w S 5.l.k ;X3X3X,X[.j *X=X<X<X;Xj ~ ~ 1.! r.! 1.s.I K.VX4.I 9 a ~ vXFXS.e.w.I.I.T.U.U.",
"9.Y.P.P.I.R.e.4 v.bXg.1     O + # # 2 2 7 2.5.4.h. X<X3X4X*Xu j *X<X2X1X<Xj R W Q ! R ~ R Q q S.].[ 0 9 s qXSX_.p.q.R.0.P.E.I.T.",
"U.Y.T.P.&.I.).[ 3 m.DXeX7 .   O O @ 2 & 2 3.t.5.j &X1X<X4X*Xu j *X<X2X3X<X|.a P R R R R L P q 4.C.1.4 W qXSXA.V.w.I.I.I.0.R.Y.Q.",
"!.U.Y.T.E.I.P./.I < h.SXfXa o @ @ O & # 6 h.d.2.j :X1X<X4X*Xy j *X=X2X3X3X&Xy 0 9 9 9 L L E 9 3.VX5.2.vXBXA.n.i.I.I.P.P.R.w.0.I.",
"Q.Q.U.U.P.8.7.0.i.Q 3 r.SXNXd o X @ O O $ ) 4.) |.<X3X2X2XXXy j *X4X:X:X3X-Xu 2 6 0 0 9 a 0 2 d N.K.NXvXV.t.i.q.7.7.U.Y.Y.0.0.R.",
"Q.Q.Q.Y.T.T.U.I.P.).I < P qXZXl.@ o X   # h.! s &X1X3X2X2X|.y [.,X:X3X3X1X,Xj y 0 0 R 0 2 0 s h.NX_.V.V.a.q.q.q.7.7.U.Y.Y.I.w.I.",
"9.U.U.Y.P.Y Y Y T 0.).Q 3 < W wXMXW 3   % k.8X) =X3X3X2X;X[.y |.=X4X1XHX3XHX.Xy 2 2 6 7 0 j.jXSXvXn.r.s.i.q.T T 7.7.U.U.I.I.I.E.",
"Q.Q.W.Q.T.` Y Y T.0.q.p.u.I < 4 1.A.wXz.w S j j *X3X3X4XoX[.u .X=X4X:X3X3XHXaXg 2 a g.9XVXBXS.m.n.r.s.p.p.0.7.} P.P.U.Y.Y.0.E.0.",
"Q.Q.Y.Q.T.U.T.T.Q.U.~.9.p./.r.4 3 5 W wXMXmX&X*X4X3X3X4X;Xu [.oX=X4X<X3XJXJXsX@XsXxXGXDX].v.t.a.p.u.!.Q.Q.0.Y.T.P.Y.Y.Y.Y.I.R.E.",
"0.9.9.U.U.U.P.T.` T.` U.!.q.~.~.s.P 5 7 <.pX|.*X1XHXHX;X X[.|.;X=X:X>XaX$X$X%X%XF F 7XkXV.s.8.0.u.u.Q.U.7.U.P.Y.P.Y.Y.I.Y.w.I.8.",
"~.I.Y.Y.T.U.T.W.T.' Y ~./ / / q.i.a.V.I w q ) |.@X$X$X@X}.h &X X@X X@XOXOXOX+X+X#XF F z.f.e.I.P.W.W.W.W.T.Y.P.P.P.Y.Y.Y.0.I.Y.R.",
"I.8.8.Y.U.U.P.U.U.U.Q.^ ^ T / 7.Q.u.q.).).P &Xj h V V V Z @X5X XaXaX#X@XOX+XF +X#X#Xp G V.w.&.T.U.' P.U.I.P.&.Y 8.7.Y.0.Y.I.I.P.",
"8.8.R.I.8.U.U.U.U.W.W./ U U Y / W.!.y.i.i.n.8Xk V C +X+XV F k.k 5XaXdXgXJXgXsXxXgXgXgXl.b.p.q.Q.Y.U.P.P.P.I.8.7.P.I.Y.Y.U.Y.P.U.",
"8.E.I.8.0.Y.Y.Y.Q.Q.^ U U U / !.' W.U.I.E.Q.(.k r %X+XC V p k._ c.8X8X8XdXgXmXKXLXLXLX) _ ~.!.U.0.P.8.I.I.I.8.8.I.0.0.Y.0.U.Y.P.",
"E.8.I.0.Y.P.Y.Y.Y.Q.9./ T / 9.Q.U.P.&.&.E.q.b.a @XOXOX#X@Xf 3.(._ c.M.8X8XpXmXPXLXLXmX) ( W.^ ` P.8.I.I.I.8.R.I.R.y.9.U.Q.Y.U.U.",
"e.E.0.I.I.0.0.Y.U.Q.Q.Q.u.W.Q.u.P.T.&.&.8.q.b.a @XKXKXKXsXk Q Q.b.!.b.b.M.8X8X8XmXmX8X_ b.^ U U 7.8.e.I.E.I.Y.I.Q.y.u.U.u.U.Y.Y.",
"Y.U.Y.Y.Y.Y.Y.0.Y.Q.Q.I.U.Y.Q.Q.9.Y.T.P.Q.u._ a 5XgXgXgXsXk Q n.p.u.Q.9._ ( / _ U L Q U !./ U Y 7.8.8.I.Y.Y.Y.Q.!.u.^ / U.Y.Y.Q.",
"U.Y.U.7.P.Y.I.P.I.I.I.P.Y.Y.9.U.0.Y.Y.9.Q.b.M.~ ) 8XmXmXdXf Q ~.u.Q.P.P.` ' ` ` Y T Y / ' ^ ( ( q.8.Y.0.Y.U.W.W.^ / / / u.0.Y.0.",
"W.W.^ / Y I.T.} I.I.I.E.R.Y.Y.9.w.I.I.P.Y.y.b.c._ (.qX(.c.b./.Y.Y.I.*.&.Y.W.W.!.P.P.U.u.!.!.Q.y.0.Y.U.Y.T.T.' !.!.( Q / u.y.y.y.",
"W.W.' U T P.T.I.I.I.P.I.T.I.I.I.R.P.Y.T.Y.q.!.b.(.' !.' (.b.W.P.E.&.} *.Y.y.W.U.U.7.Q.!.u.y.y.Y.Y.Y.7.U.W.W.W.' ' / U U q.y.R.w."
};
