/* XPM */
static char *a305981690a7458686c79141c36be27689aWyEqSRrk8kvGh[] = {
/* columns rows colors chars-per-pixel */
"64 64 249 2 ",
"   c #351E09",
".  c #371E26",
"X  c #34332B",
"o  c #282E17",
"O  c #4F310C",
"+  c #702E09",
"@  c #4D3232",
"#  c #6B352F",
"$  c #4A1831",
"%  c #32463D",
"&  c #524710",
"*  c #6F4C11",
"=  c #5D5934",
"-  c #714D32",
";  c #75702B",
":  c #6F7318",
">  c #3F3C4D",
",  c #683946",
"<  c #752E4F",
"1  c #713A61",
"2  c #5A2E4D",
"3  c #355F75",
"4  c #3C6A74",
"5  c #53494A",
"6  c #6F4E51",
"7  c #556F4D",
"8  c #766652",
"9  c #59566B",
"0  c #734D70",
"q  c #57767B",
"w  c #516D72",
"e  c #6F7570",
"r  c #91392F",
"t  c #945017",
"y  c #A84F15",
"u  c #AA6C14",
"i  c #874726",
"p  c #995627",
"a  c #914B31",
"s  c #A9512B",
"d  c #917331",
"f  c #AD7432",
"g  c #8B7514",
"h  c #C55B2D",
"j  c #C07E32",
"k  c #893250",
"l  c #983A75",
"z  c #8C3669",
"x  c #A63B75",
"c  c #A13C40",
"v  c #965848",
"b  c #854F55",
"n  c #AD5B4B",
"m  c #897955",
"M  c #946755",
"N  c #B16652",
"B  c #8B4D70",
"V  c #AB4E7A",
"C  c #8A6B6E",
"Z  c #B3736C",
"A  c #C87176",
"S  c #C25349",
"D  c #759B2C",
"F  c #6AA738",
"G  c #73AB35",
"H  c #76AC39",
"J  c #75B13B",
"K  c #7AB33D",
"L  c #7ABA39",
"P  c #6FA82F",
"I  c #579A30",
"U  c #7EC33A",
"Y  c #5A8753",
"T  c #769858",
"R  c #6B9253",
"E  c #77AC42",
"W  c #7BB542",
"Q  c #7DBA44",
"!  c #7DBC4B",
"~  c #77B547",
"^  c #7ABB55",
"/  c #72AC52",
"(  c #558578",
")  c #558A7A",
"_  c #659878",
"`  c #6F8B6F",
"'  c #77A878",
"]  c #7BB46B",
"[  c #7CC648",
"{  c #7EC352",
"}  c #AE8F17",
"|  c #8D8E33",
" . c #AE9030",
".. c #88BA3C",
"X. c #98BA39",
"o. c #94AA2E",
"O. c #A8B83A",
"+. c #B6B73A",
"@. c #AFAE2B",
"#. c #959913",
"$. c #CAB91C",
"%. c #D6B81A",
"&. c #D1B114",
"*. c #C69C34",
"=. c #C9912D",
"-. c #C9BB29",
";. c #D8B828",
":. c #DCA83B",
">. c #C8BA36",
",. c #D9BA36",
"<. c #CAA832",
"1. c #E3B634",
"2. c #8CC23C",
"3. c #88C439",
"4. c #98C137",
"5. c #9DC228",
"6. c #A7C239",
"7. c #B6C52E",
"8. c #D8C12B",
"9. c #DAC536",
"0. c #D0CB31",
"q. c #E4C732",
"w. c #D9C11F",
"e. c #929150",
"r. c #A99253",
"t. c #98AD48",
"y. c #84BD45",
"u. c #8ABE46",
"i. c #84BD4A",
"p. c #8BBE4B",
"a. c #85B64A",
"s. c #94BD43",
"d. c #92BD4C",
"f. c #99BA49",
"g. c #83BD52",
"h. c #8CBE51",
"j. c #87B758",
"k. c #93BC53",
"l. c #98B957",
"z. c #8FA957",
"x. c #A7BD45",
"c. c #A2B755",
"v. c #B7B449",
"b. c #8D9071",
"n. c #B39374",
"m. c #87A764",
"M. c #89B967",
"N. c #94B767",
"B. c #97A67A",
"V. c #98B67A",
"C. c #90B172",
"Z. c #ABB06D",
"A. c #D19142",
"S. c #D8BA44",
"D. c #C8B658",
"F. c #D1B04F",
"G. c #E5B847",
"H. c #E0BE50",
"J. c #CA8B76",
"K. c #85C244",
"L. c #8AC246",
"P. c #86C24A",
"I. c #8AC24B",
"U. c #86C949",
"Y. c #93C344",
"T. c #92C34C",
"R. c #97C647",
"E. c #85C353",
"W. c #8BC352",
"Q. c #8BC25A",
"!. c #86C756",
"~. c #92C353",
"^. c #95C855",
"/. c #A8C647",
"(. c #B0C54E",
"). c #89C365",
"_. c #93C969",
"`. c #C7C847",
"'. c #D9C445",
"]. c #D7C658",
"[. c #E7C845",
"{. c #C9C66B",
"}. c #2A5385",
"|. c #38678B",
" X c #785187",
".X c #5A7B8B",
"XX c #4E7091",
"oX c #6E6F8F",
"OX c #587DA6",
"+X c #4B70A5",
"@X c #767BAD",
"#X c #AB3F86",
"$X c #9A3E81",
"%X c #994988",
"&X c #864E88",
"*X c #A34585",
"=X c #8B6D90",
"-X c #AA759E",
";X c #8779A9",
":X c #AC7AA0",
">X c #C15797",
",X c #578586",
"<X c #538994",
"1X c #698F93",
"2X c #71A786",
"3X c #4E84A5",
"4X c #5787A9",
"5X c #5B89B3",
"6X c #5996B3",
"7X c #6599AC",
"8X c #6489B8",
"9X c #6698BA",
"0X c #738EB1",
"qX c #5EA3BD",
"wX c #6AA1B6",
"eX c #5C98C3",
"rX c #6797C6",
"tX c #749AC9",
"yX c #6E95CC",
"uX c #5FA2CE",
"iX c #6BA5CA",
"pX c #78A5CA",
"aX c #73A8D4",
"sX c #8E8F8E",
"dX c #AE908A",
"fX c #96AA8F",
"gX c #ACAE93",
"hX c #9094B4",
"jX c #A99AA8",
"kX c #AE8AAD",
"lX c #98A9AD",
"zX c #ACB1B0",
"xX c #D0B590",
"cX c #DAB6AE",
"vX c #E2A9B9",
"bX c #B2CBB4",
"nX c #A9C386",
"mX c #D5C9A7",
"MX c #9090C3",
"NX c #87AACF",
"BX c #B5B0C7",
"VX c #CABAD2",
"CX c #B8CBCF",
"ZX c #CBD0D5",
"AX c #F1D8D1",
"SX c #CFD7EA",
"DX c #D0E5EA",
"FX c #EBE5EC",
"GX c #F2E8DE",
/* pixels */
"I.I.h.i.W W i.W.i.P.I.I.L.L.L.L.L.L.I.Q.k.W.K.K.I.W.y.^.^.c.X.6.6.X.4.U [ [ U.R.U.[ [ U.!.W.Y.3.2.L.u.L.I.I.I.P.I.I.I.I.I.L.I.Y.",
"W.h.p.W J W y.p.P.I.P.L.L.L.L.L.L.L.I.T.Q.p.K.I.P.I.Y.X.X./.7.0.(.7./.X.U.[ 2.X...y.K.P.h.k.Y.2.L.L.Y.I.I.I.I.I.I.K.u.I.L.I.I.I.",
"W.W.I.y.W y.i.W.I.P.i.P.I.U.L.L.2.3.3.3.U.U.P.W.E.^.O.7.0.w.q.8.0.8.S.+.Y.2.X.6.6./.R.Y.s.d.L.L.L.I.I.I.I.I.P.P.P.P.L.I.I.I.L.T.",
"p.I.W.I.W.P.I.W.I.P.P.I.T.Y.L.U.L.U.3.3.K.[ E.h.j.o.+.9.$.q.q.%.8.q.S.@.O./.6.0.'.`.(././.s.u.I.I.I.I.T.I.I.I.I.I.P.I.u.p.I.I.L.",
"u.I.I.I.I.I.I.P.P.p.P.I.I.I.I.I.j.W.L.2.I.p.E.~.:   + } [.<.;.1.$.q.:.} @.`.9.9.9.'.'.`.O.s.P.!.I.I.I.I.I.I.W.P.W.U.I.I.I.I.I.I.",
"I.I.I.L.I.I.P.P.I.i.P.I.I.I.I.~.Q.Q.I.Y.s.s.Y.x. .* + O } G.:.1.q.1.1.:.D.].,.9.9.9.q.[.+.X.u.E.I.L.P.P.P.I.P.P.P.P.I.I.I.I.I.I.",
"I.I.I.I.I.P.I.W.i.Q W y.I.I.I.I.Q.h.d.2.2.4.5.0.H. .t t O  .G.G.G.G.1.G.].<.@.;.9.9.[.S. .o.d.u.I.I.y.I.P.P.P.Q P.P.I.E.I.I.I.L.",
"L.L.L.I.I.I.P.I.i.W G W i.I.p.p.h.h.Y.2.2.5.$.8.;.G.A.u f A.j f u =.=.u f  .=.8.0.8.[.>. .| c.p.p.I.I.I.I.P.Q W Q i.P.I.I.I.I.I.",
"L.Y.L.I.I.I.I.W.y.W J K y.W.I.p.d.T.K.U 5.7.$.%.;.;.;.:.A.y y p i p y h s y } [.q.,.[. .: X.f.f.I.I.I.I.I.W.P.J Q Q P.P.I.I.I.P.",
"L.L.I.I.I.P.I.P.W.I.i.i.p.I.p.u.T.T.U.3.5.$.;.%.$.&.;.&.y s r s v i s h h y =.[.1.[.*.g D ^.f.^.I.L.P.P.P.P.y.K J K Q P.I.I.I.I.",
"U.Y.I.U.I.P.I.W.I.i.I.I.W.I.I.p.I.L.3.4.$.w.$.;.8.8.;.y y h AXAXAXcXs n s s :.G.:.:.u g u.U.Q !.I.I.I.I.P.W.P.Q W Q y.P.I.I.I.I.",
"I.I.I.I.I.I.P.W.y.i.P.W.I.I.I.I.K.3.4.7.$.w.%.;.-.9.=.y s dXcXsXzXGXcXa a a G.G.S. .|  ./.U { { I.I.W.I.I.U.W.P.I.P.I.I.I.I.I.I.",
"I.I.I.I.I.I.P.I.i.i.i.I.I.p.I.u.K.3.O.@.%.&.%.;.-.S.t t n Z = ,X% zXcXv v n.*.'.'.@. .x.x.s._.{ P.u.I.I.u.I.I.I.y.I.I.u.I.I.I.L.",
"I.I.I.I.I.P.W.P.y.y.i.P.I.I.I.I.L.X.o.$.%.%.%.;.,.=.u r N b % o 9 gXdX6 n.m v.'.'.F.o.O.x...! { P.L.I.I.I.I.I.I.I.I.I.I.I.L.u.u.",
"I.I.Y.I.P.W.I.I.K Q y.I.I.I.I.I.d.d.X.@.%.w.%.%.;.=.t s n # 5 X 8 xXZ v 8 O  .].S.9.+.O.X...H ^ I.L.I.Y.I.I.W.I.I.I.I.T.I.u.L.u.",
"p.I.I.I.p.W.P.u.K Q y.I.I.L.I.I.d.u.X.@.$.w.%.;.,.*.t r N v # 5 sXdXv a @ o &  .F.'.(.o.D ..E ~ I.u.I.I.I.I.U.P.I.P.I.I.L.I.L.L.",
"~.I.h.p.I.W.T.I.y.y.K.U.L.K.K.L.p.T...o.$.8.8.}  .f * a n S N Z Z v v - @ X = | | | D G H W a.p.I.L.I.I.K.I.I.I.I.I.I.I.T.I.L.L.",
"p.W.I.p.p.I.I.I.K.K.K.y.L.L.U.K.T.d.L.o.$.;.&.} } f O i r N A Z A A #   . X e.Z.z.l.h.E.I.W.h.p.W.L.I.L.K.R.I.I.I.I.I.I.I.I.L.L.",
"p.u.I.u.I.I.I.I.U.W.P.P.U.U.W.P.P.! !...#.8.8.&.,.<.O O 6 b b B *XV B # 6 8 Z.x.s.s.I.P.I.p.p.p.I.L.I.L.W.^.I.u.I.I.I.I.I.I.I.U.",
"u.K.L.K.P.I.P.U.P.P.K.[ P.Q Q E.i.! P.R.#.-.;.;.;.S.d   $ , 1 0 B z 0 , - i ].+.X...3.L.p.W.~.I.I.L.I.I.^.^.I.K.u.u.p.I.I.I.I.Y.",
"K.3.K.L.K.L.P.K.Q U.{ W F E ! E.Q L ..R.o.@.-.;.;.,.D.; O . X 2 2 6 5 - O | ].(.5.3.L.Y.T.~.d.u.I.Y.I.u.~.^.y.a.y.y.u.I.I.I.I.p.",
"K.L.U.K.K.U.K.[ J P.i.F I ~ E.E.W G U 2.f.o.>.;.;.;.S.D.e.# @ $ @ @ o & ; Z.].v.X.L.I.Y.T.d.p.y.I.I.I.i.I.I.H K a.i.I.p.I.I.I.L.",
"L.L.L.U.P.P.P.K.J ! Q F F ~ i.i.Q Q [ U U.| @.;.%.1.-.,.F.N a # 6 R ` m.Z.e.t.t.h.h.W.d.~.T.E.P.I.I.I.u.W.y.G K y.i.I.I.u.I.I.I.",
"L.K.L.K.I.I.I.i.P.P.y.i.! U.g.W.i.U.[ U.^.f.#.,.;.;.>.F.D.n J.n.gXfXbXnXz.N.H j.~.h.g.u.p.p.P.P.y.I.I.I.^.y.P K y.I.W.I.u.I.I.T.",
"I.P.I.p.p.W.p.W.I.W.I.P.I.u.I.p.T.T.i.W.~.f.#.>.D.v.{.mXmXAXFXSXZXzXsXgXnXN.M.!.I.I.P.!.P.y.U U.u.I.I.I.W.I.p.I.p.p.u.I.I.I.I.u.",
"I.h.Q.p.p.~.p.I.I.I.I.I.I.I.I.I.u.d.Q.W.d.R.#.<.D.xXnXbXFXFXSXDXSXCXoXsXgXe.j._.d.I.U.U.K.K.K.2.L.I.I.y.I.W.p.I.W.I.I.W.W.I.I.I.",
"~.k.p.E K p.I.~.T.p.p.I.L.I.L.K.P.! I.P.L.(.@. .n.gX` sXZXSXDXDXSX0X1Xe 5 & ; e.f.T.K.L L ..3.L.I.I.y.I.I.I.u.W.W.I.I.p.u.u.u.I.",
"h.h.~.i.i.~.~.I.T.I.L.I.L.u.u.y.P.[ U.y.Y.(.<.f m 8 > > 0 lXZXCXaX5X4Xe B.d * p t.I.3.L L ..L.Y.L.u.K.^.^.~.i.I.I.I.u.u.y.y.i.u.",
"h.p.p.W a.I.I.I.I.p.L.U.L.L.K.3.U.L y...O.v. .r O 5 9 9 1  XsXtXiX4X4 ` Z.r.N p z.t.T.Y.u.Y.T.p.I.L.I.T.^.I.y.I.I.I.I.I.i.u.I.I.",
"W.i.Q G P Q I.W.I.I.I.L.Y.U.I.L.L L y.u.R. .p + O 8 sX0 0 0  X0X8X<X4 sXZ. .p m c.k.d.T.R.s.u.p.I.I.I.I.I.I.u.I.I.I.I.I.I.I.L.I.",
"I.P.U.K.y.U.I.I.L.I.I.I.I.P.I.U.L L y.d.c.d i + e.Z.sX2 l %X X@X9XOX9 sXe.g D x.l.~.k.d.k.d.[ [ K.I.L.L.I.u.u.I.I.p.u.I.I.L.L.L.",
"I.K.I.I.I.I.P.I.P.P.P.P.I.P.P.K.U U.L.p.l.| p f Z.Z.C , l %X X@XyX8XoX8 d d (.y.I.I.p.h.k.d.[ U ..L.I.I.I.I.u.I.I.I.L.I.I.L.I.L.",
"L.L.I.I.P.W.W.E.E.P.P.P.P.I.L.L.3.K.^.p.Y.e.p s n.M < < $X$X&X;X0X5X.X9 d A.~.{ U.[ P.I.T.T.u.L.I.I.I.I.P.P.I.U.I.I.I.P.I.I.I.u.",
"I.I.I.P.P.I.i.i.W.I.E.P.y.P.L.K.K.L.I.i.U.l.p n M # # k x #X X@XyX5X4X9 i r.h.!.P.[ P.L.u.Y.u.p.T.I.I.I.I.I.P.P.P.I.P.K.u.I.I.I.",
"I.U.I.K.P.W.i.! i.i.P.P.I.P.I.L.Y.Y.I.P.^.^.e.a a # k k z $X XMX8X5XOX9 - d k.{ U.[ I.I.u.T.p.p.u.i.y.u.P.P.y.K.P.P.I.y.y.u.u.I.",
"I.L.P.I.U.W.P.i.~ Q y.y.P.L.I.Y.s.R.I.E.~.l.r.d t r k z l $XoX8X8XOXXX9 8 ; k.! P.P.W.u.u.I.~.W.u.u.I.Y.I.P.K.y.y.P.I.P.y.u.I.T.",
"Y.I.L.I.W.W.P.! J E Q y.I.I.I.I.s.d.P.P.p.l.Z.; s c r < < 2  X@X+X}.|.,Xe.; j.!.Q y.h.y.a.i.h.W.I.I.I.I.y.K K J y.P.I.P.u.u.I.I.",
"I.U.I.L.P.I.P.Q J K y.K.I.I.U.Y.d.p.U.U.d.f.l.* y S k < $ > 8XyX}.3 4X1X` B.j.^.a.a.i.a.J Q i.h.u.I.I.u.Q K G G y.y.P.I.I.I.I.I.",
"L.I.I.L.P.I.P.P.Q i.i.i.I.I.I.I.W.Q ~ K.L.Y.z.: r S c k 0 hXaX5X|.OXpX1Xe V.M.!.p...K J J Q i.g.W.I.I.W.I.P.K.y.y.K.P.I.I.I.I.L.",
"L.I.I.I.P.I.W.P.I.I.I.I.I.Y.L.I.u.J W [ U.L.^.: r r r k oXwXiX|.+XyX9X7X) ] ).U.d.H H G K P.P.W.I.u.u.u.I.I.I.P.P.I.I.u.I.I.I.u.",
"I.I.u.I.I.P.I.I.I.I.I.P.I.I.I.I.Q Q E J [ W.K.| * a - 6 0XpX9X|.|.rX9X7X( ' ).!.L...H ..K.P.P.W.I.I.I.I.I.I.I.I.I.I.I.I.I.P.I.I.",
"L.I.I.I.I.I.U.W.U.P.I.I.I.I.I.Y.I.P.i.a.i.W.U.p.= = 6  XwXrXOX3 +XeXrX7X) ' ).U.I.s.y.y.L.I.P.E.i.K.P.K.I.T.W.I.I.I.I.I.I.I.I.P.",
"p.I.u.u.I.I.I.I.I.I.I.I.I.I.I.I.I.P.I.p.h.W.U.I.M.b.oXMXNX7X.Xw OX9X9XwX,X_ ).P.L.s.s.T.L.K.P.P.K.P.I.P.I.I.~.I.I.p.I.I.I.I.I.I.",
"L.p.L.I.I.I.I.I.L.I.I.I.I.I.I.L.K.L.p.~.k.I.[ { ).' 5XyXrX7X.Xw OX5XrXwX<X_ M.P.L.u.L.Y.L.K.P.I.I.I.I.I.I.I.I.I.u.I.I.p.P.I.U.I.",
"u.p.I.L.L.I.L.K.I.L.I.I.I.L.I.I.s.u.u.I.h.I.K.{ ] <X6XtXrX9X4 q OX5XtXtX4X_ ).h.I.L.I.Y.L.L.I.E.I.P.I.I.I.u.p.p.p.u.I.u.I.I.U.I.",
"I.L.I.I.I.I.K.I.L.I.I.I.I.T.I.I.T.I.L.2.L.I.U.!.2X) qXiXyX4X4 ,X3XeXtXtX0X,XM.I.T.L.u.s.s.L.I.P.P.K.P.P.I.I.u.I.p.u.I.I.P.I.U.P.",
"I.T.T.I.I.I.L.P.I.L.I.L.I.T.I.I.W.E.U.3.X.2.T._.2X<X9XtXiX3Xq 1X3XeXyXtXwX,XM.Q.I.I.I.u.p.I.u.i.Q K.K.I.I.I.u.p.I.p.I.I.I.K.I.K.",
"u.I.I.I.I.K.I.L.L.I.L.I.L.u.I.I.{ !.3.3.2.f.l.C.,X6XiXiXeXXX( 1X3XrXyXtXNX.Xm.).P.L.T.I.Y.I.W.E.P.! P.I.W.P.i.I.u.I.I.I.I.I.P.I.",
"I.P.P.I.I.K.y.P.K.L.u.K.L.L.y.y.!.E.3.3.^.^._.] <X9XaXiX9X4 ,X) 3X9XtXtXaX1X` _.d.L.p.I.I.K.! ~ { ~ ~ ~ ~ P.Q K.i.i.h.I.I.I.I.I.",
"W.P.W.I.I.P.P.L.y.K.I.L.I.L.L.I.P.I.K.R.W.W.] _ 3XrXiXrX6XXX_ ( 7X9XrXyXtX1X_ M.W.T.I.I.U U ~ ~ ~ I / ~ { P.J W y.i.p.I.p.I.I.L.",
"P.P.P.P.P.Q K K Q K.K.y.I.I.I.I.L.K.Y.R.2.a.fX) 6XuXiXqX5X|.1X.X4X9XaXaXaX0X1X] M.P.I.K.y.L ! ^ I I F [ { Q G J y.i.p.W.Y.I.L.L.",
"W.W.I.U.P.y...L y.I.I.y.I.I.I.I.L.2.L...H ~ _ ,XqXuXiXuX4X|.oX.X5XeXuXyXNXNX0X2XV.).I.L.K.P.^ { { F ~ [ P.P.L y.u.p.I.I.I.I.L.L.",
"I.I.I.I.I.I.I.I.I.I.P.P.W.W.W.I.T.p.u.y.L ] ( 4XeXuXaXeX3X|.XXOXeXrXrXyXNXBXhXb.B.Z.k.s.s.I.k.M.^ { !.P.P.P.K.I.I.I.I.I.I.I.L.L.",
"L.y.u.L.I.I.I.U.P.i.i.P.W.i.i.W.p.p.k.p.[ ] w 5XiXaXNX0XXX3 +XOXeXyXtXMXMXjX=Xe C e.r.c.R.p.!.Q.{ { W.I.K.P.P.P.I.I.I.I.I.I.L.L.",
"I.I.L.I.U.L.I.I.P.i.i.i.! ~ E g.p.h.E.E.!./ .X@XMXMXkX;Xq w .X.X@X@X;X=X%X%X*X*XV B M r.c.I.[ [ !.W.E.W.I.L.I.L.I.I.I.I.L.L.L.L.",
"L.u.L.I.L.I.I.I.I.I.E.E.i.E E g.h.h.U.{ { Y e oX X X&X1 C sX2X1X0X;X&XB B *X*X*X>XV 0 e.c.Y.[ [ !.i.y.I.W.K.y...y.u.P.L.I.L.U.L.",
"L.L.I.L.K.L.P.L.I.W.E.W F G ~ a.d.R.U.[ [ ).fX6 z x #Xx 6 Z B.e jXhXjXjXkX-X-X-X-X=XdX` z.^.p.u.I.I.p.u.L.u.K.y.u.I.I.P.I.P.L.K.",
"I.I.L.L.L.L.I.P.W.I.y.F F F ~ g.u.L.U.[ U.M.gX6 z #X#Xx k b r.e sXsXfXjXzXVXVXZXSXZXVXsXm.N.h.a.d.p.u.L.L.L.L.P.W.p.P.I.P.I.L.K.",
"I.u.y.I.I.P.I.I.I.I.P.W H W i.W.I.u.P.P.P.j.B.8 1 l $Xz B C B.Z.B.B.B.fXlXBXBXVXZXSXBX2XR j.j.j.p.u.L.I.L.I.I.I.W.p.i.i.I.I.I.L.",
"I.I.L.I.I.P.P.L.P.I.I.P.i.E.W.I.Y.L.W.g.P.h.z.8 :XkXvXkX:Xe b._.l.M.C.B.lXlXzXbXbXCXCXfXm.j.E F i.p.I.I.L.I.P.I.I.E.g.W.E.I.I.I.",
"I.P.I.P.I.I.P.P.I.U.I.P.I.P.W.I.T.d.~.a.i.h.z.7 sXBXBXBXlXq R _.!.U.E.^ ] ] / m.j.T ] T j.a.D G a.y.s.I.I.P.I.W.h.i.i.g.g.E.u.I.",
"P.W.P.y.K.I.U.L.I.K.P.P.I.I.I.p.p.I.~.p.I.k.~ 7 fXBXCXlXlX7 R !.K.3.K.U.[ ! Q ! H F F E W.u.H ..y.y.u.I.I.P.E.W.g.~ ~ / i.h.p.W.",
"E.U.i.J K P.I.K.L.I.I.R.I.Y.L.u.L.L.W.K.I.~.j.T ' fXzXnXfXR E ~.I.P.L.L.L.L.y.I.I.g.^ !.Q.W.! i.u.I.I.P.I.P.P.E.E.E E E i.I.Q.p.",
"I.W.y.G J P.W.K.I.L.L.L.I.L.I.I.W.L.U...L.T.^.N.V.fXfXfXV.N.~.T.I.I.p.u.Y.2.L.I.u.W.).Q.j.g.!.E.W.I.y.I.P.I.W.E.!.E F F a.Q.W.p."
};
