/* XPM */
static char *dd69e6188dae44d4e45b555b6bc37260xjTXzI9okzS62HiK[] = {
/* columns rows colors chars-per-pixel */
"64 64 250 2 ",
"   c #371D16",
".  c #3A3638",
"X  c #362A2C",
"o  c #562D15",
"O  c #6A3819",
"+  c #733D1C",
"@  c #773A16",
"#  c #6A310D",
"$  c #472C27",
"%  c #4B352A",
"&  c #593828",
"*  c #4B3A38",
"=  c #583D35",
"-  c #552F26",
";  c #673B26",
":  c #733E22",
">  c #6D431D",
",  c #73421C",
"<  c #7A431A",
"1  c #5C412A",
"2  c #4A443B",
"3  c #594439",
"4  c #6C4224",
"5  c #6C432C",
"6  c #674428",
"7  c #734424",
"8  c #7B4524",
"9  c #74452A",
"0  c #7A4929",
"q  c #6D4B34",
"w  c #664738",
"e  c #774C35",
"r  c #6F5238",
"t  c #5E401C",
"y  c #373947",
"u  c #2A3957",
"i  c #343C54",
"p  c #27334A",
"a  c #2C3D65",
"s  c #1D325E",
"d  c #463D46",
"f  c #513E40",
"g  c #3B465C",
"h  c #364458",
"j  c #38434D",
"k  c #2A466A",
"l  c #3B4A64",
"z  c #384A66",
"x  c #3A536A",
"c  c #2B4975",
"v  c #374D75",
"b  c #3B5677",
"n  c #2F507B",
"m  c #3B637D",
"M  c #474448",
"N  c #574948",
"B  c #474958",
"V  c #564C56",
"C  c #4A535D",
"Z  c #585458",
"A  c #59514E",
"S  c #644C42",
"D  c #674E48",
"F  c #695448",
"G  c #665654",
"H  c #73574D",
"J  c #76655B",
"K  c #68645E",
"L  c #464D66",
"P  c #425265",
"I  c #44536C",
"U  c #4B5569",
"Y  c #535B6D",
"T  c #5B5C6B",
"R  c #575765",
"E  c #445B75",
"W  c #4B5C74",
"Q  c #4B5D7B",
"!  c #455677",
"~  c #545C76",
"^  c #464E6E",
"/  c #625C68",
"(  c #5A626C",
")  c #4B627C",
"_  c #53627C",
"`  c #596678",
"'  c #5D717E",
"]  c #686568",
"[  c #666B79",
"{  c #67767A",
"}  c #79767A",
"|  c #726D68",
" . c #586257",
".. c #82461C",
"X. c #834825",
"o. c #875737",
"O. c #887B79",
"+. c #956348",
"@. c #78B23E",
"#. c #699C3F",
"$. c #7CB644",
"%. c #74A947",
"&. c #77967B",
"*. c #6E8D72",
"=. c #7DA462",
"-. c #7FC24F",
";. c #8EBD3F",
":. c #88C33E",
">. c #91C13C",
",. c #84BD45",
"<. c #84BD4B",
"1. c #8ABE4C",
"2. c #8ABC44",
"3. c #8CBD54",
"4. c #8DBC5C",
"5. c #86B958",
"6. c #91BD5C",
"7. c #8F817D",
"8. c #8CB867",
"9. c #92BC68",
"0. c #86A779",
"q. c #8BB476",
"w. c #93BA75",
"e. c #84A96B",
"r. c #86C244",
"t. c #8AC345",
"y. c #86C24B",
"u. c #8BC34B",
"i. c #8CC94C",
"p. c #91C44B",
"a. c #91C546",
"s. c #8BC252",
"d. c #88C356",
"f. c #92C358",
"g. c #94C166",
"h. c #91C36F",
"j. c #3B5B86",
"k. c #2D5988",
"l. c #3E6696",
"z. c #3A6389",
"x. c #435C83",
"c. c #455C87",
"v. c #535D83",
"b. c #4B6382",
"n. c #4A678A",
"m. c #536482",
"M. c #5C6C84",
"N. c #566A86",
"B. c #5D7287",
"V. c #466A95",
"C. c #577397",
"Z. c #4F6E95",
"A. c #646D86",
"S. c #637385",
"D. c #63748C",
"F. c #69798A",
"G. c #777B89",
"H. c #6B7C93",
"J. c #6C7D9B",
"K. c #667793",
"L. c #727D92",
"P. c #737E9A",
"I. c #6C7DA2",
"U. c #827C84",
"Y. c #6C8388",
"T. c #76868B",
"R. c #7A9786",
"E. c #6E8194",
"W. c #6C829A",
"Q. c #6D889A",
"!. c #738295",
"~. c #7A8494",
"^. c #73849C",
"/. c #7A859B",
"(. c #758A9C",
"). c #7A8B9C",
"_. c #778B95",
"`. c #7C9398",
"'. c #6D85A2",
"]. c #7485A3",
"[. c #768AA3",
"{. c #7B8CA4",
"}. c #7C8DAA",
"|. c #7788A7",
" X c #7D91A4",
".X c #7D92AB",
"XX c #7893A9",
"oX c #7B90B2",
"OX c #88858A",
"+X c #828C9C",
"@X c #888A96",
"#X c #85979B",
"$X c #968F8F",
"%X c #89A788",
"&X c #96B889",
"*X c #94B395",
"=X c #A6B395",
"-X c #828DA3",
";X c #838CA9",
":X c #8393A5",
">X c #8394AC",
",X c #8A95AB",
"<X c #859AAB",
"1X c #8C9CAC",
"2X c #8798A4",
"3X c #9698A7",
"4X c #8495B2",
"5X c #859AB2",
"6X c #8B9CB3",
"7X c #8999B8",
"8X c #939DB6",
"9X c #838AB5",
"0X c #8AA4A7",
"qX c #94A8AA",
"wX c #9BB7AA",
"eX c #8CA3BB",
"rX c #8CA3B4",
"tX c #93A4B5",
"yX c #93A4BA",
"uX c #9BACBD",
"iX c #99A6B8",
"pX c #9BB4B6",
"aX c #8AB4AA",
"sX c #A4A8BA",
"dX c #A7B5BB",
"fX c #AAADAC",
"gX c #A5979A",
"hX c #99C48A",
"jX c #A8CB90",
"kX c #A9C9A7",
"lX c #AACAB3",
"zX c #9FC0A5",
"xX c #9BACC3",
"cX c #96A7C5",
"vX c #9CB3C7",
"bX c #91A8C6",
"nX c #A4ACC7",
"mX c #A3B5CC",
"MX c #A7B7C9",
"NX c #ABBCD4",
"BX c #A7B9D6",
"VX c #B3BBCE",
"CX c #8B97C1",
"ZX c #ADC1D7",
"AX c #B5C6DA",
"SX c #B2C8CE",
"DX c #B9CAE3",
"FX c #BDD1E2",
"GX c #C6D7EA",
"HX c #C9DBEC",
/* pixels */
"<.1.s.<.@.$.,.y.d.y.y.y.s.s.s.p.>.>.:.r.t.i.s.s.d.s.s.y.1.p.p.2.p.y.,.u.u.r.r.u.r.r.r.r.r.a.r.:.t.t.t.2.2.r.t.i.r.u.r.y.i.i.y.y.",
"p.s.1.,.@.@.,.s.i.i.y.u.<.r.1.r.t.t.t.i.i.r.<.y.y.y.<.i.p.1.p.p.,.i.i.u.r.u.u.i.t.t.t.i.t.t.1.r.t.t.t.a.a.i.u.2.u.u.u.u.u.y.r.<.",
"3.1.1.<.$.,.,.i.y.r.r.r.t.a.a.a.,.1.y.s.s.s.s.s.y.2.u.2.2.a.2.:.p.2.2.2.2.1.r.r.2.1.p.3.s.3.1.s.2.1.p.p.t.2.2.r.2.r.t.2.t.a.a.i.",
"1.s.u.s.s.y.i.u.r.r.2.:.t.t.t.2.d.g.f.d.4.4.4.6.9.g.g.8.5.4.9.8.5.5.4.9.g.f.6.6.3.3.6.6.d.6.4.6.3.p.f.f.f.p.p.u.u.t.a.a.t.t.t.t.",
"p.1.1.2.u.u.y.<.u.1.t.i.p.p.p.6.8.8.8.8.8.8.q.q.0.0.0.%XR.R.R.*X%X%X%X&X0.=.0.q.w.w.9.9.8.8.4.6.6.6.4.4.f.g.s.3.1.1.2.i.a.t.a.a.",
"s.1.s.d.4.d.4.4.4.4.8.8.8.8.9.w.q.&X&X%X%X&.*.| K { { F.D.Y.(.<X`.#X#X#XR.&.R.%X*X&X0.0.0.q.0.e.e.e.e.=.=.e.8.q.w.9.9.h.9.9.9.g.",
"6.9.9.g.8.e.8.q.%X%XR.R.Y.*.G.Y.Y._.`.`.~.@XT.T.`.#XT.` I I E E ' Y._.`.2X2X#X+X0X#X#X`.OX#X#X`.`.`.R.R.*.R.R.R.&.&.&.&.&.&.&.&.",
"q.q.=.&.*.*.*.R.R.Y.Y.D.N.N.K.H.[.XX X).).).).G.[ ` U l h k b ) I ) B.S.B.H.E.!.).[.).W.^. X4X.X<X X[.(..X<X`.E.' S.Y._.0X0XwXdX",
"SXpXpX0X`.2X X0X<XQ.].].J.M.m.K.H.(.`.F.' Y R C L B L ^ ^ ^ v v b.) b x b W E ) ) ) M.S.B.W.[..X<X XQ.E.^.`.:X2X1XrXVXFXSXpXuX2X",
"aXoXvXmXvXvXBXNXDXAXDXDXxXcXcXyXeXeXrX0X1X+XT.~.G.{ A.A.v.! ! Q b.! ! ! ) m.B.H.^.[.Q.(.5X|.B.B.(.<XiXtXxXZXAXMXvXmXrXrX1X(.S.B.",
"'.Q.Q.`.XX(.:X>X5X6XMXmXnXMXBXNXDXZXBXNXAXVXVXVXMXnXsXiX-XJ.J.^.^.Q.J.H.E.[.{.W.H.[.[.W.7X7X4XxXSXAXFXVXuXvXuX:X_.).M.L.).^.K.` ",
"Q.XX(.(.`.!./.H.S.H.:X,X1X{.{.4X7X8X5X4X1XiXiX8XVXFXGXAXMXVXZXVXNXmXmXxXxXxXrX{..XeXBXZXBXZXBXBXiXrXrXrX). X}.).!.D.N.5X].].^.x ",
"XXbX5X[.[.[.-XA.I !.5X|.5X X^.>X.X}.}.!.L.(.(.H.G.#X1X1X,X1X1X0XrXrXcXBXAXFXGXHXHXDXBXbX9X7XoXJ.^.Q.{.,X:X}.;X}.[.M.m.7XH.P.|.^ ",
"B.XX.X}.|.}.}.m.z ;XnXP.|..X{.|.4X}.}.[.!.E.H.B.` E.)._._.L.S.F.H.!.^.^.:X6XmXAXFXvX}.J.|.9X|.].m.J..X}.}.;X>X}.;XM.L D.P.|.^._ ",
"z ` ^.1X4X-X[.M.u M.}.K.W.}.oXoX4X;X.X}.].'.K.Q Q >X<XJ.].{.J.J.H.H.M.D.^.}.6XZXDX>X!.).[.(.^.{.W ].4X|.{.5X7X7X{.A.x M.-X>X-X{.",
"E.H.[.5X}.].{./.L g ` D.].J.}.<X7X8X7X}.].}.K.a ! bXbXD.J.oX].J.J.W x L.cX:X>XFXNXD.D.tX2X).{.!.l K.P.F.{.8X1X3X@XL.D.D.H.S.L.6X",
").:X<XXXoXoXD.P.G.Z { ~./.^.H.>X1X8X8X6X;X;XK.^ ^ N.I.P.I.I.|.XX].P h (.vX5XXXAXNXx K.iX:X{.+X!.l L S.U.L.,X3X$XO.J B.V.x ` Q.Q.",
",X(. XrXC.V.v.` T Z  .] A.G.G.OX3X3XiX1X;X;XP.~ B U L.P.P.I.'.|.{.x h N.].W.5XDXeXI I B.,X-X_.,X` T } U.{ } O.H D A n.j.) F.Y.XX",
")._.).xXC.c c.Q h j X . * f N N J J 7.T.Y._.U.G.[ *.T._.;X,X X[.{.' h h N.H.|.NXvX_ P S.{.,X!.G.} ] G N 2 2 1 1 S / ) c N.H.B.XX",
"G.). XcXC.k b x._ C 2 % = & - & o $ % 2 2 2 N * F K | ( S.+X).(.).-XS.W F.^.:XmXZX!.M.<X X).D.M 3 & & & 3 3 r H H [ b c K.P.B.'.",
"Y.!.~.yXI.v c b n.~ M 3 9 : + @ > 1 1 1 & & 6 O ; ; 3 N C W _ H.^.{.8X,XL.!.iXVXMX6X).<XrXD.x y 3 6 > > 1 6 > w Z ~ ^ x.}.-XK.P.",
"H.A.F.nXCXn.k v j.m.] w 5 : @ @ , > > 1 5 0 X.X.X.e D Z ( ) ! ! !.).,X1X/.S.:XSXuX,X>X!.xX) x C 3 O > # # > 4 F R ^ ~ ! ].P.v.P.",
"M.E.H.tXiXB.x ) x.v.[ G w 7 @ @ # + O O # @ @ < 0 r G U ) n.j.v K.2X(.).1X!.L.VXxX!.>X(.eXb b ( 3 > , < < < r Z ~ ~ T d P.L.L M.",
") vX}.-X8X{ j ( n.! N.T N q + ..8 0 8 O < < @ < q D T ! v k a v m.{.}.~.:X/.~.xXuX!.{..XrXb k I Z q 7 ....7 r  .I N.V f -XD.g l ",
"x XX<X).3XU.. Z A.! Z.b.( A 5 0 e X.0 X.X...X.X.D M ^ c.c s v v W ^..X{.!.^.6XMXxX^.W.J.bXb.v ) Y G 9 < < q N ) x.~ f * U.A.^ ~ ",
"x b Q.6X$X7.r % R Q j.n.n.( F q 9 8 : X.X.: : D Z Y c.V.x.! ~ d W J.W.[.|.W.4XFXNX'.W.].7X) ) Q x.T q X.e w Y ) ! Y S = G.D.S.S.",
"N.b.'.xXfX$Xq & * ~ j.j.z.B.] F 5 7 X.X...: w V Y Q c.Z.N.T Z M ` }.W.W.[.W.|.NXAX|.H.K.5XW ! b.c._ D r r G ) z.E ] D w G.Y.E.).",
"Q.XXXXuXdX7.o O $ d Q c c Z.[ ] r 0 o.X.e D G U ! x.! _ T A w 3 T H.M.K.[.|..XBXNXH.P.L. XP C b.j.x./ D D ( ) b P J q = @XE.E.<X",
"{.|.XXpXdXO.6 ; ; - V a a Z.B.[ F e 0 q w  .E m j.V.W C N r r 1 Z l I <XxX[..XDXxXU :XiX~.i j U x.c Y / Z ( z z N H & = $X^.^.<X",
",X X(.uXdXOX6 O : & f d u j.N.' K F F 3 A ( E z.l.m C N q q q 1 M i P 6XxX[.}.ZXcXh D.-X@Xy X i Q a x ( ` I h g D ; & D @X(. XXX",
",X1X(.0XsX} - o O @ - * y a ^ N.{ ] J Z R ~ j.c.n.L D H 0 7 6 1 y g i Y D.J.4XDXcXP B G.3Xd   . P k k Q _ I g V e : ; D @X/.6XXX",
"+X,X+XtXtX} = O @ # @ o V ^ ^ N.( C ( C x ^ a a R V H +.o.o.o.3 Z ` h h A.^.5XBX8XY R @XfX* X X M U k j.n.! T V : X.- N @X/.eX7X",
"W..X5XyXCXU.; # @ @ X.; % N ( M.~ Y ! c.a s a B w q e e o.+.o.w T H.` ` L.P.,XAX1XL.L.3XfX= o   X d ! n.V._ Z 3 9 7 - D $X/.eX6X",
"W.^.[.5XyXU.; # @ @ : O - * B A.A.m.V.V.c.v L D r , > > 7 e X.& T ^.L.S.A.L.,XNX8XL.!.@XgXe o o   . x z.C.m.Z N 5 e - D 3X-XyX4X",
"_.!.L.-XcX@Xw # O @ @ # ; $ y m.N.n.V.l.V.! A w r 0 0 < 9 e 9 & / {.-X).A.H. XvXtX-X}.@XgXe ; &   X z n C.m.R N w e ; F @XW.4XeX",
"@X~.L.-X8X@Xw ; : O < + 5 % y v.C.Z.l.l.j.^ 3 ; 7 < < 0 0 r e & [ -X:X2X;XL.(.vX6X-X,X$XgX9 5 ; X M b z.Z.v.Y Z F D - H @XB.'.oX",
"@X@XL.).4XOXw # O O 8 : 9 D ~ N.C.V.l.l.x.R w ; + @ , 7 4 q 9 3 G.>X).2X8X{.^.vX:X-X,X3X$X5 ; ; 3 ( N.V.x._ L L Z D % H 3XJ.J.'.",
"/.~.L.-X7X@X& o # # : : = / A.V.Z.l.V.V.! C D w 8 < , 7 7 9 6 & G.tX X).6X9X.XvX}./.,X3X$Xw = ; G [ M.m.z P l g R V $ K ,XK.W.oX",
"!.^.P.}.6XOXo o # # - = D ` x.j.Z.m V.n.l C T F 5 + , 7 0 7 ; & U.iXrX`..XrXeXZX:X!.+X3X7.9 5 S ] ` W ^ p i g l ~ U . [ -XQ n.eX",
"K.].'.|.4XU.: # O & = f [ _ c c ) h C x i B ` T S 6 > 8 8 0 0 1 U.iXyX:XW.XXbXDX2XL.!.$XOXw = D A.W C y X y P L Q ~ i [ -XW b K.",
"v I.bXXX7XOXe # ; 2 B ) b u s v R . * M j z N.Q R G e 8 X.X.4 1 U.iXiX8X9X].eXDXXX^.!.T.O.N % | ` z V N $ X d U ! x.v A.P.~ P D.",
"l H.bXCXbX2XH o 2 R _ b c u z R A w & * j h b j.c.R e X.X.X.0 = G.cXrX1XyX].XXAX0X(.H.@X} . 3 ] x h N S = $ X i ! n.j.C.].A.F.>X",
"L L K.5XmX1XF % R N.V.l.j.W T G w e 5 = M h v z.j.v.V o.X.o.: - / tXrX<XeXoX.XvXiX).L.+XG.* / T i B D q D -   X l Z.n c.H.[ /.iX",
"A.U ` }.BXrXZ M x j.k.j.) R N ; 0 8 0 e 3 M E z.c.v./ D ; : : % / ).<XrX5X.XvXMX1X!.!.-XT.M [ Y U R D : : ;   X y b.c k.B.F.~.;X",
"~.~.).{.bX4XY U c.l.V.m./ f = 9 < : 0 e 6 2 U N.c.v.v./ S 5 ; % [ J.(.6X6X>XxXFX-X~.{.}.L.Y _ _ R N 9 + + ; o $ . x c v H.+XE.(.",
"L.).+X).bX|.Y _ n j.n.Y S & o O O < : + 4 & . U v.c.c.Q R F w - [ }.(.(.7X7XvXFX,X~.].|.).D.) _ V & ; + O ; ; $ X y x b J.,X(.}.",
"W.D.G.+XcX].I ! k k.Y A ; ; O # O : < # : ; - d Q c.c.x.~ / S $ R P.H.H.-X,XxXAX,XA.^.|..XN.j.W 3 & , + + 9 9 = * R S.D.^.{.].oX",
"W.F.~._.7X].^ p a ! V = - # O + ; + ..@ O 0 ; $ d v.c.c.c.M.V $ C ^ W ^.{.|.nXFX+XA.7XcX4X! c.` 3 O 8 8 ; e H J O.3XiXyX;XH.XX.X",
").F.S.~.6XB.` M.` R N w 5 O , + + 8 @ @ # @ O % . T v.N.! v.^ i L k I 5XiX).MXHXH.Q CXcX9X^ _ Z 1 > > 1 H | U.3X8XnXZX<X}.M.L.4X",
",XF.F.L.vXyX,X:X@XG.| K H r 9 ; ; ; 7 + , , > t % d T ^ v b.n.! ^ L h H.tX`.qXSXF.u v.9X;XL Y 2 t t q J U.gX8XnXvX9X X XiX( L iX",
"A.M.!.A..XcXrXvXmXSXdXgXgXOX| J G D w 4 > > > r ; * d ^ p m m z.Q N.h x B.E.tXSXS.g ~ :X+XB Z 2 3 J 7.OX8XVXGXNX}.|.5X<XtXS.[ wX",
"^ v.8X^.B.[..XrXxXvXMXMXVXVXsX3X$XOXO.J r r r 6 D S * / h x m m m.L.D.N.M.E.uXNX!.` F.).[ j  .K OXOX3XsXnXnXnX6XM.A.tX<X#XwXwX=X",
"L L (. XH.Q..XXXQ.Z.'.oX;XbXcXcXnXVXVXsX3XOXO.J J D 2 . C h m m B.!.{.4XoX].yXAX:X!.:X4XI.v.U.@X1XmXBXeX/.;X8X8X_ h `.dXkXjXjXd.",
"S.i U E.E.^..X.XB.x '.CXI.J.oX7X,XiXVXGXAXVXsXqXgXU.} Z Y x v b.F.(.!.|.CX7XyXNX}.F.|.;XU.P.,XnXZXeX[.XX:X[.,XnXS.{ *XkXjXh.<.-.",
"wXT.Y.#X`.(.E.[.m.z H.8X{.E.L.-X~.+X1XvXMXvXuXuXdXnXMXsX2X].v.N.L.:X].I.7XcXmXNX5XJ.J.|.CX9XnXBXoXXXQ.Q. X2X6XyXqXkXjXg.<.,.,.i.",
"*X&XzX*XwXwXY.T.F.h P { L./.G.L.,X).[.rXuXrX5XyX|.eXMXNXxX;X>XP.2X{.|.|.I.4XBXGX).F.D.;XBXcXcXI.XXXXW.Y.Q.0XaXlXkXw.8.1.i.i.r.d.",
"3.4.9.h.&XjX*X%X%XY.S.F.G.F.L./.XXXXXX0XrXtX3XA._ L.4X7X,X<X:X^.!.4XoX|.I.].iXFX#X{ B.E.1X:X}._ W.5XW.E.`.aXkXhX8.4.d.d.4.3.y.y.",
"r.r.r.1.f.g.w.q.=X*X*XqXqX#X`._.Q.`.XXrXiXiX;XT g 4XcX.X7X6X~.).}.{.J.}.I.P.qXFXpX*.` S.(..XE.l ` F.F.0XlXzXh.5.d.d.d.$.d.d.u.r.",
"t.u.<.2.2.1.d.f.4.9.w.&XhXR.*X*XaXXX#X1XiXsX3XA.i H.6X5X<X5X>X2X^.M.N.|.|.!.1XSX#X_.`.S.H.<X_.h U _.*X=Xh.9.d.<.d.d.$.d.y.i.r.>.",
"y.y.u.u.u.r.r.-.y.<.5.-.d.h.hXhXkXlXwXwXfXsX8X+X^ h B.eX5X5XcX8X!.I W >XyX).2XSX(.` eX].^.H._.{ R.=X&X9.3.1.i.y.d.d.d.d.u.r.r.>.",
"3.1.y.y.r.r.r.:.i.i.i.d.-.h.d.8.5.w.w.jXjXkXlXlX2XY.W.7XbXoX4XyX2XP l :XxX{.5XNXH.z ].W.(.F.#X%X&X9.6.3.i.2.y.d.d.<.-.r.r.r.>.t.",
"s.y.<.,.r.r.i.:.:.r.r.u.-.d.-.-.f.f.6.4.9.&XhXhXlXlXwXpXdXdX6X0XqX' h W J.{.xXmXm.u N.[.0X*X%X0.5.1.1.2.r.r.u.i.$.$.$.$.1.2.t.t.",
"s.3.<.@.$.,.i.y.y.r.t.t.t.p.d.i.:.t.,.y.f.8.8.5.g.g.jXjXkXlXlXwXpX0X' x M..XmXBXN.l H.pXkX&X8.4.<.y.u.2.r.i.i.,.d.$.%.%.5.d.s.d.",
"u.s.<.$.$.$.i.r.u.r.2.a.a.t.r.t.>.a.r.y.d.-.i.i.a.2.2.f.w.hXlXSXSXSXuX X:X4XMXDXJ.!.pXwX&Xq.f.i.s.-.d.s.u.u.u.i.s.%.#.%.=.8.f.5."
};
